<?xml version="1.0" encoding="utf-8"?>
<!-- Generator: Adobe Illustrator 23.0.6, SVG Export Plug-In . SVG Version: 6.00 Build 0)  -->
<svg version="1.1" id="Слой_1" xmlns="http://www.w3.org/2000/svg" xmlns:xlink="http://www.w3.org/1999/xlink" x="0px" y="0px"
	 viewBox="0 0 750 732" style="enable-background:new 0 0 750 732;" xml:space="preserve">
<style type="text/css">
	
		.st0{display:none;fill-rule:evenodd;clip-rule:evenodd;fill:#FFFFFF;stroke:#000000;stroke-width:0.9921;stroke-linejoin:round;stroke-miterlimit:22.9256;}
	.st1{fill-rule:evenodd;clip-rule:evenodd;fill:#3E405E;}
	.st2{fill-rule:evenodd;clip-rule:evenodd;fill:none;stroke:#3E405E;stroke-width:0.216;stroke-miterlimit:22.9256;}
	.st3{fill-rule:evenodd;clip-rule:evenodd;fill:#FFDDBA;}
	.st4{fill-rule:evenodd;clip-rule:evenodd;fill:#FFCC99;}
	.st5{fill-rule:evenodd;clip-rule:evenodd;fill:#FF0066;}
	.st6{fill-rule:evenodd;clip-rule:evenodd;fill:#FCBF2F;}
	.st7{fill-rule:evenodd;clip-rule:evenodd;fill:#FFA600;}
	.st8{fill-rule:evenodd;clip-rule:evenodd;fill:#C48E58;}
	.st9{fill-rule:evenodd;clip-rule:evenodd;fill:#FFC8B2;}
	.st10{fill-rule:evenodd;clip-rule:evenodd;fill:#AB7137;}
	.st11{fill-rule:evenodd;clip-rule:evenodd;fill:#FFFFFF;}
	.st12{fill-rule:evenodd;clip-rule:evenodd;fill:#CC6633;}
	.st13{fill-rule:evenodd;clip-rule:evenodd;fill:#3D1D05;}
	.st14{fill-rule:evenodd;clip-rule:evenodd;fill:#FFCD38;}
	.st15{fill-rule:evenodd;clip-rule:evenodd;fill:#FF8800;}
	.st16{fill-rule:evenodd;clip-rule:evenodd;fill:#DE954C;}
	.st17{fill-rule:evenodd;clip-rule:evenodd;fill:#CC8742;}
	.st18{fill-rule:evenodd;clip-rule:evenodd;fill:#094DF2;}
	.st19{fill-rule:evenodd;clip-rule:evenodd;fill:#995F25;}
	.st20{fill-rule:evenodd;clip-rule:evenodd;fill:#EDAE5C;}
	.st21{fill-rule:evenodd;clip-rule:evenodd;fill:#592208;}
	.st22{fill-rule:evenodd;clip-rule:evenodd;fill:#2421DE;}
	.st23{fill-rule:evenodd;clip-rule:evenodd;fill:#FFCC00;}
	.st24{fill-rule:evenodd;clip-rule:evenodd;fill:#FFE875;}
	.st25{fill-rule:evenodd;clip-rule:evenodd;fill:#00CCFF;}
	.st26{fill-rule:evenodd;clip-rule:evenodd;fill:#EDAA00;}
	.st27{fill-rule:evenodd;clip-rule:evenodd;fill:#FF6600;}
	.st28{fill-rule:evenodd;clip-rule:evenodd;fill:#F0B57A;}
	.st29{fill-rule:evenodd;clip-rule:evenodd;fill:#FFB894;}
	.st30{fill-rule:evenodd;clip-rule:evenodd;fill:#782E0C;}
	.st31{fill-rule:evenodd;clip-rule:evenodd;}
	.st32{fill-rule:evenodd;clip-rule:evenodd;fill:#290E01;}
	.st33{fill-rule:evenodd;clip-rule:evenodd;fill:#913809;}
	.st34{fill-rule:evenodd;clip-rule:evenodd;fill:#BF6600;}
	.st35{fill-rule:evenodd;clip-rule:evenodd;fill:#330000;}
	.st36{fill-rule:evenodd;clip-rule:evenodd;fill:#F4DD72;}
	.st37{fill-rule:evenodd;clip-rule:evenodd;fill:#819694;}
	.st38{fill-rule:evenodd;clip-rule:evenodd;fill:#A89983;}
	.st39{fill-rule:evenodd;clip-rule:evenodd;fill:#D9A743;}
	.st40{fill-rule:evenodd;clip-rule:evenodd;fill:#7D6F5B;}
	.st41{fill-rule:evenodd;clip-rule:evenodd;fill:#6D0803;}
	.st42{fill-rule:evenodd;clip-rule:evenodd;fill:#4D0400;}
	.st43{fill-rule:evenodd;clip-rule:evenodd;fill:#F7BD4A;}
	.st44{fill-rule:evenodd;clip-rule:evenodd;fill:#FFFBDB;}
	.st45{fill-rule:evenodd;clip-rule:evenodd;fill:#B57C09;}
	.st46{fill-rule:evenodd;clip-rule:evenodd;fill:#E4B149;}
	.st47{fill-rule:evenodd;clip-rule:evenodd;fill:none;stroke:#FF0000;stroke-width:0.216;stroke-miterlimit:22.9256;}
	.st48{fill-rule:evenodd;clip-rule:evenodd;fill:#231F4D;}
	.st49{fill-rule:evenodd;clip-rule:evenodd;fill:#837A91;}
	.st50{fill-rule:evenodd;clip-rule:evenodd;fill:#0200BB;}
	.st51{fill-rule:evenodd;clip-rule:evenodd;fill:#1C1E36;}
	.st52{fill:#1C1E36;}
	.st53{fill-rule:evenodd;clip-rule:evenodd;fill:#1D97CC;}
	.st54{fill-rule:evenodd;clip-rule:evenodd;fill:#5B4E6E;}
	.st55{fill-rule:evenodd;clip-rule:evenodd;fill:#CCCCFF;}
	.st56{fill-rule:evenodd;clip-rule:evenodd;fill:#313163;}
	.st57{fill-rule:evenodd;clip-rule:evenodd;fill:#6B6D99;}
	.st58{fill:#231F4D;}
	.st59{fill-rule:evenodd;clip-rule:evenodd;fill:#5D417A;}
	.st60{fill-rule:evenodd;clip-rule:evenodd;fill:#998EAB;}
</style>
<path class="st0" d="M809.7,616H341.3c-2.4,41.3,30.4,86.5,124.2,116c-113-8.7-242.5-23.9-298.2-116h-263
	c-22.7,0-41.3-16.1-41.3-35.7V35.7C-137,16.1-118.4,0-95.7,0h905.5C832.4,0,851,16.1,851,35.7v544.5C851,599.9,832.4,616,809.7,616z
	"/>
<path class="st0" d="M-95.7,616h234.2c2.4,41.3-30.3,86.5-124.2,116c113-8.7,242.5-23.9,298.2-116h497.2c22.7,0,41.3-16.1,41.3-35.7
	V35.7C851,16.1,832.4,0,809.7,0H-95.7C-118.4,0-137,16.1-137,35.7v544.5C-137,599.9-118.4,616-95.7,616z"/>
<g>
	<rect x="99.5" y="443.7" class="st1" width="352.8" height="104.6"/>
	<g>
		<rect x="99.5" y="443.7" class="st2" width="352.8" height="104.6"/>
		<g>
			<g>
				<g>
					<path class="st3" d="M275.9,511.5c3,0.6,5.5,1.1,7.6,2.4c4.4,2.5,9,3.7,15.6,5.8c3.7,1.2,6.8,6,7.6,11l3.1,17.6l-33.9,0
						l-33.9,0l3.1-17.6c0.8-5,3.9-9.8,7.6-11c6.6-2.1,11.2-3.3,15.6-5.8C270.5,512.6,272.9,512.1,275.9,511.5z"/>
					<path class="st4" d="M267.1,515.5c0.9-2.5,1.2-4.8,1.1-11.2l7.8,0l7.7,0c-0.1,6.4,0.2,8.7,1.1,11.2c-0.2,4.1-5.1,5.9-8.8,5.9
						C272.1,521.4,267.3,519.5,267.1,515.5z"/>
				</g>
				<g>
					<path class="st5" d="M275.9,528c-13.2,0-15.8-5.5-18.9-9.7c-1.3,0.4-2.8,0.9-4.3,1.4c-3.7,1.2-6.7,6-7.6,11l-3.1,17.6l33.9,0
						l33.9,0l-3.1-17.6c-0.9-5-3.9-9.8-7.6-11c-1.6-0.5-3-1-4.3-1.4C291.7,522.5,289.1,528,275.9,528z"/>
					<path class="st6" d="M306.6,529.9l-61.3,0c-0.1,0.3-0.1,0.5-0.2,0.8l-0.1,0.6l61.9,0l-0.1-0.6
						C306.7,530.4,306.6,530.1,306.6,529.9z"/>
					<polygon class="st6" points="307.4,534.7 244.4,534.6 244.1,536.2 276,536.3 307.7,536.3 					"/>
					<polygon class="st6" points="308.4,540.1 243.4,540.1 243,542.3 276,542.3 308.8,542.3 					"/>
					<polygon class="st6" points="309.3,545.5 242.5,545.5 242,548.3 276,548.3 309.8,548.3 					"/>
				</g>
				<g>
					<path class="st3" d="M252.7,519.6c-3.7,1.2-6.8,6-7.6,11l-3.1,17.6l12,0C254.8,540.5,253.3,525.1,252.7,519.6z"/>
					<path class="st3" d="M299.1,519.6c3.7,1.2,6.8,6,7.6,11l3.1,17.6l-12,0C297,540.6,298.5,525.1,299.1,519.6z"/>
				</g>
			</g>
			<g>
				<path class="st7" d="M275.9,503.4c-13.2,0-22.6-3.4-24.5-21c5.8-3.5,16.7-7.4,24.5-7.4c7.8,0,18.7,4,24.5,7.4
					C298.5,500.1,289.1,503.4,275.9,503.4z"/>
				<g>
					<g>
						<path class="st3" d="M275.9,468.5c-9.7,0-19,6.9-19.8,18.9c-7.6-2-5.4,8.6,0.7,8.2c0.8,2.6,2.8,5.3,5.6,8.2
							c2.7,2.7,9.7,6.8,13.4,6.8c3.7,0,10.7-4.1,13.4-6.7c2.9-2.9,4.9-5.6,5.7-8.2c6.2,0.4,8.4-10.2,0.8-8.2
							C295,475.4,285.7,468.5,275.9,468.5z"/>
						<path class="st8" d="M255,491.6c0.4-0.4,0.5-1,0.3-1.5c-0.4-1-1.8-0.9-2.3,0c-0.4,0.6-0.2,2,0.9,3.1c0.6,0.6,2,1,1.8,0.4
							C255.6,493.1,254.7,492,255,491.6z"/>
						<path class="st8" d="M296.8,491.6c-0.4-0.4-0.5-1-0.3-1.5c0.4-1,1.8-0.9,2.3,0c0.4,0.6,0.2,2-0.9,3.1c-0.6,0.6-2,1-1.8,0.4
							C296.3,493.1,297.2,492,296.8,491.6z"/>
					</g>
					<g>
						<path class="st8" d="M275.9,493.3c-1.2,0-2.6,0.7-3,2.1c0.1-2,1.6-2.8,3-2.8c1.4,0,2.9,0.7,3,2.8
							C278.6,493.9,277.2,493.3,275.9,493.3z"/>
						<path class="st4" d="M275.9,495.1c-1.1,0-2.4,0.9-2.5,0.5c-0.3-0.7,0.7-2.1,2.5-2c1.8,0,2.9,1.4,2.5,2
							C278.3,495.8,277,495.1,275.9,495.1z"/>
					</g>
					<g>
						<path class="st9" d="M275.9,501.6c-1.7,0-3.8-0.7-4.1-0.4c-0.5,0.5,1.2,1.6,4.1,1.6c3,0,4.8-1.1,4.1-1.6
							C279.8,501,277.7,501.6,275.9,501.6z"/>
						<path class="st8" d="M276,503c1.1,0,3.8-0.2,4.7-1.5c-0.5,1.5-3.4,1.9-4.7,1.9c-1.3,0-4.2-0.4-4.7-1.9
							C272.2,502.8,274.9,503,276,503z"/>
						<path class="st10" d="M276,500.4c7.2,0,9.6-4.1,11.7-3.7c-2-0.5-4.7,3.5-11.7,3.5c-7,0-9.7-4-11.7-3.5
							C266.3,496.4,268.8,500.4,276,500.4z"/>
						<path class="st8" d="M264.9,495.9c-1-1-2.8-0.2-2,1.3C262.8,496.2,263.9,495.6,264.9,495.9z"/>
						<path class="st8" d="M287,495.9c1-1,2.8-0.2,2,1.3C289,496.2,288,495.6,287,495.9z"/>
					</g>
					<g>
						<path class="st11" d="M288.9,489.7c-0.6,0.1-1.5,0.5-2.1,0.9c-0.8,0.6-1.7,1.2-2.9,1.3c-0.8,0-1.4-0.7-1.5-1.3
							c-0.1-0.7,0.3-1.5,1.1-2.1C284.7,487.8,288.8,487.8,288.9,489.7z"/>
						<path class="st12" d="M284.4,484.2c-0.3,0.6,1.4,0.9,2.5,1.3c1.1,0.5,2.2,1.1,2.4,0.3C289.9,484.1,285.1,482.9,284.4,484.2z"
							/>
						<path class="st13" d="M283.9,491.9c0.8,0,1.5-0.7,1.5-1.5s-0.7-1.5-1.5-1.5c-0.8,0-1.5,0.7-1.5,1.5S283.1,491.9,283.9,491.9z"
							/>
						<path class="st11" d="M284.3,490.5c0.4,0,0.8-0.3,0.8-0.8c0-0.4-0.3-0.8-0.8-0.8c-0.4,0-0.8,0.3-0.8,0.8
							C283.5,490.1,283.9,490.5,284.3,490.5z"/>
						<path class="st13" d="M288.9,489.7c-0.7-1.9-6-1.9-6.5,0.6c0.1-2.6,4.1-3.6,6.4-2.7C290,488.2,290.5,489.3,288.9,489.7z"/>
					</g>
					<g>
						<path class="st11" d="M263,489.7c0.6,0.1,1.5,0.5,2.1,0.9c0.8,0.6,1.7,1.2,2.9,1.3c0.8,0,1.4-0.7,1.5-1.2
							c0.1-0.7-0.3-1.5-1.1-2.1C267.2,487.8,263.1,487.7,263,489.7z"/>
						<path class="st12" d="M267.2,484.2c0.3,0.6-1.4,0.9-2.5,1.3c-1.1,0.5-2.2,1.1-2.4,0.3C261.7,484.1,266.4,482.9,267.2,484.2z"
							/>
						<path class="st13" d="M267.9,491.9c0.8,0,1.5-0.7,1.5-1.5s-0.7-1.5-1.5-1.5c-0.8,0-1.5,0.7-1.5,1.5
							C266.4,491.2,267.1,491.9,267.9,491.9z"/>
						<path class="st11" d="M268.4,490.5c0.4,0,0.8-0.3,0.8-0.8c0-0.4-0.3-0.8-0.8-0.8c-0.4,0-0.8,0.3-0.8,0.8
							C267.7,490.1,268,490.5,268.4,490.5z"/>
						<path class="st13" d="M263,489.7c0.7-1.9,6-1.9,6.5,0.6c-0.1-2.6-4.1-3.6-6.4-2.7C261.9,488.1,261.4,489.3,263,489.7z"/>
					</g>
					<g>
						<path class="st9" d="M288.3,493.7c-2.7,1.1-4.4,2.6-5,1.7c-0.6-0.8,0-2.7,3.4-3.9c3.3-1.2,5-0.3,5.4,0.1
							C292.4,492,291,492.6,288.3,493.7z"/>
						<path class="st8" d="M287.4,492.4c-0.4,0.1-0.7,0-0.8-0.2c0-0.2,0.3-0.4,0.7-0.4c0.4-0.1,0.7,0,0.8,0.2
							C288.1,492.1,287.8,492.3,287.4,492.4z"/>
						<path class="st8" d="M289,491.8c-0.2,0-0.4-0.1-0.4-0.2c0-0.1,0.2-0.2,0.4-0.2c0.2,0,0.4,0.1,0.4,0.2
							C289.4,491.7,289.3,491.8,289,491.8z"/>
						<path class="st8" d="M284.1,494.5c-0.1,0.1-0.3,0.2-0.4,0.1c-0.1-0.1,0-0.2,0.2-0.4c0.1-0.1,0.3-0.2,0.4-0.1
							S284.3,494.4,284.1,494.5z"/>
						<path class="st8" d="M285.3,493.5c-0.3,0.1-0.5,0.1-0.5,0c0-0.1,0.1-0.3,0.4-0.4c0.3-0.1,0.5-0.1,0.5,0
							C285.7,493.2,285.6,493.4,285.3,493.5z"/>
						<path class="st8" d="M286.8,493.4c-0.3,0.1-0.5,0-0.5-0.1c0-0.1,0.2-0.3,0.4-0.4c0.3-0.1,0.5,0,0.5,0.1
							C287.3,493.2,287.1,493.4,286.8,493.4z"/>
					</g>
					<g>
						<path class="st9" d="M263.5,493.7c2.7,1.1,4.4,2.6,5,1.7c0.6-0.8,0-2.7-3.4-3.9c-3.3-1.2-4.9-0.3-5.4,0.1
							C259.4,492,260.8,492.6,263.5,493.7z"/>
						<path class="st8" d="M264.5,492.4c0.4,0.1,0.7,0,0.8-0.2c0-0.2-0.3-0.4-0.7-0.4c-0.4-0.1-0.7,0-0.8,0.2
							C263.8,492.1,264.1,492.3,264.5,492.4z"/>
						<path class="st8" d="M262.8,491.7c0.2,0,0.4-0.1,0.4-0.2c0-0.1-0.2-0.2-0.4-0.2c-0.2,0-0.4,0.1-0.4,0.2
							C262.5,491.7,262.6,491.7,262.8,491.7z"/>
						<path class="st8" d="M267.7,494.5c0.1,0.1,0.3,0.2,0.4,0.1c0.1-0.1,0-0.2-0.2-0.4c-0.1-0.1-0.3-0.2-0.4-0.1
							C267.5,494.2,267.6,494.4,267.7,494.5z"/>
						<path class="st8" d="M266.6,493.5c0.3,0.1,0.5,0.1,0.5,0c0-0.1-0.1-0.3-0.4-0.4c-0.3-0.1-0.5-0.1-0.5,0
							C266.1,493.2,266.3,493.4,266.6,493.5z"/>
						<path class="st8" d="M265,493.4c0.3,0.1,0.5,0,0.5-0.1c0-0.1-0.2-0.3-0.4-0.4c-0.3-0.1-0.5,0-0.5,0.1
							C264.6,493.2,264.8,493.4,265,493.4z"/>
					</g>
				</g>
				<g>
					<g>
						<path class="st7" d="M275.9,458.6c-0.5-2-2.4-2.2-3.7-2c1,0.2,2.1,1.3,2.3,2c-0.6-1.1-3.5-1.5-6.3-0.3
							c1.7-0.7,5.1,0.2,5.2,0.5c-8.7,0.4-21.8,5.8-23.7,17.1c-0.8,4.8,3.5,10.2,6.9,16.5c-0.9-8.9,4-16,9.8-17.8
							c-2.6,2-5.6,6.9-4.9,10.5c3-1.5,5.7-2.1,8.5-2.3c-0.9-3.2,0.2-5.4,2-7.5c-1,5.2-0.6,6.4,0.3,7.4c1.2-0.1,2.2-0.1,3.5-0.1
							c1.4,0,2.3,0,3.5,0.1c0.9-1,1.3-2.2,0.3-7.4c1.8,2.1,2.9,4.3,2,7.5c2.8,0.2,5.5,0.8,8.5,2.3c0.7-3.6-2.4-8.5-4.9-10.5
							c5.8,1.8,10.7,8.9,9.8,17.8c3.4-6.3,7.7-11.7,6.9-16.5c-1.8-11.3-15-16.7-23.7-17.1c0.2-0.3,3.6-1.2,5.2-0.5
							c-2.8-1.1-5.7-0.8-6.3,0.3c0.2-0.7,1.2-1.8,2.3-2C278.3,456.5,276.4,456.6,275.9,458.6z"/>
						<path class="st14" d="M260.9,465.9c4.2-1.2,5.9-1.2,7-0.6c-3.1,0.6-7.1,3.2-8.2,6.8c2.8-2.3,5.5-4,9.4-4.3
							c-1.9,0.6-4.3,2.4-5.3,4.5c2.2-2.2,6.3-4.5,10.6-4.5c-0.7-1.7-2.7-1.9-3.5-2.2c1.2-0.5,2.8-0.8,3.8-0.6
							C273.3,459.9,264.9,462,260.9,465.9z"/>
						<path class="st14" d="M291,465.9c-4.2-1.2-5.9-1.2-7-0.6c3.1,0.6,7.1,3.2,8.2,6.8c-2.8-2.3-5.5-4-9.4-4.3
							c1.9,0.6,4.3,2.4,5.3,4.5c-2.2-2.2-6.3-4.5-10.6-4.5c0.7-1.7,2.7-1.8,3.5-2.2c-1.2-0.5-2.8-0.9-3.8-0.6
							C278.6,459.9,286.9,462,291,465.9z"/>
					</g>
					<g>
						<path class="st7" d="M254.3,452.7c1.1,1.8,1.2,3.4,1.1,4.7c-1.5-5.1-14.4-8.2-20-2.4c4.3-1.9,6.5,0.1,8.4,0.8
							c-15.7,2.5-13.4,16.5-7.9,20.1c-0.7-3.4,2.9-9.8,5.4-9.2c-8.1,4.3-1.1,15.3,2,16.1c-1.5-2.2-1.2-10.4,1.7-11.2
							c-0.3,1.9-1.2,5.3,4.1,7.2c-2.6-4.5,2.2-9.9,3.3-10.8c0.7-0.6,1.3-0.3,2-0.3c0.4,0,1.5-0.8,1.3-1.6c-0.1-0.4-0.4-1.1-0.3-1.5
							C257.3,460.5,260.6,455.8,254.3,452.7z"/>
						<path class="st15" d="M253.7,455.9c0.3,1.6,0.7,3.2-0.2,4.3c-1.6-4.1-4.6-3.5-7.2-3.1c2.7,1.7,3.7,2.7,3.3,3.9
							c-3.4-3.1-8.8-0.6-10.3,2.6c1.1-0.7,7.1-0.6,9.3,0.4c-2,0.3-3.6,2.2-3.2,4.5c0.7-1.7,5.3-3.4,7.8-1.2c0.4,0.2,1.1-0.5,1.3-1.1
							C255.6,462.8,256.4,458.9,253.7,455.9z"/>
						<path class="st5" d="M256.7,471.2c1.1-0.8,1.9-1.8,2.6-2.9c0.8-1.2,0.9-2.8-0.2-3.8c-1.1-1-3.2-1.1-3.8,0.2
							c-0.5,1.2-1.4,2.2-2.6,2.9c-1.2,0.8-0.9,2.8,0.2,3.8C254.1,472.4,255.5,472.1,256.7,471.2z"/>
					</g>
					<g>
						<path class="st7" d="M297.6,452.7c-1.1,1.8-1.2,3.4-1.1,4.7c1.5-5.1,14.4-8.2,20-2.4c-4.3-1.9-6.5,0.1-8.4,0.8
							c15.7,2.5,13.4,16.5,7.9,20.1c0.7-3.4-2.9-9.8-5.4-9.2c8.1,4.3,1.1,15.3-2.1,16c1.5-2.2,1.2-10.4-1.7-11.2
							c0.3,1.9,1.2,5.3-4.1,7.2c2.6-4.5-2.2-9.9-3.3-10.8c-0.7-0.6-1.3-0.3-2-0.3c-0.4,0-1.5-0.8-1.3-1.6c0.1-0.4,0.4-1.1,0.3-1.5
							C294.6,460.5,291.3,455.8,297.6,452.7z"/>
						<path class="st15" d="M298.2,455.9c-0.3,1.6-0.7,3.2,0.2,4.3c1.6-4.1,4.6-3.5,7.2-3.1c-2.7,1.7-3.7,2.7-3.3,3.9
							c3.4-3.1,8.8-0.6,10.3,2.6c-1.1-0.7-7.1-0.6-9.3,0.4c2,0.3,3.6,2.2,3.2,4.5c-0.7-1.7-5.3-3.4-7.8-1.2
							c-0.4,0.2-1.1-0.5-1.3-1.1C296.3,462.8,295.5,458.9,298.2,455.9z"/>
						<path class="st5" d="M295.2,471.2c-1.1-0.8-1.9-1.8-2.6-2.9c-0.8-1.2-0.9-2.8,0.2-3.8c1.1-1,3.2-1.1,3.8,0.2
							c0.5,1.2,1.4,2.2,2.6,2.9c1.2,0.8,0.9,2.8-0.2,3.8C297.8,472.4,296.3,472.1,295.2,471.2z"/>
					</g>
				</g>
			</g>
		</g>
		<g>
			<g>
				<path class="st16" d="M400,511.5c3,0.6,5.5,1.1,7.6,2.4c4.4,2.5,9,3.7,15.6,5.8c3.7,1.2,6.8,6,7.6,11l3.1,17.6l-33.9,0h-33.9
					l3.1-17.6c0.8-5,3.9-9.8,7.6-11c6.6-2.1,11.2-3.3,15.6-5.8C394.5,512.6,397,512.1,400,511.5z"/>
				<path class="st17" d="M391.9,515.5c0.8-2.5,1.1-4.8,1-11.2h7.1l7.1,0c-0.1,6.4,0.2,8.7,1,11.2c-0.2,4.1-4.6,5.9-8.1,5.9
					C396.5,521.4,392.1,519.5,391.9,515.5z"/>
				<path class="st18" d="M400,548.3l33.9,0l-3.1-17.6c-0.9-5-3.9-9.8-7.6-11c-1.6-0.5-3-1-4.3-1.4c-0.9,5.3-2,7.3-2.4,10.4
					c-4.6-0.1-11-0.7-16.5-0.7c-5.5,0-11.9,0.5-16.5,0.7c-0.4-3.1-1.5-5.1-2.4-10.4c-1.3,0.4-2.8,0.9-4.3,1.4c-3.7,1.2-6.7,6-7.6,11
					l-3.1,17.6H400z"/>
				<path class="st16" d="M376.8,519.6c-3.7,1.2-6.8,6-7.6,11l-3.1,17.6h12C378.9,540.5,377.4,525.1,376.8,519.6z"/>
				<path class="st16" d="M423.2,519.6c3.7,1.2,6.8,6,7.6,11l3.1,17.6l-12,0C421.1,540.5,422.6,525.1,423.2,519.6z"/>
			</g>
			<g>
				<g>
					<path class="st16" d="M400,468.5c-11.3,0-22,9.6-18.9,26.2c0.5,2.9,2.6,6,5.8,9.2c2.6,2.7,10.8,7.7,13.1,7.7
						c2.3,0,10.5-5,13.1-7.7c3.1-3.2,5.2-6.3,5.8-9.2C422,478.1,411.3,468.5,400,468.5z"/>
					<g>
						<g>
							<path class="st19" d="M400,493.3c-1.2,0-2.6,0.7-3,2.1c0.1-2,1.6-2.8,3-2.8c1.4,0,2.9,0.7,3,2.8
								C402.6,493.9,401.2,493.3,400,493.3z"/>
							<path class="st20" d="M399.9,494.9c-1.1,0-2.4,0.9-2.5,0.5c-0.3-0.6,0.8-1.9,2.6-1.9c1.8,0,2.9,1.2,2.5,1.9
								C402.3,495.7,401,494.9,399.9,494.9z"/>
							<path class="st20" d="M387.4,495c1.9,1.1,4.4,2.1,4.8,1.3c0.5-0.8,0.6-3.2-2.6-4.5c-3.2-1.2-4.4,0.1-4.4,0.8
								S385.5,494,387.4,495z"/>
							<path class="st20" d="M412.6,495c-1.9,1.1-4.4,2.1-4.8,1.3c-0.5-0.8-0.6-3.2,2.6-4.5c3.2-1.2,4.4,0.1,4.4,0.8
								C414.8,493.4,414.5,494,412.6,495z"/>
						</g>
						<g>
							<path class="st21" d="M400,501.8c-2.4,0-5.7-1.5-6.9-2.6c2.1,1,4.6,1.4,6.9,1.4c2.7,0,5.1-0.6,6.8-1.4
								C405.7,500.3,402.4,501.8,400,501.8z"/>
							<path class="st20" d="M400,502.5c-1.5,0-3.3-0.7-3.5-0.4c-0.4,0.5,1,1.6,3.5,1.6c2.5,0,4.1-1.1,3.5-1.6
								C403.3,501.9,401.4,502.5,400,502.5z"/>
							<path class="st19" d="M400,503.9c0.9,0,3.2-0.2,4-1.5c-0.4,1.5-2.9,1.9-4,1.9c-1.1,0-3.6-0.4-4-1.9
								C396.8,503.7,399.1,503.9,400,503.9z"/>
						</g>
						<g>
							<path class="st11" d="M391.5,491.5c-1.3-0.2-2.5-1.7-4.2-1.7c0.3-1.4,2.9-1.9,4.8-1.4c0.1,0,1.1,0.2,1.2,1.3
								C393.5,490.9,392.4,491.6,391.5,491.5z"/>
							<path class="st21" d="M392.5,484.8c0.1,0.7-1.7,0.2-2.8,0.2c-1.2,0-2.4,0.1-2.3-0.7C387.4,482.6,392.3,483.4,392.5,484.8z"/>
							<path class="st22" d="M392,491.4c0.8-0.1,1.4-0.9,1.2-1.8c-0.1-0.8-0.9-1.4-1.8-1.2c-0.8,0.1-1.4,0.9-1.2,1.8
								C390.3,491,391.1,491.5,392,491.4z"/>
							<path class="st11" d="M392.1,489.9c0.4-0.1,0.7-0.5,0.6-0.9c-0.1-0.4-0.5-0.7-0.9-0.6c-0.4,0.1-0.7,0.5-0.6,0.9
								C391.3,489.7,391.7,490,392.1,489.9z"/>
							<path class="st13" d="M387.1,490.2c0.4-1.9,5.6-2.9,6.5-0.5c-0.5-2.6-4.7-2.9-6.8-1.6C385.7,488.8,385.5,490,387.1,490.2z"/>
						</g>
						<g>
							<path class="st11" d="M408.5,491.5c1.3-0.2,2.5-1.7,4.2-1.7c-0.3-1.4-2.9-1.9-4.8-1.4c-0.1,0-1.1,0.2-1.2,1.3
								C406.5,490.9,407.6,491.6,408.5,491.5z"/>
							<path class="st21" d="M407.5,484.8c-0.1,0.7,1.7,0.2,2.8,0.2c1.2,0,2.4,0.1,2.3-0.7C412.5,482.6,407.7,483.4,407.5,484.8z"/>
							<path class="st22" d="M408,491.4c-0.8-0.1-1.4-0.9-1.2-1.8c0.1-0.8,0.9-1.4,1.8-1.2c0.8,0.1,1.4,0.9,1.2,1.8
								C409.6,491,408.8,491.5,408,491.4z"/>
							<path class="st11" d="M407.9,489.9c-0.4-0.1-0.7-0.5-0.6-0.9c0.1-0.4,0.5-0.7,0.9-0.6c0.4,0.1,0.7,0.5,0.6,0.9
								C408.7,489.7,408.3,490,407.9,489.9z"/>
							<path class="st13" d="M412.9,490.2c-0.4-1.9-5.6-2.9-6.5-0.5c0.5-2.6,4.7-2.9,6.8-1.6C414.2,488.8,414.5,490,412.9,490.2z"/>
						</g>
					</g>
				</g>
				<g>
					<g>
						<path class="st23" d="M400,458.6c-10.9-3.8-20.9,4.1-26.7,18c-1.6,4-3.4,9.3,0,13.8c2.7,3.5,5.5,6.9,5.8,9.6
							c2.2,1.2,3.1,0.6,4.1-0.6c-2.3-8.9,2.3-23,8-25c-2.4,2-5.3,6.9-4.6,10.5c2.8-1.5,5.3-2.1,7.9-2.3c-0.9-3.2,0.2-5.4,1.9-7.5
							c-0.9,5.2-0.6,6.4,0.3,7.4c-0.2-2.2,1.4-6.4,3.3-7.6c1.9,1.2,3.5,5.5,3.3,7.6c0.9-1,1.2-2.2,0.3-7.4c1.7,2.1,2.7,4.3,1.9,7.5
							c2.6,0.2,5.1,0.8,7.9,2.3c0.7-3.6-2.2-8.5-4.6-10.5c5.7,1.9,10.3,16,8,25c1.1,1.2,1.9,1.8,4.1,0.6c0.2-2.7,3.1-6.2,5.8-9.6
							c3.4-4.4,1.7-9.8,0-13.8C420.9,462.8,410.9,454.8,400,458.6z"/>
						<path class="st24" d="M415,465.9c-4.2-1.2-5.9-1.2-7-0.6c3.1,0.6,7.1,3.2,8.2,6.8c-2.8-2.3-5.5-4-9.4-4.3
							c1.9,0.6,4.3,2.4,5.3,4.5c-2.2-2.2-6.3-4.5-10.6-4.5c0.7-1.7,2.7-1.9,3.5-2.2c-1.2-0.5-2.8-0.9-3.8-0.6
							C402.6,459.9,411,462,415,465.9z"/>
						<path class="st24" d="M385,465.9c4.2-1.2,5.9-1.2,7-0.6c-3.1,0.6-7.1,3.2-8.2,6.8c2.8-2.3,5.5-4,9.4-4.3
							c-1.9,0.6-4.3,2.4-5.3,4.5c2.2-2.2,6.3-4.5,10.6-4.5c-0.7-1.7-2.7-1.9-3.5-2.2c1.2-0.5,2.8-0.9,3.8-0.6
							C397.4,459.9,389,462,385,465.9z"/>
					</g>
					<g>
						<path class="st23" d="M421.5,530.1c-0.2-1.3-1-1.4-1.8-3.9c-0.3,0.9,0.7,2.8,0.9,3.3c-2.1-0.6-4.3-1.7-4.4-5.8
							c-0.2,1.1-0.2,1.3,0.3,3.2c-3.4-3.4-0.9-7.6,2.7-8c1.7-0.2,3.5,0.1,4.6,1.2c2.3,2.5,0.3,5.1,0.4,7.1c-1.4-0.9-0.9-2-1.4-2.9
							C423.4,526.3,422.2,529.4,421.5,530.1z"/>
						<path class="st24" d="M418.7,519.5c2.9,0,2.6,2.3,2.4,3.1c-0.3,0.9,0.1,4.4,0.5,5.3c-2.3-1.7-2.2-4.9-2.3-5.8
							c-0.4,0.6-1.4,2.4-0.8,4.4C415.7,522.9,416.4,520,418.7,519.5z"/>
						<path class="st25" d="M419.8,520.8c-1.6,0.2-2.9-0.4-3.1-1.4c-0.1-1,1.1-1.9,2.6-2.1c1.6-0.2,2.9,0.4,3.1,1.4
							C422.6,519.6,421.4,520.6,419.8,520.8z"/>
						<path class="st23" d="M420,499.3c-0.9-0.3-1.9-0.4-2.9-0.4c-1,1.6-2.4,3.3-4,5c-0.3,0.3-0.6,0.6-0.8,0.8
							c0.2,2.6,2.1,5,3.2,5.6c-2,2.5-2.3,9.5,4.3,8.7c5.6-0.7,4.3-7.1,2.1-9.5C423.9,507.5,424.4,500.6,420,499.3z"/>
						<path class="st26" d="M420.8,510.5c-1.1,0.4-1.4,2-1.5,3.4c0.5-0.7,0.8-1.3,2.6-1.4c-2.5,1.8-2.7,4.5-2.7,5
							c-0.6-5.2-2.9-6.3-2.8-6.3c0.6,0.2,1.5,0.7,2.2,2C418.4,511.8,419.8,510.6,420.8,510.5z"/>
						<path class="st26" d="M418.3,509.3c2.3-1,4.6-4.1,3-7.2c0.1,2.6-0.3,3.6-1.7,5.3c1-2.3,1.3-5.6,0.3-6.8
							c0.2,1.2-0.2,2.3-0.6,2.9c-0.4-2-1.3-2.8-2.5-2.8C418.6,500.5,419.7,507.6,418.3,509.3z"/>
						<path class="st24" d="M417.2,509.5c-2.4,0.1-3.1-1.6-3.3-3.4c-0.2-1.4,0.6-2.9,1.9-4.1c0.6,2.2-0.9,3.1,0.6,4.7
							c0.2-1.1,1-2.3,1.5-2.6C418.9,508.1,416.7,508.9,417.2,509.5z"/>
						<path class="st24" d="M417.7,518.4c-3.3-0.6-3.5-5.1-2.3-6.9C417,511.8,419.1,516.7,417.7,518.4z"/>
						<path class="st24" d="M420,518.6c2.8,0,4.6-3.6,2.6-6.1C421.1,513.2,418.3,517.3,420,518.6z"/>
					</g>
					<g>
						<path class="st23" d="M378.5,530.1c0.2-1.3,1-1.4,1.8-3.9c0.3,0.9-0.7,2.8-0.9,3.3c2.1-0.6,4.3-1.7,4.4-5.8
							c0.2,1.1,0.2,1.3-0.3,3.2c3.4-3.4,0.9-7.6-2.7-8c-1.7-0.2-3.5,0.1-4.6,1.2c-2.3,2.5-0.3,5.1-0.4,7.1c1.4-0.9,0.9-2,1.4-2.9
							C376.6,526.3,377.8,529.4,378.5,530.1z"/>
						<path class="st24" d="M381.2,519.5c-2.9,0-2.6,2.3-2.4,3.1c0.3,0.9-0.1,4.4-0.5,5.3c2.3-1.7,2.2-4.9,2.3-5.8
							c0.4,0.6,1.4,2.4,0.8,4.4C384.3,522.9,383.6,520,381.2,519.5z"/>
						<path class="st25" d="M380.2,520.8c1.6,0.2,2.9-0.4,3.1-1.4c0.1-1-1.1-1.9-2.6-2.1c-1.6-0.2-2.9,0.4-3.1,1.4
							C377.4,519.6,378.6,520.6,380.2,520.8z"/>
						<path class="st23" d="M379.9,499.3c0.9-0.3,1.9-0.4,2.9-0.4c1,1.6,2.4,3.3,4,5c0.3,0.3,0.6,0.6,0.8,0.8
							c-0.2,2.6-2.1,5-3.2,5.6c2,2.5,2.3,9.5-4.3,8.7c-5.6-0.7-4.3-7.1-2.1-9.5C376.1,507.5,375.6,500.6,379.9,499.3z"/>
						<path class="st26" d="M379.2,510.5c1.1,0.4,1.4,2,1.5,3.4c-0.5-0.7-0.8-1.3-2.6-1.4c2.5,1.8,2.7,4.5,2.7,5
							c0.6-5.2,2.9-6.3,2.8-6.3c-0.6,0.2-1.5,0.7-2.2,2C381.6,511.8,380.2,510.6,379.2,510.5z"/>
						<path class="st26" d="M381.7,509.3c-2.3-1-4.6-4.1-3-7.2c-0.1,2.6,0.3,3.6,1.7,5.3c-1-2.3-1.3-5.6-0.3-6.8
							c-0.2,1.2,0.2,2.3,0.6,2.9c0.4-2,1.3-2.8,2.5-2.8C381.3,500.5,380.3,507.6,381.7,509.3z"/>
						<path class="st24" d="M382.7,509.5c2.4,0.1,3.1-1.6,3.3-3.4c0.2-1.4-0.6-2.9-1.9-4.1c-0.6,2.2,0.9,3.1-0.6,4.7
							c-0.2-1.1-1-2.3-1.5-2.6C381.1,508.1,383.2,508.9,382.7,509.5z"/>
						<path class="st24" d="M382.2,518.4c3.3-0.6,3.5-5.1,2.3-6.9C382.9,511.8,380.9,516.7,382.2,518.4z"/>
						<path class="st24" d="M380,518.6c-2.8,0-4.6-3.6-2.6-6.1C378.9,513.2,381.7,517.3,380,518.6z"/>
					</g>
				</g>
			</g>
		</g>
		<g>
			<g>
				<g>
					<path class="st27" d="M151.8,508.9c-8.9,1.8-13.3,7.2-23.2,10.4c-3.7,1.2-6.9,6-7.6,11l-0.7,5.3l-1.8,12.6h33.3h33.3l-1.8-12.6
						l-0.7-5.3c-0.7-5.1-3.9-9.8-7.6-11C165.1,516.1,160.7,510.6,151.8,508.9z"/>
					<path class="st28" d="M160.1,511.9c-0.8-2.4-1.1-4.8-1-10.9h-7.3h0h-7.3c0.1,6.1-0.1,8.5-1,10.9c0.2,3.9,4.7,5.4,8.3,5.4
						C155.4,517.3,159.9,515.8,160.1,511.9z"/>
					<path class="st7" d="M142,512.7c0.9,4,5,6,9.8,6c4.8,0,8.9-2,9.8-6c-0.5-0.3-1-0.6-1.6-0.8c-0.4,3.7-4.8,5.4-8.3,5.4
						c-3.5,0-7.9-1.6-8.3-5.4C143,512.2,142.5,512.5,142,512.7z"/>
				</g>
				<g>
					<polygon class="st4" points="130.5,548.3 129.4,535.5 120.3,535.6 118.5,548.3 					"/>
					<path class="st7" d="M128.6,519.3c-3.7,1.2-6.9,6-7.6,11c-0.2,1.8-0.5,3.5-0.7,5.3c2.6,0,5.8,0.7,9.3,2.8
						C129.2,533.3,128.6,524.1,128.6,519.3z"/>
				</g>
				<g>
					<polygon class="st4" points="173.2,548.3 174.3,535.5 183.4,535.6 185.2,548.3 					"/>
					<path class="st7" d="M175,519.3c3.7,1.2,6.9,6,7.6,11c0.2,1.8,0.5,3.5,0.7,5.3c-2.6,0-5.8,0.7-9.3,2.8
						C174.5,533.3,175.1,524.1,175,519.3z"/>
				</g>
			</g>
			<g>
				<g>
					<g>
						<path class="st4" d="M151.8,466.9c-14.2-0.1-18,8.7-18,20.6c-1.9-0.3-3.4,0.4-3.7,2.2c-0.5,2.4,1,6.1,4.9,6
							c1.4,4.9,4.9,8.9,10.2,12.1c2.2,1.3,3.9,2.8,6.6,2.8c2.7,0,4.4-1.5,6.6-2.8c5.3-3.2,8.8-7.2,10.2-12.1c3.9,0.2,5.4-3.5,4.9-6
							c-0.4-1.9-1.8-2.5-3.7-2.2C169.8,475.5,166,466.8,151.8,466.9z"/>
						<path class="st8" d="M133.9,492c0.4-0.4,0.5-1,0.3-1.5c-0.4-1-1.8-0.9-2.3,0c-0.4,0.6-0.2,2,0.9,3.1c0.6,0.6,2,1,1.8,0.4
							C134.4,493.5,133.5,492.4,133.9,492z"/>
						<path class="st8" d="M169.8,492c-0.4-0.4-0.5-1-0.3-1.5c0.4-1,1.8-0.9,2.3,0c0.4,0.6,0.2,2-0.9,3.1c-0.6,0.6-2,1-1.8,0.4
							C169.2,493.5,170.2,492.4,169.8,492z"/>
					</g>
					<g>
						<g>
							<path class="st10" d="M151.8,492.6c-1.2,0-2.5,0.5-2.9,1.7c0.1-1.7,1.5-2.3,2.9-2.3c1.4,0,2.7,0.6,2.9,2.3
								C154.3,493.1,153,492.6,151.8,492.6z"/>
							<path class="st28" d="M151.8,494.1c-1,0-2.3,0.7-2.4,0.4c-0.3-0.5,0.7-1.7,2.4-1.7c1.7,0,2.8,1.1,2.4,1.7
								C154.1,494.7,152.8,494.1,151.8,494.1z"/>
							<path class="st29" d="M141,494.5c2.5,0.6,5.3,1.4,5.8,0.6c0.5-0.8-1.2-3.4-4-3.9c-2.8-0.5-4.2,0.7-4.6,1.5
								C137.6,493.4,138.5,493.8,141,494.5z"/>
							<path class="st29" d="M162.9,495.3c-2.5,0.6-5.3,1.4-5.8,0.6c-0.5-0.8,1.2-3.4,4-3.9c2.8-0.5,4.2,0.7,4.6,1.5
								C166.2,494.3,165.4,494.7,162.9,495.3z"/>
						</g>
						<g>
							<path class="st29" d="M151.2,501.5c-1.1-0.1-2.5-0.7-2.7-0.4c-0.3,0.4,0.7,1.2,2.7,1.3c1.9,0.1,3.2-0.6,2.8-1.1
								C153.8,501.2,152.3,501.5,151.2,501.5z"/>
							<path class="st10" d="M151.2,502.5c0.7,0,2.5,0,3.2-1c-0.4,1.1-2.3,1.3-3.2,1.2c-0.9,0-2.7-0.5-3-1.6
								C148.7,502.3,150.5,502.5,151.2,502.5z"/>
							<path class="st21" d="M151.8,501.3c-2.2,0-4.8-1.5-6.9-3.5c2.2,1.6,4.6,2.4,6.9,2.4c2.4,0,3.6-0.4,4.9-0.8
								C155.2,500.2,153.8,501.3,151.8,501.3z"/>
						</g>
						<g>
							<path class="st30" d="M144.3,484.2c0.4,0.6-1.4,0.9-2.4,1.4c-1.1,0.5-2.1,1.1-2.4,0.4C138.7,484.4,143.5,483,144.3,484.2z"/>
							<path class="st31" d="M141,490.4c-0.4-2.5,3.9-3,5.3-1.2c-0.8-1.7-4.3-2.5-5.7-0.8C139.9,489.2,140.2,490.1,141,490.4z"/>
							<path class="st11" d="M141,490.4c1.6,0.1,2.6,1.2,4.3,0.5c0.7-0.3,0.9-1.2,0.7-1.6c-0.2-0.6-0.7-0.9-1.4-1.1
								C142.8,487.9,140.7,488.6,141,490.4z"/>
							<path class="st32" d="M144.6,491.1c0.8,0,1.4-0.6,1.4-1.4c0-0.8-0.6-1.4-1.4-1.4c-0.8,0-1.4,0.6-1.4,1.4
								C143.2,490.5,143.8,491.1,144.6,491.1z"/>
							<path class="st11" d="M144.9,489.8c0.4,0,0.7-0.3,0.7-0.7c0-0.4-0.3-0.7-0.7-0.7c-0.4,0-0.7,0.3-0.7,0.7
								C144.2,489.5,144.5,489.8,144.9,489.8z"/>
						</g>
						<g>
							<path class="st30" d="M159.4,484.2c-0.4,0.6,1.4,0.9,2.4,1.4c1.1,0.5,2.1,1.1,2.4,0.4C164.9,484.4,160.1,483,159.4,484.2z"/>
							<path class="st31" d="M162.7,490.4c0.4-2.5-3.9-3-5.3-1.2c0.8-1.7,4.3-2.5,5.7-0.8C163.7,489.2,163.5,490.1,162.7,490.4z"/>
							<path class="st11" d="M162.7,490.4c-1.6,0.1-2.6,1.2-4.3,0.5c-0.7-0.3-0.9-1.2-0.7-1.6c0.2-0.6,0.7-0.9,1.4-1.1
								C160.8,487.9,162.9,488.6,162.7,490.4z"/>
							<path class="st32" d="M159.1,491.1c-0.8,0-1.4-0.6-1.4-1.4c0-0.8,0.6-1.4,1.4-1.4c0.8,0,1.4,0.6,1.4,1.4
								C160.5,490.5,159.8,491.1,159.1,491.1z"/>
							<path class="st11" d="M158.8,489.8c-0.4,0-0.7-0.3-0.7-0.7c0-0.4,0.3-0.7,0.7-0.7c0.4,0,0.7,0.3,0.7,0.7
								C159.5,489.5,159.2,489.8,158.8,489.8z"/>
						</g>
					</g>
				</g>
				<g>
					<path class="st33" d="M135.2,492c-1.2-2.3-2-6.9-0.4-11.4c-0.1,1.1,1.1,2.3,2,3c-1.2-4,1-5.1,2.6-11.1
						c3.4,1.9,7.8,3.6,11.5,4.4c7.1,1.5,13.7,0.5,15.4-1.2c2.9,4.4,4,8.8,2.4,16.4c7-7.7,6.4-11.4,5.8-18.2
						c-0.7,1.6-1.2,2.6-1.9,2.9c1.8-2.6,2.1-7.2,0.9-12.6c-0.2,1.8-1.1,2.9-2,3.3c1.6-3.2,2.1-6.4-0.6-12c-0.2,0.8-1.6,3-4.2,3.7
						c1.3-0.8,2-1.8,2.5-2.9c-4.6,2.6-8.2,3-10.2,3c1.3-0.5,3.1-1.2,3.9-2.4c-3.2,2.1-7.5,2.3-12.2,2.5c1.5-0.8,2.2-1.8,2.3-3.3
						c-0.4,2.1-4.6,3.7-6.8,3.5c0.7-0.1,2.1-1.2,1.9-2.8c-0.8,2.4-7.1,4-10.2,5.4c-1.4,0.6-4,2.3-4.5,3.8c0.2-1,0.9-2.1,1.7-2.9
						c-2.7,1.9-5.1,4.7-4.4,9.1c-0.7-0.5-0.9-0.9-1.1-1.9C126.1,480.7,126.7,484.9,135.2,492z"/>
					<path class="st34" d="M162.6,464.4c-4.5,1.7-12.1-0.1-14.9-1.2c4.2,2.1,7.6,3.2,13.1,3.3c-1.8,0.8-4.9,1.7-10.9-0.2
						c0.4,0.3,0.9,0.6,1.5,0.8c3.1,1.3,8,1.4,11.6,0.7c-2.1,1.4-5.1,2.3-8.4,2.7c-4.1,0.4-8.4-0.1-11.5-2c3,2.3,7.7,3.1,11.8,3.1
						c8.5,0,15.8-5.3,15.5-12.1C167.9,462.5,165,463.5,162.6,464.4z"/>
				</g>
			</g>
		</g>
	</g>
	<g>
		<path class="st35" d="M207.5,214.7l537.3,0c-28.4-21.6-53.2-45.4-103.9-113.8l-537.3,0C144.7,172.4,176.1,194.5,207.5,214.7z"/>
		<g>
			<polygon class="st36" points="699.9,529.4 634.1,583 612.3,583 576.2,612.2 576.2,630 512.3,682.6 512.3,351.2 606.1,100.9 
				699.9,199 			"/>
			<path class="st37" d="M584.8,302.7l42.6-34.6v-52.2c0-23.8-42.6,10.8-42.6,34.6V302.7z"/>
			<polygon class="st38" points="512.3,682.6 576.2,630 576.2,581.6 512.3,634.2 			"/>
			<polygon class="st38" points="634.1,583 699.9,529.4 699.9,481 634.1,534.6 			"/>
			<path class="st39" d="M612.3,402.8V583h21.8V402.8c0-34-7.3-97-28.9-79.5c-1.7,1.4-3.3,3.1-4.9,5
				C609,344.2,612.3,380,612.3,402.8z"/>
			<rect x="612.3" y="534.6" class="st40" width="21.8" height="48.4"/>
			<path class="st41" d="M612.3,583V402.8c0-22.8-3.3-58.6-12-74.5c-17.9,22.5-24.1,79.6-24.1,121.4v162.5L612.3,583z"/>
		</g>
		<g>
			<path class="st39" d="M379.5,351.3L275.9,208.9l0,0L172.5,351.3h-133l0,331.3h472.8V351.2L379.5,351.3z M204.1,548.3H99.5V443.7
				h104.6V548.3z M328.2,548.3H223.6V443.7h104.6V548.3z M452.3,548.3H347.7V443.7h104.6V548.3z"/>
			<rect x="39.5" y="634.2" class="st40" width="472.8" height="48.4"/>
			<path class="st1" d="M249.8,343.3H302v-52.2c0-23.8-52.2-23.8-52.2,0V343.3z"/>
			<path class="st1" d="M99.5,436.5h104.6v-4.9c0-34.9-104.6-34.9-104.6,0V436.5z"/>
			<path class="st1" d="M223.6,436.5h104.6v-4.9c0-34.9-104.6-34.9-104.6,0V436.5z"/>
			<path class="st1" d="M347.7,436.5h104.6v-4.9c0-34.9-104.6-34.9-104.6,0V436.5z"/>
		</g>
		<g>
			<path class="st42" d="M7.2,377.2l159.3,0c30.9-29.6,82.8-112.2,109.4-168.3c28.9,65.6,67.4,119.2,109.4,168.3l159.2,0
				c46.9-97.4,79-169.1,96.5-276.3l-537.3,0C87.2,206.5,56.3,278.1,7.2,377.2z"/>
			<path class="st41" d="M336.6,159.6l-60.7,49.3c33.6,73.8,70.5,126.9,109.4,168.3L336.6,159.6z"/>
		</g>
		<g>
			<rect x="424.7" y="29.6" class="st39" width="47.4" height="145.4"/>
			<path class="st43" d="M472,175c6.9-22.9,13.3-30.4,27.8-74.2V7.1L472,29.6V175z"/>
			<polygon class="st44" points="417.8,31.7 473.8,31.7 506.7,5 450.7,5 			"/>
			<polygon class="st45" points="437,25.9 468.8,25.9 487.5,10.8 455.7,10.8 			"/>
			<rect x="417.8" y="31.7" class="st46" width="56" height="15.9"/>
			<polygon class="st36" points="506.7,20.9 473.8,47.6 473.8,31.7 506.7,5 			"/>
		</g>
		<g>
			<rect x="168.1" y="29.6" class="st39" width="47.4" height="145.4"/>
			<path class="st43" d="M215.5,175c6.9-22.9,13.3-30.4,27.8-74.2V7.1l-27.8,22.5V175z"/>
			<polygon class="st44" points="161.2,31.7 217.3,31.7 250.1,5 194.1,5 			"/>
			<polygon class="st45" points="180.4,25.9 212.2,25.9 230.9,10.8 199.1,10.8 			"/>
			<rect x="161.2" y="31.7" class="st46" width="56" height="15.9"/>
			<polygon class="st36" points="250.1,20.9 217.3,47.6 217.2,31.7 250.1,5 			"/>
		</g>
	</g>
</g>
<g>
	<path class="st47" d="M218.6,681.1"/>
	<path class="st47" d="M307.3,681.1"/>
	<g>
		<g>
			<path class="st48" d="M174.3,689.5c-0.7,0-1.4,0.4-1.4,1.1l0,3.4c0,1,0.4,1.8,0.9,2.5c0.4,0.6,1,0.8,1.5,0.8l14.1,0.5
				c0.7,0,1.4,0,1.4-1l0.3-4.4l-1.1-1.7c-0.4-0.6-0.5-0.8-1.2-0.9L174.3,689.5z"/>
			<path class="st49" d="M188.4,696.2l23.4-14c1.4-0.9,1.9-2.7,1.1-4.2c-0.8-1.4-2.8-2-4.2-1.1l-21.1,14.9c-0.5,0.4-1.7,1.1-1.4,2.9
				C186.4,695.9,187.6,696.7,188.4,696.2z"/>
			<path class="st47" d="M208.4,687.9"/>
		</g>
		<g>
			<path class="st48" d="M263,689.5c-0.7,0-1.4,0.4-1.4,1.1l0,3.4c0,1,0.4,1.8,0.9,2.5c0.4,0.6,1,0.8,1.5,0.8l14.1,0.5
				c0.7,0,1.4,0,1.4-1l0.3-4.4l-1.1-1.7c-0.4-0.6-0.5-0.8-1.2-0.9L263,689.5z"/>
			<path class="st49" d="M277.1,696.2l23.4-14c1.4-0.9,1.9-2.7,1.1-4.2c-0.8-1.4-2.8-2-4.2-1.1l-21.1,14.9c-0.5,0.4-1.7,1.1-1.4,2.9
				C275.2,695.9,276.3,696.7,277.1,696.2z"/>
			<path class="st47" d="M297.1,687.9"/>
		</g>
		<g>
			<path class="st48" d="M351.8,689.5c-0.7,0-1.4,0.4-1.4,1.1l0,3.4c0,1,0.4,1.8,0.9,2.5c0.4,0.6,1,0.8,1.5,0.8l14.1,0.5
				c0.7,0,1.4,0,1.4-1l0.3-4.4l-1.1-1.7c-0.4-0.6-0.5-0.8-1.2-0.9L351.8,689.5z"/>
			<path class="st49" d="M365.8,696.2l23.4-14c1.4-0.9,1.9-2.7,1.1-4.2c-0.8-1.4-2.8-2-4.2-1.1L365,691.8c-0.5,0.4-1.7,1.1-1.4,2.9
				C363.9,695.9,365,696.7,365.8,696.2z"/>
			<path class="st47" d="M396.1,681.1"/>
			<path class="st47" d="M385.9,687.9"/>
		</g>
	</g>
	<g>
		<path class="st50" d="M46.7,652.8c2.7-10.9,9.8-34.2,33.8-47.6c29.9-17.2,63.9-11.7,86.1,10.5c21.7,21.8,21.3,44.7,19.9,57.3
			l-4.5-0.8c0.8-13.6,1.3-34.5-19.1-54.7c-21.1-21-54.3-23.9-79.9-9.7c-22.4,12.5-30.1,32.8-32.7,42.8L46.7,652.8z"/>
		<path class="st51" d="M116,601.9l-0.3,0c-35.4,0.7-64.1,29.8-63.9,64.9c0.2,35,28.9,62.8,64.2,62.2l0.3,0
			c35.4-0.7,64.1-29.8,63.9-64.9C180,629.1,151.3,601.3,116,601.9z M116.2,717.8l-0.2,0c-29.1,0.5-52.8-22.4-52.9-51.3
			c-0.1-28.9,23.5-52.9,52.7-53.5l0.2,0c29.1-0.5,52.8,22.4,52.9,51.3C169.1,693.3,145.5,717.2,116.2,717.8z"/>
		<polygon class="st52" points="65,647.8 113.9,664.1 113.8,664.4 65,648.1 		"/>
		<polygon class="st52" points="76.3,629.6 113.5,665.3 113.3,665.5 76.1,629.8 		"/>
		<polygon class="st52" points="93.2,617.4 115.8,662.7 115.5,662.8 92.9,617.6 		"/>
		<polygon class="st52" points="113.8,612.4 114.5,663.3 114.2,663.3 113.5,612.4 		"/>
		<polygon class="st52" points="134.3,615.5 117.8,664.1 117.5,664.1 134,615.4 		"/>
		<polygon class="st52" points="152.1,626.4 116.8,663.2 116.6,663 152,626.2 		"/>
		<polygon class="st52" points="117.9,718.2 117.7,667.8 118,667.8 118.1,718.2 		"/>
		<polygon class="st52" points="138.1,712.9 115.3,668.7 115.5,668.5 138.4,712.8 		"/>
		<polygon class="st52" points="154.8,701.1 118.2,664.7 118.4,664.5 155,700.9 		"/>
		<polygon class="st52" points="166.1,682.9 118.3,666.7 118.4,666.4 166.2,682.7 		"/>
		<polygon class="st52" points="169.6,662.6 117.8,664.1 117.8,663.8 169.6,662.3 		"/>
		<polygon class="st52" points="164.9,642.4 118.4,666.8 118.2,666.5 164.7,642.1 		"/>
		<polygon class="st52" points="61.8,668.1 114.3,667.9 114.3,668.2 61.7,668.4 		"/>
		<polygon class="st52" points="66.8,688.7 113,666 113.1,666.2 66.9,688.9 		"/>
		<polygon class="st52" points="79.1,705 117.5,667.8 117.7,668 79.3,705.2 		"/>
		<polygon class="st52" points="97.4,715.6 113.6,667.9 113.9,667.9 97.7,715.7 		"/>
		<path class="st23" d="M128.5,706.1c1.2-0.3,1.9-0.6,1.4-1.6l-0.7-1.2c-0.3-0.5-0.6-0.6-1.3-0.6c-3.4-0.1-7,0.2-10.4,0.7
			c-3.1,0.4-6.8,1.3-10.1,2.2c-0.7,0.2-1,0.4-1.1,1L106,708c-0.2,0.9,0,1.2,1.1,1.2c3.3,0,7.6-0.1,11-0.6
			C121.6,708.2,125.2,707,128.5,706.1z"/>
		<path class="st23" d="M129.5,707.1c1.2-0.3,2-0.6,1.4-1.6l-0.7-1.2c-0.3-0.5-0.6-0.6-1.3-0.6c-3.5-0.1-7.2,0.2-10.6,0.7
			c-3.2,0.4-6.9,1.3-10.3,2.3c-0.7,0.2-1.1,0.4-1.2,1l-0.3,1.4c-0.2,0.9,0,1.3,1.2,1.3c3.4,0,7.8-0.1,11.3-0.6
			C122.4,709.2,126.2,707.9,129.5,707.1z"/>
	</g>
	<g>
		<path class="st50" d="M427.2,679.6c-3.8-19.7,1-39.7,13-54.9c14.2-18,37.6-27.6,60.4-26.1l-2.7,3.6c-20.9-1.3-42,8.5-55,24.8
			c-10.9,13.7-15.6,31.3-12.6,49.4L427.2,679.6z"/>
		<polygon class="st52" points="443.3,648.3 492.2,664.6 492.1,664.9 443.2,648.6 		"/>
		<polygon class="st52" points="454.6,630.1 491.8,665.8 491.6,666 454.4,630.3 		"/>
		<polygon class="st52" points="471.5,617.9 494,663.2 493.8,663.3 471.2,618.1 		"/>
		<polygon class="st52" points="492.1,612.9 492.8,663.8 492.5,663.8 491.8,612.9 		"/>
		<polygon class="st52" points="512.5,616 496,664.6 495.7,664.6 512.2,615.9 		"/>
		<polygon class="st52" points="530.4,626.9 495.1,663.7 494.9,663.5 530.2,626.7 		"/>
		<polygon class="st52" points="496.1,718.7 496,668.3 496.2,668.3 496.4,718.7 		"/>
		<polygon class="st52" points="516.4,713.4 493.5,669.2 493.8,669 516.6,713.3 		"/>
		<polygon class="st52" points="532.7,701.3 496.5,665.2 496.7,665 532.9,701.1 		"/>
		<polygon class="st52" points="543.8,683.2 496.6,667.2 496.6,666.9 543.8,682.9 		"/>
		<polygon class="st52" points="547,663.1 496,664.6 496,664.3 547,662.8 		"/>
		<polygon class="st52" points="542.3,643.3 496.6,667.3 496.5,667 542.2,643.1 		"/>
		<polygon class="st52" points="439.6,668.5 491.7,667.6 491.7,667.9 439.6,668.8 		"/>
		<polygon class="st52" points="445,689.2 491.2,666.5 491.4,666.7 445.2,689.4 		"/>
		<polygon class="st52" points="457.3,705.5 495.8,668.3 496,668.5 457.5,705.7 		"/>
		<polygon class="st52" points="475.6,716.1 491.9,668.4 492.2,668.4 475.9,716.2 		"/>
		<path class="st23" d="M506.7,706.6c1.2-0.3,1.9-0.6,1.4-1.6l-0.7-1.2c-0.3-0.5-0.6-0.6-1.3-0.6c-3.4-0.1-7,0.2-10.4,0.7
			c-3.1,0.4-6.8,1.3-10.1,2.2c-0.7,0.2-1,0.4-1.1,1l-0.3,1.4c-0.2,0.9,0,1.2,1.1,1.2c3.3,0,7.6-0.1,11-0.6
			C499.8,708.7,503.5,707.5,506.7,706.6z"/>
		<path class="st51" d="M494.3,603.8l-0.3,0c-34.9,0.7-63.1,29.3-63,63.9c0.2,34.5,28.5,61.9,63.2,61.3l0.3,0
			c34.9-0.7,63.1-29.3,63-63.9C557.4,630.6,529.1,603.2,494.3,603.8z M494.5,718l-0.2,0c-28.7,0.5-52-22.1-52.1-50.5
			c-0.1-28.5,23.1-52.1,51.9-52.7l0.2,0c28.7-0.5,52,22.1,52.1,50.5C546.5,693.8,523.3,717.4,494.5,718z"/>
		<path class="st47" d="M447.8,681.1"/>
		<path class="st53" d="M494.1,669.2c1.7,0,3.1-1.4,3.1-3.1c0-1.7-1.4-3-3.1-3c-1.7,0-3.1,1.4-3.1,3.1
			C491,667.9,492.4,669.3,494.1,669.2z"/>
		<path class="st11" d="M494.1,668.2c1.2,0,2.1-1,2.1-2.1c0-1.1-0.9-2.1-2.1-2c-1.2,0-2.1,1-2.1,2.1
			C492,667.4,492.9,668.3,494.1,668.2z"/>
	</g>
	<g>
		<g>
			<path class="st53" d="M454.5,584c1.5-2,6.1,4.2,3.7,6.7l-67.9,91.8l-5.3-5.1L454.5,584z"/>
			<path class="st53" d="M449.6,567.8l5.8-1.8c6.1,20.1,12.2,40.2,18.3,60.3c0.4,1.5,0.9,2.9,1.3,4.4l1.9,6.1
				c0.7,2.2,1.8,4.3,3.2,6.1l13.6,20.2l-2.1,1.3l-15.3-21.3c-1.3-1.7-2.5-3.5-3.4-5.5l-2.5-5.3c-0.8-1.6-1.4-3.3-2-5.1
				C461.8,607.5,455.6,587.8,449.6,567.8z"/>
			<path class="st54" d="M464.4,552.4c0.9,0,1.3-1.5,1.2-2.4c-0.2-1.5-0.2-2.8-2.1-4.8c-1.5-1.6-5.1-1.7-7.3-1.6
				c-1.7,0.1-2.1,3.3,0.4,3.3c2.1,0,5.4-1.8,6.3,4C463,551.6,463.7,552.3,464.4,552.4z"/>
			<path class="st51" d="M438.1,548.6c-1.5,0-1.5-5.1,0-5.2l18.1-0.5c1.5,0,1.5,5.1,0,5.2L438.1,548.6z"/>
			<path class="st55" d="M449.7,567.8l5.5-1.7c0.5-0.2,0.8-0.7,0.6-1.2c-0.2-0.5-0.7-0.8-1.2-0.6l-5.5,1.7c-0.5,0.2-0.8,0.7-0.6,1.2
				C448.7,567.7,449.2,567.9,449.7,567.8z"/>
			<path class="st55" d="M464.6,554.2c-0.1,0.1-0.3,0.1-0.5,0.1l-9.9,0.7c-1.3,0.1-2.8,1.6-2.5,2.7l2.1,6.8l-4.2,1.3l-3.2-10.5
				c-0.2-0.6-0.2-1.5,0.3-1.8l2.8-2.1l14.1-0.8c1.9-1.2,2.5-2,4-3.1c0.2-0.2,0.5-0.6,0.5-0.9c-1.7-0.9-4.3-0.9-6.3-0.9
				c-2.7,0-2.3-3.6-0.4-3.7c2.5-0.1,5.5-0.3,7.7,0.7c1.3,0.6,2.6,1.7,2.9,3.4c0.1,0.6,0,1.4-0.3,2c-0.1,0.2-0.2,0.3-0.3,0.5L465,554
				C464.9,554.1,464.8,554.1,464.6,554.2z"/>
			<path class="st56" d="M441.5,546.9l0-5.8l19.3,0c1.7,0,1.7,5.8,0,5.8L441.5,546.9z"/>
			<path class="st57" d="M441.5,546.9c1.1,0,2.1-1.3,2.1-2.9c0-1.6-0.9-2.9-2.1-2.9c-1.1,0-2.1,1.3-2.1,2.9
				C439.5,545.5,440.4,546.8,441.5,546.9z"/>
		</g>
		<g>
			<polygon class="st55" points="161.5,562.3 165.5,561.1 169.9,575.7 165.9,577 			"/>
			<polygon class="st53" points="166.4,579.8 171.2,578.2 212.7,678.8 207.9,680.3 			"/>
			
				<rect x="93.5" y="624.8" transform="matrix(0.5849 -0.8111 0.8111 0.5849 -449.2457 376.7302)" class="st53" width="99.8" height="5"/>
			<path class="st55" d="M165.3,577.2l5.2-1.7c0.2-0.1,0.4,0,0.4,0.2l0.6,1.9c0.1,0.2,0,0.4-0.2,0.4l-5.2,1.7
				c-0.2,0.1-0.4,0-0.4-0.2l-0.6-1.9C165,577.5,165.1,577.3,165.3,577.2z"/>
			<path class="st51" d="M141.5,564.7c-1-0.3-1.2-0.9-1.2-2.4c0-1.8,0.4-4,0.6-4.8c0.9-4.3,7.5-5.2,12.1-4.7
				c3.7,0.4,7.7,2.7,10.7,3.1c5.4,0.8,9.9,0.4,14.8,1.2c4,0.7,6.2,1.4,7.6,4.1c0.4,0.8,1.2,3-0.5,4.1c-4.6,2.9-12-0.6-16.9,0.9
				c-7,2-7.5,2.3-14.8-1.6c-4.4-2.3-6.6-2.2-8.9-1C143.7,564.3,143.1,565.1,141.5,564.7z"/>
		</g>
		<g>
			<polygon class="st55" points="250.2,562.3 254.2,561.1 258.7,575.7 254.6,577 			"/>
			<polygon class="st53" points="255.1,579.8 259.9,578.2 301.4,678.8 296.7,680.3 			"/>
			<path class="st53" d="M258.2,584c2.4,0,4.4,5,1,5.5l-84.3,0c-1.9,0-3.2-5.3-1.3-5.5L258.2,584z"/>
			<path class="st55" d="M254.1,577.2l5.2-1.7c0.2-0.1,0.4,0,0.4,0.2l0.6,1.9c0.1,0.2,0,0.4-0.2,0.4l-5.2,1.7
				c-0.2,0.1-0.4,0-0.4-0.2l-0.6-1.9C253.8,577.5,253.9,577.3,254.1,577.2z"/>
			<path class="st51" d="M230.3,564.7c-1-0.3-1.2-0.9-1.2-2.4c0-1.8,0.4-4,0.6-4.8c0.9-4.3,7.5-5.2,12.1-4.7
				c3.7,0.4,7.7,2.7,10.7,3.1c5.4,0.8,9.9,0.4,14.8,1.2c4,0.7,6.2,1.4,7.6,4.1c0.4,0.8,1.2,3-0.5,4.1c-4.6,2.9-12-0.6-16.9,0.9
				c-7,2-7.5,2.3-14.8-1.6c-4.4-2.3-6.6-2.2-8.9-1C232.4,564.3,231.8,565.1,230.3,564.7z"/>
		</g>
		<g>
			<polygon class="st55" points="338.9,562.3 342.9,561.1 347.4,575.7 343.4,577 			"/>
			<polygon class="st53" points="343.8,579.8 348.6,578.2 390.1,678.8 385.4,680.3 			"/>
			<path class="st53" d="M346.9,584c2.4,0,4.4,5,1,5.5l-84.3,0c-1.9,0-3.2-5.3-1.3-5.5L346.9,584z"/>
			<path class="st53" d="M452.1,573.7c2.4-0.2,4.4,5.1,1,5.5l-100.8,10.3c-1.9,0.2-3.2-5.3-1.3-5.5L452.1,573.7z"/>
			<path class="st55" d="M342.8,577.2l5.2-1.7c0.2-0.1,0.4,0,0.4,0.2l0.6,1.9c0.1,0.2,0,0.4-0.2,0.4l-5.2,1.7
				c-0.2,0.1-0.4,0-0.4-0.2l-0.6-1.9C342.5,577.5,342.6,577.3,342.8,577.2z"/>
			<path class="st51" d="M319,564.7c-1-0.3-1.2-0.9-1.2-2.4c0-1.8,0.4-4,0.6-4.8c0.9-4.3,7.5-5.2,12.1-4.7c3.7,0.4,7.7,2.7,10.7,3.1
				c5.4,0.8,9.9,0.4,14.8,1.2c4,0.7,6.2,1.4,7.6,4.1c0.4,0.8,1.2,3-0.5,4.1c-4.6,2.9-12-0.6-16.9,0.9c-7,2-7.5,2.3-14.8-1.6
				c-4.4-2.3-6.6-2.2-8.9-1C321.1,564.3,320.6,565.1,319,564.7z"/>
		</g>
	</g>
	<g>
		<polygon class="st58" points="112.1,671.1 210,695.8 209.6,697.4 111.7,672.7 		"/>
		<polygon class="st58" points="210.1,695.8 387.4,695.8 387,697.4 209.6,697.4 		"/>
		<polygon class="st58" points="118.9,658.1 386.8,660.7 386.9,662.4 118.9,659.8 		"/>
	</g>
	<g>
		<path class="st59" d="M115.8,674.6c5-0.1,9-4.2,9-9.1c0-4.9-4.1-8.9-9.1-8.8c-5,0.1-9,4.2-9,9.1
			C106.8,670.8,110.8,674.7,115.8,674.6z"/>
		<path class="st11" d="M115.8,667.7c1.2,0,2.1-1,2.1-2.1c0-1.1-0.9-2.1-2.1-2c-1.2,0-2.1,1-2.1,2.1
			C113.7,666.9,114.6,667.8,115.8,667.7z"/>
	</g>
	<g>
		<g>
			<path class="st59" d="M206.4,661.1c-9.9,2-16.4,11.8-14.5,21.6c2,9.9,11.6,16.4,21.6,14.5c9.9-2,16.4-11.6,14.5-21.6
				C226,665.7,216.3,659.1,206.4,661.1z"/>
			<path class="st60" d="M233.2,664.3L209,676.9c-1.5,0.8-2.1,2.6-1.3,4.1c0.8,1.5,2.6,2.1,4.1,1.3l22-13.6L233.2,664.3z"/>
			<path class="st48" d="M231.6,662.5c-0.7,0-1.3,0.6-1.3,1.3l0.3,3.4c0.1,1,0.5,1.8,1.1,2.5c0.4,0.5,1.1,0.7,1.6,0.7l14-1
				c0.6-0.1,1.4-0.4,1.4-1.3l-0.2-4.3l-1.3-1.6c-0.4-0.5-0.6-0.8-1.3-0.7L231.6,662.5z"/>
			<path class="st11" d="M212.6,679.6c0-1.2-0.9-2.3-2.2-2.3c-1.2,0-2.3,0.9-2.3,2.2c0,1.2,0.9,2.3,2.2,2.3
				C211.5,681.8,212.5,680.9,212.6,679.6z"/>
		</g>
		<g>
			<path class="st59" d="M295.1,661.1c-9.9,2-16.4,11.8-14.5,21.6c2,9.9,11.6,16.4,21.6,14.5c10-2,16.4-11.6,14.5-21.6
				C314.7,665.7,305,659.1,295.1,661.1z"/>
			<path class="st60" d="M322,664.3l-24.2,12.6c-1.5,0.8-2.1,2.6-1.3,4.1c0.8,1.5,2.6,2.1,4.1,1.3l22-13.6L322,664.3z"/>
			<path class="st48" d="M320.3,662.5c-0.7,0-1.3,0.6-1.3,1.3l0.3,3.4c0.1,1,0.5,1.8,1.1,2.5c0.4,0.5,1.1,0.7,1.6,0.7l14-1
				c0.6-0.1,1.4-0.4,1.4-1.3l-0.2-4.3l-1.3-1.6c-0.4-0.5-0.6-0.8-1.3-0.7L320.3,662.5z"/>
			<path class="st11" d="M301.3,679.6c0-1.2-0.9-2.3-2.2-2.3c-1.2,0-2.3,0.9-2.3,2.2c0,1.2,0.9,2.3,2.2,2.3
				C300.2,681.8,301.2,680.9,301.3,679.6z"/>
		</g>
		<g>
			<path class="st59" d="M383.8,661.1c-9.9,2-16.4,11.8-14.5,21.6c2,9.9,11.6,16.4,21.6,14.5c9.9-2,16.4-11.6,14.5-21.6
				C403.5,665.7,393.8,659.1,383.8,661.1z"/>
			<path class="st60" d="M410.7,664.3l-24.2,12.6c-1.5,0.8-2.1,2.6-1.3,4.1c0.8,1.5,2.6,2.1,4.1,1.3l22-13.6L410.7,664.3z"/>
			<path class="st48" d="M409,662.5c-0.7,0-1.3,0.6-1.3,1.3l0.3,3.4c0.1,1,0.5,1.8,1.1,2.5c0.4,0.5,1.1,0.7,1.6,0.7l14-1
				c0.6-0.1,1.4-0.4,1.4-1.3l-0.2-4.3l-1.3-1.6c-0.4-0.5-0.6-0.8-1.3-0.7L409,662.5z"/>
			<path class="st11" d="M390,679.6c0-1.2-0.9-2.3-2.2-2.3c-1.2,0-2.3,0.9-2.3,2.2c0,1.2,0.9,2.3,2.2,2.3
				C388.9,681.8,389.9,680.9,390,679.6z"/>
		</g>
	</g>
</g>
</svg>
