<?xml version="1.0" encoding="utf-8"?>
<!-- Generator: Adobe Illustrator 23.0.6, SVG Export Plug-In . SVG Version: 6.00 Build 0)  -->
<svg version="1.1" id="Слой_1" xmlns="http://www.w3.org/2000/svg" xmlns:xlink="http://www.w3.org/1999/xlink" x="0px" y="0px"
	 viewBox="0 0 1024 433" style="enable-background:new 0 0 1024 433;" xml:space="preserve">
<style type="text/css">
	.st0{fill-rule:evenodd;clip-rule:evenodd;fill:#7891CF;}
	.st1{fill:none;stroke:#7891CF;stroke-width:0.216;stroke-miterlimit:22.9256;}
	.st2{fill-rule:evenodd;clip-rule:evenodd;fill:#33CC99;}
	.st3{fill-rule:evenodd;clip-rule:evenodd;fill:#DE9D5B;}
	.st4{fill-rule:evenodd;clip-rule:evenodd;fill:#DDDDDD;}
	.st5{fill-rule:evenodd;clip-rule:evenodd;fill:#F0B57A;}
	.st6{fill-rule:evenodd;clip-rule:evenodd;fill:#42EDA9;}
	.st7{fill-rule:evenodd;clip-rule:evenodd;fill:#AB7137;}
	.st8{fill-rule:evenodd;clip-rule:evenodd;fill:#E69F57;}
	.st9{fill-rule:evenodd;clip-rule:evenodd;fill:#592208;}
	.st10{fill-rule:evenodd;clip-rule:evenodd;}
	.st11{fill-rule:evenodd;clip-rule:evenodd;fill:#3D1D05;}
	.st12{fill-rule:evenodd;clip-rule:evenodd;fill:#222838;}
	.st13{fill-rule:evenodd;clip-rule:evenodd;fill:#FFDDBA;}
	.st14{fill-rule:evenodd;clip-rule:evenodd;fill:#FFCC99;}
	.st15{fill-rule:evenodd;clip-rule:evenodd;fill:#FF0066;}
	.st16{fill-rule:evenodd;clip-rule:evenodd;fill:#FCBF2F;}
	.st17{fill-rule:evenodd;clip-rule:evenodd;fill:#FFA600;}
	.st18{fill-rule:evenodd;clip-rule:evenodd;fill:#C48E58;}
	.st19{fill-rule:evenodd;clip-rule:evenodd;fill:#FFC8B2;}
	.st20{fill-rule:evenodd;clip-rule:evenodd;fill:#CC6633;}
	.st21{fill-rule:evenodd;clip-rule:evenodd;fill:#FFCD38;}
	.st22{fill-rule:evenodd;clip-rule:evenodd;fill:#FF8800;}
	.st23{fill-rule:evenodd;clip-rule:evenodd;fill:#660066;}
	.st24{fill-rule:evenodd;clip-rule:evenodd;fill:#394700;}
	.st25{fill-rule:evenodd;clip-rule:evenodd;fill:#290E01;}
	.st26{fill:#290E01;}
	.st27{fill-rule:evenodd;clip-rule:evenodd;fill:#663300;}
	.st28{fill-rule:evenodd;clip-rule:evenodd;fill:#996633;}
	.st29{fill-rule:evenodd;clip-rule:evenodd;fill:#4E9409;}
	.st30{fill-rule:evenodd;clip-rule:evenodd;fill:#87DE2F;}
	.st31{fill-rule:evenodd;clip-rule:evenodd;fill:#DE954C;}
	.st32{fill-rule:evenodd;clip-rule:evenodd;fill:#CC8742;}
	.st33{fill-rule:evenodd;clip-rule:evenodd;fill:#094DF2;}
	.st34{fill-rule:evenodd;clip-rule:evenodd;fill:#995F25;}
	.st35{fill-rule:evenodd;clip-rule:evenodd;fill:#EDAE5C;}
	.st36{fill-rule:evenodd;clip-rule:evenodd;fill:#2421DE;}
	.st37{fill-rule:evenodd;clip-rule:evenodd;fill:#FFCC00;}
	.st38{fill-rule:evenodd;clip-rule:evenodd;fill:#FFE875;}
	.st39{fill-rule:evenodd;clip-rule:evenodd;fill:#00CCFF;}
	.st40{fill-rule:evenodd;clip-rule:evenodd;fill:#EDAA00;}
	.st41{fill-rule:evenodd;clip-rule:evenodd;fill:#FF6600;}
	.st42{fill-rule:evenodd;clip-rule:evenodd;fill:#FFB894;}
	.st43{fill-rule:evenodd;clip-rule:evenodd;fill:#782E0C;}
	.st44{fill-rule:evenodd;clip-rule:evenodd;fill:#913809;}
	.st45{fill-rule:evenodd;clip-rule:evenodd;fill:#BF6600;}
	.st46{fill-rule:evenodd;clip-rule:evenodd;fill:#15172B;}
	.st47{fill:#DDDDDD;}
	.st48{fill-rule:evenodd;clip-rule:evenodd;fill:#EDB647;}
	.st49{fill:#F0B57A;}
	.st50{fill-rule:evenodd;clip-rule:evenodd;fill:#BECBED;}
	.st51{fill-rule:evenodd;clip-rule:evenodd;fill:#D8E3FC;}
	.st52{fill:#879AC9;}
	.st53{fill-rule:evenodd;clip-rule:evenodd;fill:#222242;}
	.st54{fill-rule:evenodd;clip-rule:evenodd;fill:#879AC9;}
	.st55{fill-rule:evenodd;clip-rule:evenodd;fill:#CC9933;}
	.st56{fill:#FFCC99;}
	.st57{fill-rule:evenodd;clip-rule:evenodd;fill:#353661;}
	.st58{fill-rule:evenodd;clip-rule:evenodd;fill:#8274DE;}
	.st59{fill-rule:evenodd;clip-rule:evenodd;fill:#2C62A1;}
	.st60{fill-rule:evenodd;clip-rule:evenodd;fill:#161A4D;}
	.st61{fill-rule:evenodd;clip-rule:evenodd;fill:#FF0000;}
	.st62{fill-rule:evenodd;clip-rule:evenodd;fill:#FF6666;}
	.st63{fill-rule:evenodd;clip-rule:evenodd;fill:#FF4F4F;}
</style>
<g>
	<g>
		<g>
			<path class="st0" d="M839.4,241.9c-0.6-17.3-44.6-91.7-63.1-91.7h-28.5c-9.5,0-17.3,7.8-17.3,17.3v74.4c0,9.5,7.8,17.3,17.3,17.3
				h74.4C831.7,259.2,839.8,251.4,839.4,241.9z"/>
			<path class="st0" d="M710.2,167.5c0-9.5-7.8-17.3-17.3-17.3h-74.4c-9.5,0-17.3,7.8-17.3,17.3v74.4c0,9.5,7.8,17.3,17.3,17.3h74.4
				c9.5,0,17.3-7.8,17.3-17.3V167.5z"/>
			<path class="st0" d="M563.6,150.2h-74.4c-9.5,0-17.3,7.8-17.3,17.3v74.4c0,9.5,7.8,17.3,17.3,17.3h74.4c9.5,0,17.3-7.8,17.3-17.3
				v-74.4C580.9,158,573.1,150.2,563.6,150.2z"/>
			<path class="st0" d="M434.4,150.2H360c-9.5,0-17.3,7.8-17.3,17.3v74.4c0,9.5,7.8,17.3,17.3,17.3h74.4c9.5,0,17.3-7.8,17.3-17.3
				v-74.4C451.7,158,443.9,150.2,434.4,150.2z"/>
		</g>
		<g>
			<path class="st1" d="M692.9,150.2H360c-9.5,0-17.3,7.8-17.3,17.3v74.4c0,9.5,7.8,17.3,17.3,17.3h332.9c9.5,0,17.3-7.8,17.3-17.3
				v-74.4C710.2,158,702.4,150.2,692.9,150.2z"/>
			<g>
				<g>
					<g>
						<path class="st2" d="M402.1,229.1c-3.9,1.2-7.2,6.2-7.9,11.5l-0.8,5.5l-1.9,13.2h34.7h34.7l-1.9-13.2l-0.8-5.5
							c-0.7-5.3-4-10.3-7.9-11.5c-10.3-3.4-14.9-9.1-24.2-10.9C416.9,220,412.3,225.7,402.1,229.1z"/>
						<path class="st3" d="M426.1,226.9c3.7,0,8.4-1.6,8.6-5.6c-0.8-2.5-1.1-5-1-11.4h-7.6l0,0h-7.6c0.1,6.4-0.1,8.9-1,11.4
							C417.7,225.4,422.4,226.9,426.1,226.9z"/>
						<path class="st4" d="M434.8,221.3c-0.4,3.9-4.9,5.6-8.6,5.6c-3.6,0-8.2-1.7-8.6-5.6c-0.5,0.3-1.1,0.6-1.6,0.9
							c1,4.2,5.2,6.3,10.2,6.3s9.2-2.1,10.2-6.3C435.8,221.9,435.3,221.6,434.8,221.3z"/>
					</g>
					<g>
						<polygon class="st5" points="460.9,259.2 459,246.1 449.5,245.9 448.4,259.2 						"/>
						<path class="st6" d="M449.3,248.9c3.6-2.2,7-2.9,9.7-2.9c-0.3-1.8-0.5-3.7-0.8-5.5c-0.7-5.3-4-10.3-7.9-11.5
							C450.4,234,449.7,243.6,449.3,248.9z"/>
					</g>
					<g>
						<polygon class="st5" points="391.4,259.2 393.3,246.1 402.8,245.9 403.9,259.2 						"/>
						<path class="st6" d="M403,248.9c-3.6-2.2-7-2.9-9.7-2.9c0.3-1.8,0.5-3.7,0.8-5.5c0.7-5.3,4-10.3,7.9-11.5
							C401.9,234,402.6,243.6,403,248.9z"/>
					</g>
				</g>
				<g>
					<g>
						<g>
							<path class="st5" d="M407.5,197.6c-5.6-2-5.2,8.2,1,8.5c1.6,7,14.8,13.4,17.6,13.4s15.9-6.3,17.6-13.4
								c6.2-0.3,6.6-10.5,1-8.5c-0.3-12-8.1-19.7-18.6-19.7C415.7,177.9,407.8,185.6,407.5,197.6z"/>
							<path class="st7" d="M444.1,203.9c-0.1,0.7,1.3,0.2,1.9-0.4c1.1-1.1,1.3-2.5,0.9-3.2c-0.5-0.9-1.9-1-2.4,0
								c-0.3,0.6-0.1,1.2,0.3,1.6C445.2,202.4,444.2,203.5,444.1,203.9z"/>
							<path class="st7" d="M408.2,203.9c0.1,0.7-1.3,0.2-1.9-0.4c-1.1-1.1-1.3-2.5-0.9-3.2c0.5-0.9,1.9-1,2.4,0
								c0.3,0.6,0.1,1.2-0.3,1.6C407.1,202.4,408.1,203.5,408.2,203.9z"/>
						</g>
						<g>
							<g>
								<path class="st7" d="M423.4,205.2c0.1-1.5,1.4-2,2.7-2s2.6,0.6,2.7,2c-0.3-1-1.6-1.5-2.7-1.5
									C425,203.7,423.8,204.2,423.4,205.2z"/>
								<path class="st8" d="M423.8,205.3c-0.4-0.4,0.7-1.4,2.3-1.4s2.6,0.9,2.3,1.4c-0.2,0.3-1.3-0.3-2.3-0.3
									C425.2,205,424,205.5,423.8,205.3z"/>
								<path class="st8" d="M439.8,203c-0.5-0.9-2.1-2.1-4.1-1c-2,1.1-3.5,3-3.4,4.4s1.9-0.5,4.3-1.3
									C439,204.4,440.2,203.9,439.8,203z"/>
								<path class="st8" d="M412.5,203c0.5-0.9,2.1-2.1,4.1-1c2,1.1,3.5,3,3.4,4.4s-1.9-0.5-4.3-1.3
									C413.3,204.4,412.1,203.9,412.5,203z"/>
							</g>
							<g>
								<path class="st8" d="M423.7,212.7c-0.4,0.5,0.7,1.4,2.5,1.4s2.8-1,2.5-1.4c-0.2-0.3-1.5,0.3-2.5,0.3
									C425.1,213,423.8,212.5,423.7,212.7z"/>
								<path class="st7" d="M429,212.9c-0.3,1.2-2.1,1.6-2.9,1.6c-0.8,0-2.6-0.4-2.9-1.6c0.6,1.2,2.3,1.3,2.9,1.3
									C426.8,214.2,428.4,214,429,212.9z"/>
								<path class="st9" d="M430,210.7c-1.3,1-2.8,1.5-3.9,1.5c-1.1,0-2.8-0.4-3.9-1.5C423.9,211.6,428.2,211.6,430,210.7z"/>
							</g>
							<g>
								<path class="st4" d="M432.3,200.6c0.3,1.2,1.2,1.7,2.6,1.2c0.9-0.3,1.8-1.8,3.4-2C436.4,198.2,433.1,199,432.3,200.6z"/>
								<path class="st10" d="M439.4,195.3c-0.1,0.8-1.3,0.4-2.5,0.2s-3-0.1-2.8-0.8C434.5,193.3,439.7,193.5,439.4,195.3z"/>
								<path class="st11" d="M432.4,200.7c0.4-1,1.7-1.7,2.1-1.8c0.6,0.3,1,0.8,1,1.5c0,0.9-0.7,1.6-1.6,1.6
									C433.1,202,432.5,201.4,432.4,200.7z"/>
								<path class="st4" d="M433,200c0-0.4,0.4-0.8,0.8-0.8c0.4,0,0.8,0.4,0.8,0.8c0,0.4-0.4,0.8-0.8,0.8
									C433.4,200.8,433.1,200.5,433,200z"/>
								<path class="st10" d="M436.3,198.4c-1.7-0.1-3.8,0.8-3.9,2.3c0.6-1.3,4.7-1.6,5.9-0.9C438.3,198.8,437.5,198.4,436.3,198.4z
									"/>
							</g>
							<g>
								<path class="st4" d="M420,200.6c-0.3,1.2-1.2,1.7-2.6,1.2c-0.9-0.3-1.8-1.8-3.4-2C415.9,198.2,419.1,199,420,200.6z"/>
								<path class="st10" d="M412.9,195.3c0.1,0.8,1.3,0.4,2.5,0.2s3-0.1,2.8-0.8C417.8,193.3,412.6,193.5,412.9,195.3z"/>
								<path class="st11" d="M419.9,200.7c-0.4-1-1.7-1.7-2.1-1.8c-0.6,0.3-1,0.8-1,1.5c0,0.9,0.7,1.6,1.6,1.6
									C419.1,202,419.8,201.4,419.9,200.7z"/>
								<path class="st4" d="M419.2,200c0-0.4-0.4-0.8-0.8-0.8c-0.4,0-0.8,0.4-0.8,0.8c0,0.4,0.4,0.8,0.8,0.8
									C418.9,200.8,419.2,200.5,419.2,200z"/>
								<path class="st10" d="M416,198.4c1.7-0.1,3.8,0.8,3.9,2.3c-0.6-1.3-4.7-1.6-5.9-0.9C414,198.8,414.8,198.4,416,198.4z"/>
							</g>
						</g>
					</g>
					<g>
						<path class="st10" d="M422.1,165.9c1,0.2,2.4,1,2.6,1.7c-2.1-1-6-0.7-8.1,0.6c1.3-0.5,5-0.5,5.2-0.2
							c-10.7,0.5-30,10.1-17.1,29.8c3.2-0.1,3.3,2.7,5.4,8.4c-0.9-8.6-2.3-11.2,0.3-18.4c-0.3,2.6-0.6,5.2,0.3,7.4
							c4.1-1.3,9.6-1.7,15.4-1.6c5.8-0.1,11.3,0.3,15.4,1.6c1-2.2,0.7-4.8,0.3-7.4c2.6,7.2,1.2,9.8,0.3,18.4
							c2.1-5.7,2.2-8.6,5.4-8.4c12.9-19.7-6.4-29.3-17.1-29.8c0.2-0.3,3.9-0.3,5.2,0.2c-2.1-1.3-6-1.6-8.1-0.6
							c0.1-0.7,1.6-1.5,2.6-1.7c-1.3-0.1-2.8,0.3-4,1.8C425,166.1,423.4,165.8,422.1,165.9z"/>
						<path class="st12" d="M427.1,172c1.1-0.3,3,0.3,4.3,0.9c-0.9,0.3-4.1-0.3-5.2,1.1c-0.8-1.7-4.3-0.8-5.2-1.1
							c1.2-0.6,3.2-1.2,4.3-0.9c-3-4-10.6-0.9-14.8,3.2c3-1.7,4.4-2.9,7.5-2.1c-3.2,0.7-8,4-9.1,7.8c2.9-2.3,4.7-3.5,8.7-4.1
							c-2,0.6-4.5,6.2-1.5,11.4c1.2,0.4,3,0.9,4.9,0.3c-0.9-3.5,1.7-7.6,2.8-8.9c-1.1,2.5-0.7,8.7,1.7,9.1c-2.1-2.3-2.1-7.1,0.7-8.6
							c0.8,2.4,5.1,3.6,3.6,8.6c1.5-0.4,2.3,0,4.3-0.4c1.4-1.8,1.9-7.4,1.3-8.7c2.2,3.2,1.6,5.5,1.7,8.6c1.7-4.7-0.3-10.7-2.3-11.4
							c4,0.2,5.4,2.4,8.3,4.8c-1.1-3.7-5.3-8.4-8.5-9.1c1-0.6,4.1,0.6,7.2,2.7C437.6,171.1,430,168,427.1,172z"/>
					</g>
				</g>
			</g>
			<g>
				<g>
					<g>
						<path class="st13" d="M562.8,223.5c4.5,2.6,9.4,3.8,16.2,6c3.9,1.2,7.1,6.3,7.9,11.5l3.2,18.3h-35.3h-35.3l3.2-18.4
							c0.8-5.2,4-10.3,7.9-11.5c6.8-2.2,11.6-3.4,16.2-6c2.3-1.3,4.9-1.9,8-2.5C557.9,221.5,560.5,222.1,562.8,223.5z"/>
						<path class="st14" d="M554.9,231.2c-3.9,0-9-1.8-9.2-6.1c0.9-2.6,1.2-5,1.1-11.7h8h8.1c-0.1,6.7,0.2,9.1,1.1,11.7
							C563.7,229.3,558.8,231.2,554.9,231.2z"/>
					</g>
					<g>
						<path class="st15" d="M535.1,227.9c-1.4,0.4-2.9,0.9-4.5,1.4c-3.9,1.2-7,6.3-7.9,11.5l-3.2,18.4h35.3h35.3l-3.2-18.3
							c-0.9-5.2-4-10.3-7.9-11.5c-1.6-0.5-3.1-1-4.5-1.4c-3.3,4.4-5.9,10.1-19.7,10.1C541,238.1,538.4,232.4,535.1,227.9z"/>
						<path class="st16" d="M522.7,240.9l-0.1,0.7h64.5l-0.1-0.7c-0.1-0.3-0.1-0.5-0.2-0.8h-63.9
							C522.8,240.3,522.7,240.6,522.7,240.9z"/>
						<polygon class="st16" points="521.7,246.7 554.7,246.7 587.9,246.7 587.7,245 522,245.1 						"/>
						<polygon class="st16" points="520.6,253 554.7,253 589,253 588.6,250.7 521,250.7 						"/>
						<polygon class="st16" points="519.5,259.2 554.7,259.2 590.2,259.2 589.6,256.4 520,256.4 						"/>
					</g>
					<g>
						<path class="st13" d="M577.6,259.2h12.5l-3.2-18.3c-0.8-5.2-4-10.3-7.9-11.5C578.3,235.1,576.8,251.2,577.6,259.2z"/>
						<path class="st13" d="M532,259.3h-12.5l3.2-18.4c0.8-5.2,4-10.3,7.9-11.5C531.3,235.1,532.8,251.2,532,259.3z"/>
					</g>
				</g>
				<g>
					<path class="st17" d="M529.3,190.6c6-3.6,17.4-7.7,25.5-7.7c8.1,0,19.5,4.1,25.5,7.7c-2,18.4-11.7,21.9-25.5,21.9
						C541,212.5,531.3,209,529.3,190.6z"/>
					<g>
						<g>
							<path class="st13" d="M534,195.8c-7.9-2.1-5.6,8.9,0.8,8.5c0.8,2.7,2.9,5.5,5.9,8.5c2.8,2.8,10.2,7,14,7c3.9,0,11.2-4.2,14-7
								c3-3,5.1-5.8,5.9-8.5c6.4,0.4,8.8-10.6,0.8-8.5c-0.8-12.6-10.5-19.7-20.6-19.7C544.6,176.1,534.9,183.3,534,195.8z"/>
							<path class="st18" d="M575.8,202.1c-0.1,0.7,1.3,0.2,1.9-0.4c1.1-1.1,1.3-2.5,0.9-3.2c-0.5-0.9-1.9-1-2.4,0
								c-0.3,0.6-0.1,1.2,0.3,1.6C576.9,200.6,576,201.7,575.8,202.1z"/>
							<path class="st18" d="M533.7,202.2c0.1,0.7-1.3,0.2-1.9-0.4c-1.1-1.1-1.3-2.5-0.9-3.2c0.5-0.9,1.9-1,2.4,0
								c0.3,0.6,0.1,1.2-0.3,1.6C532.6,200.6,533.6,201.7,533.7,202.2z"/>
						</g>
						<g>
							<path class="st18" d="M551.7,204c0.1-2.1,1.6-2.9,3.1-2.9s3,0.8,3.1,2.9c-0.4-1.4-1.8-2.1-3.1-2.1
								C553.5,201.9,552,202.6,551.7,204z"/>
							<path class="st14" d="M552.1,204.3c-0.4-0.7,0.8-2.1,2.7-2.1s3,1.4,2.7,2.1c-0.2,0.4-1.6-0.5-2.7-0.5
								C553.7,203.8,552.3,204.6,552.1,204.3z"/>
						</g>
						<g>
							<path class="st19" d="M550.5,210.2c-0.7,0.6,1.2,1.7,4.3,1.7c3.1,0,4.8-1.2,4.3-1.7c-0.3-0.3-2.5,0.4-4.3,0.4
								C553,210.6,550.7,210,550.5,210.2z"/>
							<path class="st18" d="M559.6,210.5c-0.5,1.6-3.5,2-4.9,2c-1.4,0-4.4-0.5-4.9-2c1,1.4,3.8,1.6,4.9,1.6
								C555.8,212.1,558.7,211.9,559.6,210.5z"/>
							<path class="st7" d="M566.9,205.5c-2.1-0.5-4.9,3.6-12.2,3.6s-10.1-4.1-12.2-3.6c2.2-0.3,4.7,3.9,12.2,3.9
								S564.8,205.1,566.9,205.5z"/>
							<path class="st18" d="M568.4,205.9c0.9-1.5-1.1-2.4-2.1-1.3C567.3,204.3,568.4,205,568.4,205.9z"/>
							<path class="st18" d="M541.2,206c-0.9-1.5,1.1-2.4,2.1-1.3C542.2,204.3,541.1,205,541.2,206z"/>
						</g>
						<g>
							<path class="st4" d="M546.9,197.1c0.8,0.6,1.2,1.4,1.1,2.1c0,0.5-0.6,1.3-1.5,1.3c-1.3,0-2.1-0.7-3-1.3
								c-0.6-0.5-1.6-0.9-2.2-1C541.4,196.2,545.7,196.2,546.9,197.1z"/>
							<path class="st20" d="M540.9,194.2c0.3,0.7,1.4,0.1,2.5-0.4c1.1-0.5,2.9-0.8,2.6-1.4C545.2,191.1,540.2,192.4,540.9,194.2z"
								/>
							<path class="st11" d="M548,198.9c0-0.9-0.7-1.6-1.6-1.6c-0.9,0-1.6,0.7-1.6,1.6c0,0.9,0.7,1.6,1.6,1.6
								C547.3,200.5,548,199.8,548,198.9z"/>
							<path class="st4" d="M546.9,198.2c0-0.4-0.4-0.8-0.8-0.8c-0.4,0-0.8,0.4-0.8,0.8c0,0.4,0.4,0.8,0.8,0.8
								C546.5,199,546.9,198.7,546.9,198.2z"/>
							<path class="st11" d="M541.4,196.1c2.4-1,6.6,0.1,6.7,2.8c-0.6-2.7-6.1-2.6-6.8-0.7C539.6,197.8,540.1,196.6,541.4,196.1z"/>
						</g>
						<g>
							<path class="st4" d="M562.7,197.1c-0.8,0.6-1.2,1.4-1.1,2.1c0,0.5,0.6,1.3,1.5,1.3c1.3,0,2.1-0.7,3-1.3
								c0.6-0.5,1.6-0.9,2.2-1C568.1,196.2,563.9,196.2,562.7,197.1z"/>
							<path class="st20" d="M569,194.2c-0.3,0.7-1.4,0.1-2.5-0.4c-1.1-0.5-2.9-0.8-2.6-1.4C564.7,191.1,569.7,192.4,569,194.2z"/>
							<path class="st11" d="M564.7,198.9c0-0.9-0.7-1.6-1.6-1.6c-0.9,0-1.6,0.7-1.6,1.6c0,0.9,0.7,1.6,1.6,1.6
								C564,200.5,564.7,199.8,564.7,198.9z"/>
							<path class="st4" d="M563.4,198.2c0-0.4-0.4-0.8-0.8-0.8c-0.4,0-0.8,0.4-0.8,0.8c0,0.4,0.4,0.8,0.8,0.8
								C563,199,563.4,198.6,563.4,198.2z"/>
							<path class="st11" d="M568.2,196.1c-2.4-1-6.6,0.1-6.7,2.8c0.6-2.7,6.1-2.6,6.8-0.7C569.9,197.8,569.4,196.6,568.2,196.1z"/>
						</g>
						<g>
							<path class="st19" d="M538.1,200.2c0.4-0.4,2.1-1.4,5.6-0.1c3.5,1.2,4.2,3.1,3.5,4c-0.7,0.9-2.5-0.7-5.3-1.8
								C539,201.2,537.6,200.6,538.1,200.2z"/>
							<path class="st18" d="M542.2,200.6c0-0.2,0.4-0.3,0.8-0.2c0.4,0,0.7,0.2,0.7,0.4s-0.4,0.3-0.8,0.2S542.1,200.8,542.2,200.6z"
								/>
							<path class="st18" d="M540.7,200.1c0-0.1,0.2-0.2,0.4-0.2c0.2,0,0.4,0.1,0.4,0.2c0,0.1-0.2,0.2-0.4,0.2
								S540.7,200.3,540.7,200.1z"/>
							<path class="st18" d="M546,202.8c0.1,0,0.2,0,0.4,0.2c0.2,0.1,0.3,0.3,0.2,0.4c-0.1,0-0.2,0-0.4-0.2
								C546.1,203.1,546,202.9,546,202.8z"/>
							<path class="st18" d="M544.6,201.7c0.1-0.1,0.3-0.1,0.6,0c0.3,0.1,0.4,0.3,0.4,0.4c-0.1,0.1-0.3,0.1-0.6,0
								S544.6,201.9,544.6,201.7z"/>
							<path class="st18" d="M543,201.7c0.1-0.1,0.3-0.2,0.6-0.1c0.2,0.1,0.4,0.3,0.4,0.4c-0.1,0.1-0.3,0.2-0.6,0.1
								S542.9,201.9,543,201.7z"/>
						</g>
						<g>
							<path class="st19" d="M571.6,200.2c-0.4-0.4-2.1-1.4-5.6-0.1c-3.5,1.2-4.2,3.1-3.5,4c0.6,0.9,2.4-0.7,5.2-1.8
								S572,200.6,571.6,200.2z"/>
							<path class="st18" d="M567.4,200.6c0-0.2-0.4-0.3-0.8-0.2c-0.4,0-0.7,0.2-0.7,0.4s0.4,0.3,0.8,0.2
								C567.1,200.9,567.4,200.7,567.4,200.6z"/>
							<path class="st18" d="M568.8,200.1c0-0.1-0.2-0.2-0.4-0.2c-0.2,0-0.4,0.1-0.4,0.2c0,0.1,0.2,0.2,0.4,0.2
								S568.8,200.2,568.8,200.1z"/>
							<path class="st18" d="M563.5,202.8c-0.1,0-0.2,0-0.4,0.2c-0.2,0.1-0.3,0.3-0.2,0.4c0.1,0,0.2,0,0.4-0.2
								C563.5,203.1,563.5,202.9,563.5,202.8z"/>
							<path class="st18" d="M564.9,201.7c-0.1-0.1-0.3-0.1-0.6,0c-0.3,0.1-0.4,0.3-0.4,0.4c0.1,0.1,0.3,0.1,0.6,0
								C564.8,202,565,201.8,564.9,201.7z"/>
							<path class="st18" d="M566.5,201.7c-0.1-0.1-0.3-0.2-0.6-0.1c-0.2,0.1-0.4,0.3-0.4,0.4c0.1,0.1,0.3,0.2,0.6,0.1
								S566.6,201.8,566.5,201.7z"/>
						</g>
					</g>
					<g>
						<g>
							<path class="st17" d="M551,163.6c1.1,0.2,2.2,1.4,2.4,2.1c-0.7-1.1-3.7-1.5-6.6-0.3c1.7-0.7,5.2,0.3,5.4,0.6
								c-9,0.5-22.7,6-24.6,17.8c-0.8,5,3.6,10.7,7.2,17.2c-1-9.3,4.2-16.7,10.2-18.6c-2.6,2.1-5.8,7.3-5.1,11
								c3.1-1.6,5.9-2.2,8.8-2.4c-0.9-3.3,0.2-5.7,2.1-7.8c-1,5.5-0.6,6.7,0.4,7.7c1.3-0.1,2.3-0.1,3.7-0.1c1.5,0,2.4,0,3.7,0.1
								c0.9-1,1.3-2.3,0.3-7.7c1.9,2.1,3.1,4.5,2.1,7.8c2.9,0.2,5.7,0.8,8.8,2.4c0.8-3.7-2.4-8.8-5.1-10.9c6,2,11.1,9.3,10.2,18.6
								c3.6-6.6,8-12.2,7.2-17.2c-2-11.8-15.7-17.4-24.7-17.8c0.1-0.3,3.7-1.3,5.4-0.6c-3-1.1-6-0.7-6.6,0.4
								c0.2-0.8,1.3-1.9,2.4-2.1c-1.3-0.2-3.3,0-3.8,2.1C554.2,163.7,552.3,163.6,551,163.6z"/>
							<path class="st21" d="M556,172.5c1.1-0.3,2.7,0,4,0.6c-0.9,0.4-3,0.5-3.7,2.3c4.5,0,8.8,2.4,11.1,4.7c-1-2.2-3.5-4-5.5-4.7
								c4,0.2,6.9,2,9.8,4.4c-1.1-3.8-5.3-6.4-8.5-7.1c1-0.6,2.8-0.5,7.2,0.7C566.2,169.3,557.5,167.1,556,172.5z"/>
							<path class="st21" d="M553.5,172.5c-1.1-0.3-2.7,0-4,0.6c0.9,0.4,3,0.5,3.7,2.3c-4.5,0-8.8,2.4-11.1,4.7c1-2.2,3.5-4,5.5-4.7
								c-4,0.2-6.9,2-9.8,4.4c1.1-3.8,5.3-6.4,8.5-7.1c-1-0.6-2.8-0.5-7.2,0.7C543.3,169.3,552,167.1,553.5,172.5z"/>
						</g>
						<g>
							<path class="st17" d="M576.1,171.9c0.1,0.4-0.2,1.2-0.3,1.6c-0.1,0.7,1,1.6,1.4,1.6c0.7-0.1,1.3-0.3,2,0.3
								c1.2,1,6.2,6.6,3.5,11.3c5.5-2,4.6-5.5,4.2-7.5c3.1,0.9,3.3,9.4,1.8,11.7c3.3-0.8,10.5-12.3,2.1-16.7
								c2.7-0.6,6.4,6.1,5.7,9.6c5.8-3.7,8.1-18.3-8.2-20.9c1.9-0.6,4.2-2.8,8.7-0.8c-5.8-6-19.3-2.8-20.8,2.5c-0.2-1.3,0-3,1.1-4.9
								C570.7,162.9,574.2,167.8,576.1,171.9z"/>
							<path class="st22" d="M577.1,173.8c0.3,0.7,1,1.4,1.4,1.2c2.6-2.3,7.3-0.6,8.1,1.2c0.4-2.5-1.3-4.3-3.4-4.7
								c2.2-1,8.5-1.1,9.6-0.4c-1.6-3.4-7.1-5.9-10.7-2.7c-0.4-1.2,0.7-2.3,3.5-4.1c-2.7-0.5-5.8-1.1-7.5,3.2
								c-0.9-1.2-0.5-2.9-0.2-4.5C575.1,166.1,576,170.2,577.1,173.8z"/>
							<path class="st15" d="M578.7,179.1c1.1-1,1.5-3.1,0.2-3.9s-2.2-1.8-2.7-3c-0.6-1.4-2.8-1.2-3.9-0.2c-1.1,1-1,2.6-0.2,3.9
								c0.7,1.1,1.6,2.2,2.7,3C576,179.9,577.6,180.2,578.7,179.1z"/>
						</g>
						<g>
							<path class="st17" d="M533.3,172c-0.1,0.4,0.2,1.2,0.3,1.6c0.1,0.7-1,1.6-1.4,1.6c-0.7-0.1-1.3-0.3-2,0.3
								c-1.1,1-6.1,6.6-3.4,11.3c-5.5-2-4.6-5.6-4.2-7.5c-3.1,0.9-3.3,9.4-1.8,11.7c-3.3-0.8-10.5-12.3-2.1-16.7
								c-2.7-0.6-6.4,6.1-5.7,9.6c-5.8-3.8-8.1-18.4,8.2-21c-1.9-0.6-4.2-2.8-8.7-0.8c5.8-6,19.3-2.8,20.8,2.5c0.2-1.3,0-3-1.1-4.9
								C538.8,162.9,535.4,167.8,533.3,172z"/>
							<path class="st22" d="M532.4,173.8c-0.3,0.7-1,1.4-1.4,1.2c-2.6-2.3-7.3-0.6-8.1,1.2c-0.4-2.5,1.3-4.3,3.4-4.7
								c-2.2-1-8.5-1.1-9.6-0.4c1.6-3.4,7.1-5.9,10.7-2.7c0.4-1.2-0.7-2.3-3.5-4.1c2.7-0.5,5.8-1.1,7.5,3.2c0.9-1.2,0.5-2.9,0.2-4.5
								C534.4,166.1,533.5,170.2,532.4,173.8z"/>
							<path class="st15" d="M530.8,179.2c-1.1-1-1.5-3.1-0.2-3.9c1.3-0.7,2.2-1.8,2.7-3c0.6-1.4,2.8-1.2,3.9-0.2
								c1.1,1,1,2.6,0.2,3.9c-0.7,1.1-1.6,2.2-2.7,3C533.5,179.9,532,180.2,530.8,179.2z"/>
						</g>
					</g>
				</g>
			</g>
			<g>
				<g>
					<g>
						<path class="st23" d="M476.1,229.1c-3.9,1.2-7.2,6.2-7.9,11.5l-0.8,5.5l-1.9,13.2h34.7h34.7l-1.9-13.2l-0.8-5.5
							c-0.7-5.3-4-10.3-7.9-11.5c-10.3-3.4-14.9-9.1-24.2-10.9C490.8,220,486.2,225.7,476.1,229.1z"/>
						<path class="st14" d="M499.9,226.9c3.3,0,7.4-1.8,7.6-5.8c-0.7-2.5-1-4.7-0.9-11.1H500l0,0h-6.6c0.1,6.3-0.1,8.6-0.9,11.1
							C492.7,225.1,496.8,226.9,499.9,226.9z"/>
						<path class="st4" d="M507.5,220.8c0,0.1,0.1,0.2,0.1,0.3c-0.2,4-4.3,5.8-7.6,5.8s-7.4-1.8-7.6-5.8c0-0.1,0.1-0.2,0.1-0.3
							c-0.5,0.2-1.1,0.5-1.6,0.8c0.6,4.6,4.5,6.9,9.1,6.9s8.5-2.3,9.1-6.9C508.6,221.3,508.1,221,507.5,220.8z"/>
					</g>
					<g>
						<polygon class="st13" points="534.8,259.2 533,246.1 523.5,245.9 522.3,259.2 						"/>
						<path class="st23" d="M523.3,248.9c3.6-2.2,7-2.9,9.7-2.9c-0.3-1.8-0.5-3.7-0.8-5.5c-0.7-5.3-4-10.3-7.9-11.5
							C524.3,234,523.7,243.6,523.3,248.9z"/>
					</g>
					<g>
						<polygon class="st13" points="465.3,259.2 467.2,246.1 476.7,245.9 477.8,259.2 						"/>
						<path class="st23" d="M476.9,248.9c-3.6-2.2-7-2.9-9.7-2.9c0.3-1.8,0.5-3.7,0.8-5.5c0.7-5.3,4-10.3,7.9-11.5
							C475.8,234,476.5,243.6,476.9,248.9z"/>
					</g>
				</g>
				<g>
					<g>
						<g>
							<path class="st13" d="M481.3,188.8c-0.4,2.2-1,4.2-0.3,7c-1.1,0.1-3.4-0.1-4,2.5c-0.7,3.2,3.2,7.5,6.3,6
								c0.3,1.9,1.2,3.5,2.6,4.9c3.6,3.6,9.4,9.1,14.2,9.2c4.9-0.1,10.6-5.7,14.2-9.2c1.4-1.4,2.3-3.1,2.6-4.9c3.1,1.5,7-2.8,6.3-6
								c-0.6-2.6-2.9-2.4-4-2.5c0.6-2.8,0.1-4.8-0.3-7c-1.9-10.1-13-13.5-18.8-13.7C494.3,175.3,483.2,178.8,481.3,188.8z"/>
							<path class="st18" d="M518.3,202.5c-0.2,0.7,1.3,0.2,2-0.4c1.2-1.1,1.4-2.5,1-3.2c-0.5-0.9-2-1-2.5,0
								c-0.3,0.6-0.1,1.2,0.3,1.6C519.5,201,518.5,202.1,518.3,202.5z"/>
							<path class="st18" d="M481.9,202.5c0.2,0.7-1.3,0.2-2-0.4c-1.2-1.1-1.4-2.5-1-3.2c0.5-0.9,2-1,2.5,0c0.3,0.6,0.1,1.2-0.3,1.6
								C480.7,201,481.7,202.1,481.9,202.5z"/>
						</g>
						<g>
							<path class="st9" d="M487.2,195.8c0.3,0.5,1-0.1,1.8-0.5c2.3-1.1,4.1-0.9,3.9-1.4C492.4,192.5,486.6,194.6,487.2,195.8z"/>
							<path class="st4" d="M491.8,197.2c1,0,1.9,0.3,2.2,1.2c0.4,0.9,0,1.9-0.9,2.2c-0.2,0.1-0.5,0.1-0.7,0.1l0,0
								c-1.9,0.1-3.5-0.8-4.2-0.9C488.1,197.7,490.7,197.2,491.8,197.2z"/>
							<path class="st24" d="M490.9,199.7c-0.4-0.9,0-1.9,0.9-2.2c0.9-0.4,1.9,0,2.2,0.9c0.4,0.9,0,1.9-0.9,2.2
								C492.3,200.9,491.3,200.5,490.9,199.7z"/>
							<path class="st4" d="M491.9,198.4c-0.1-0.5,0.1-0.9,0.5-1.1c0.5-0.1,0.9,0.1,1.1,0.5c0.1,0.5-0.1,0.9-0.5,1.1
								C492.6,199.1,492.1,198.9,491.9,198.4z"/>
						</g>
						<g>
							<path class="st19" d="M485,202c0-0.7,1.4-2.2,4.9-0.9c3.5,1.3,3.4,4,2.9,4.9c-0.5,1-3.2-0.2-5.4-1.4
								C485.2,203.4,484.8,202.8,485,202z"/>
							<path class="st19" d="M515.2,202c0-0.7-1.4-2.2-4.9-0.9c-3.5,1.3-3.4,4-2.9,4.9c0.5,1,3.2-0.2,5.4-1.4
								C515,203.4,515.3,202.8,515.2,202z"/>
							<path class="st18" d="M497.4,204.7c0.1-1.3,1.4-1.7,2.7-1.7s2.6,0.5,2.7,1.7c-0.3-0.9-1.6-1.3-2.7-1.3
								C499,203.4,497.7,203.8,497.4,204.7z"/>
							<path class="st14" d="M497.8,204.8c-0.4-0.4,0.7-1.2,2.3-1.2c1.6-0.1,2.6,0.8,2.3,1.2c-0.2,0.2-1.3-0.3-2.3-0.3
								S497.9,205,497.8,204.8z"/>
						</g>
						<g>
							<path class="st9" d="M500.1,210c1.4-0.1,3-0.3,4-0.7c-0.9,0.5-1.3,1-2,1.3c-0.6,0.3-1.3,0.4-2,0.4V210z"/>
							<path class="st9" d="M500.1,210c-1.4-0.1-3-0.3-4-0.7c0.9,0.5,1.3,1,2,1.3c0.6,0.3,1.3,0.4,2,0.4V210z"/>
							<path class="st19" d="M498.1,211.1c-0.4,0.3,0.6,0.9,2.1,0.9s2.3-0.6,2.1-0.9c-0.2-0.2-1.3,0.2-2.2,0.2
								S498.1,210.9,498.1,211.1z"/>
							<path class="st18" d="M502.5,211.2c-0.2,0.9-1.7,1.1-2.4,1.1c-0.6,0-2.1-0.2-2.4-1.1c0.4,0.8,1.9,0.9,2.4,0.9
								S502,212,502.5,211.2z"/>
						</g>
						<path class="st11" d="M488.4,197.4c1.3-1,4.4-1.2,5.6,1c-1.3-1.1-3.4-1.1-4.7-0.4c-0.8,0.4-1.2,1.3-1.1,1.8
							C487.5,199.2,487.6,198,488.4,197.4z"/>
						<g>
							<path class="st4" d="M508.4,197.2c-1,0-1.9,0.3-2.2,1.2c-0.4,0.9,0,1.9,0.9,2.2c0.2,0.1,0.5,0.1,0.7,0.1l0,0
								c1.9,0.1,3.5-0.8,4.2-0.9C512,197.7,509.5,197.2,508.4,197.2z"/>
							<path class="st24" d="M509.3,199.7c0.4-0.9,0-1.9-0.9-2.2c-0.9-0.4-1.9,0-2.2,0.9c-0.4,0.9,0,1.9,0.9,2.2
								C507.9,200.9,508.9,200.5,509.3,199.7z"/>
							<path class="st4" d="M508.2,198.4c0.1-0.5-0.1-0.9-0.5-1.1c-0.5-0.1-0.9,0.1-1.1,0.5c-0.1,0.5,0.1,0.9,0.5,1.1
								C507.6,199.1,508,198.9,508.2,198.4z"/>
							<path class="st9" d="M512.9,195.8c-0.3,0.5-1-0.1-1.8-0.5c-2.3-1.1-4.1-0.9-3.9-1.4C507.8,192.5,513.6,194.6,512.9,195.8z"/>
							<path class="st11" d="M511.8,197.4c-1.3-1-4.4-1.2-5.6,1c1.3-1.1,3.4-1.1,4.7-0.4c0.8,0.4,1.2,1.3,1.1,1.8
								C512.7,199.2,512.6,198,511.8,197.4z"/>
						</g>
					</g>
					<g>
						<path class="st25" d="M516.5,196.7c0.8-0.6,1.8-1,2.8-1v-0.4c-1.3,0-2.5,0.4-2.9,0.5l-3.7,1.2l0.8,1.8L516.5,196.7z"/>
						<path class="st25" d="M483.7,196.7c-0.8-0.6-1.8-1.1-2.8-1v-0.4c1.3,0,2.5,0.4,2.9,0.5l3.7,1.2l-0.8,1.8L483.7,196.7z"/>
						<path class="st26" d="M508.1,205.3v0.6c-3.3,0-5.9-2.7-5.9-5.9c0-1.6,0.6-3,1.7-4.1l0,0c1-1,2.5-1.7,4.1-1.7v0.6
							c-1.4,0-2.7,0.5-3.7,1.5l0,0c-0.9,0.9-1.5,2.2-1.5,3.7C502.8,202.9,505.2,205.3,508.1,205.3L508.1,205.3z M511.8,203.8
							c0.9-0.9,1.5-2.2,1.5-3.7c0-1.4-0.5-2.7-1.5-3.7l0,0c-0.9-0.9-2.2-1.5-3.7-1.5l0,0v-0.6l0,0c1.6,0,3,0.6,4.1,1.7l0,0
							c1,1,1.7,2.5,1.7,4.1s-0.6,3-1.7,4.1c-1,1-2.5,1.7-4.1,1.7l0,0v-0.6l0,0C509.5,205.3,510.9,204.7,511.8,203.8z"/>
						<path class="st26" d="M491.9,194.8c-1.4,0-2.7,0.5-3.7,1.5l0,0c-0.9,0.9-1.5,2.2-1.5,3.7c0,1.4,0.5,2.7,1.5,3.7
							c0.9,0.9,2.2,1.5,3.7,1.5v0.6c-1.6,0-3-0.6-4.1-1.7l0,0c-1-1-1.7-2.5-1.7-4.1s0.6-3,1.7-4.1c1-1,2.5-1.7,4.1-1.7V194.8z
							 M491.9,205.9v-0.6c2.9,0,5.3-2.4,5.3-5.3c0-1.4-0.5-2.7-1.5-3.7c-0.9-0.9-2.2-1.5-3.7-1.5v-0.6c1.6,0,3,0.6,4.1,1.7l0,0
							c1,1,1.7,2.5,1.7,4.1C497.8,203.3,495.1,205.9,491.9,205.9L491.9,205.9z"/>
						<path class="st25" d="M502.8,199c0-0.2-1.3-0.8-2.6-0.8s-2.6,0.6-2.6,0.8c0,0.5,0,0.9-0.1,1.3c0.5-0.5,1.6-0.9,2.6-0.9
							s2.1,0.4,2.6,0.9C502.6,199.8,502.6,199.5,502.8,199z"/>
					</g>
					<g>
						<path class="st27" d="M499.9,184.8c-0.8,0.5-2,3.5-1.1,8.1c-0.8,0.5-2.5,0.6-3.1,0.2c-1-0.4-2.8-2.9-2.1-6.6
							c-1.7,1.8-1.5,4.9-0.9,6.1c-2.6-0.3-4.6-1.7-4.6-4.2c-4.8,3.4-6.1,5.5-5.4,12.9c-0.9-1.8-1.5-2.9-2.9-5.3
							c-2.5-4.4-7.1-8.4-5.6-12.8c2.3-6.9,9.5-17.7,17.8-19.6c2.5-0.5,5.1,0.5,8,0.7c2.9-0.3,5.6-1.2,8-0.7
							c8.3,1.9,15.5,12.7,17.8,19.6c1.5,4.3-3.1,8.3-5.6,12.8c-1.3,2.4-2,3.5-2.9,5.3c0.7-7.4-0.6-9.5-5.4-12.9c0,2.5-2,4-4.6,4.2
							c0.6-1.3,0.8-4.3-0.9-6.1c0.7,3.7-1.1,6.2-2.1,6.6c-0.6,0.3-2.3,0.3-3.1-0.2C502.1,187.9,500.8,185.4,499.9,184.8z"/>
						<path class="st28" d="M500.7,168.1c0.9-0.2,2.4,0.3,3.4,0.7c-0.6,0.3-3.1-0.2-4,0.9c-0.5-1.4-3.3-0.6-4-0.9
							c1-0.4,2.5-0.9,3.4-0.7c-2.3-3.1-8.2-0.7-11.5,2.5c3.4-0.9,4.8-1,5.6-0.5c-2.5,0.5-5.7,2.6-6.6,5.5c2.3-1.9,3.4-3.6,6.5-3.8
							c-1.6,0.5-3.4,5.2-1.1,9.2c0.5-3.4,0.7-4.2,3-6.8c-0.9,2-0.9,7.4,2.8,6.9c-1.6-1.8-0.2-5.6,2-6.7c0.6,1.9,4,2.8,2.8,6.7
							c2.1-2.1,2.8-5,1.9-6.9c2.2,2.6,3.2,4.8,3.7,8.2c1.3-3.6-0.3-10.1-1.8-10.6c3.2,0.2,4.2,2,6.5,3.8c-0.9-2.9-4.1-5-6.6-5.5
							c0.8-0.5,2.2-0.5,5.6,0.5C509,167.4,503.1,164.9,500.7,168.1z"/>
					</g>
				</g>
			</g>
			<g>
				<g>
					<g>
						<path class="st13" d="M635.4,223.4c4.5,2.6,9.4,3.8,16.2,6c3.9,1.2,7.1,6.2,7.9,11.5l3.2,18.3h-35.3h-35.3l3.2-18.3
							c0.8-5.2,4-10.3,7.9-11.5c6.8-2.2,11.6-3.4,16.2-6c2.3-1.3,4.9-1.9,8-2.5C630.5,221.5,633,222.1,635.4,223.4z"/>
						<path class="st14" d="M627.4,231.1c-3.9,0-9-1.8-9.2-6.1c0.9-2.6,1.2-5,1.1-11.7h8h8.1c-0.1,6.7,0.2,9.1,1.1,11.7
							C636.3,229.3,631.3,231.2,627.4,231.1z"/>
						<path class="st29" d="M607.7,228c-1.4,0.4-2.9,0.9-4.5,1.4c-3.9,1.2-7,6.3-7.9,11.5l-3.2,18.3h35.3h35.3l-3.2-18.3
							c-0.9-5.2-4-10.3-7.9-11.5c-1.6-0.5-3.1-1-4.5-1.4c-3.3,4.4-5.9,10.1-19.7,10.1S610.9,232.4,607.7,228z"/>
					</g>
					<g>
						<path class="st30" d="M648.7,231.8c0-0.8-0.7-1.5-1.5-1.5s-1.5,0.7-1.5,1.5s0.7,1.5,1.5,1.5
							C648.1,233.3,648.7,232.6,648.7,231.8z"/>
						<path class="st30" d="M628.1,244.6c0-0.8-0.7-1.5-1.5-1.5s-1.5,0.7-1.5,1.5s0.7,1.5,1.5,1.5
							C627.5,246.1,628.1,245.4,628.1,244.6z"/>
						<path class="st30" d="M641.9,247.1c0-0.8-0.7-1.5-1.5-1.5s-1.5,0.7-1.5,1.5s0.7,1.5,1.5,1.5S641.8,248,641.9,247.1z"/>
						<path class="st30" d="M648.2,240.5c0-0.8-0.7-1.5-1.5-1.5s-1.5,0.7-1.5,1.5s0.7,1.5,1.5,1.5S648.2,241.3,648.2,240.5z"/>
						<path class="st30" d="M640.5,259.2c-0.1-0.8-0.7-1.4-1.5-1.4s-1.4,0.6-1.5,1.4H640.5z"/>
						<path class="st30" d="M647,254.4c0-0.8-0.7-1.5-1.5-1.5s-1.5,0.7-1.5,1.5s0.7,1.5,1.5,1.5C646.3,255.9,647,255.2,647,254.4z"
							/>
						<path class="st30" d="M636,239.7c0-0.8-0.7-1.5-1.5-1.5s-1.5,0.7-1.5,1.5s0.7,1.5,1.5,1.5C635.4,241.2,636,240.5,636,239.7z"
							/>
						<path class="st30" d="M613.4,256.2c0-0.8-0.7-1.5-1.5-1.5s-1.5,0.7-1.5,1.5c0,0.8,0.7,1.5,1.5,1.5S613.4,257,613.4,256.2z"/>
						<path class="st30" d="M626.1,257.2c0-0.8-0.7-1.5-1.5-1.5s-1.5,0.7-1.5,1.5s0.7,1.5,1.5,1.5S626.1,258,626.1,257.2z"/>
						<path class="st30" d="M622.3,237.7c-1-0.1-2-0.3-2.9-0.5c-0.1,0.1-0.1,0.3-0.1,0.4c0,0.8,0.7,1.5,1.5,1.5
							S622.2,238.5,622.3,237.7z"/>
						<path class="st30" d="M609,235.2c0-0.8-0.7-1.5-1.5-1.5s-1.5,0.7-1.5,1.5s0.7,1.5,1.5,1.5C608.3,236.7,609,236.1,609,235.2z"
							/>
						<path class="st30" d="M614.8,243.1c0-0.8-0.7-1.5-1.5-1.5s-1.5,0.7-1.5,1.5s0.7,1.5,1.5,1.5S614.8,243.9,614.8,243.1z"/>
						<path class="st30" d="M606.7,248c0-0.8-0.7-1.5-1.5-1.5s-1.5,0.7-1.5,1.5s0.7,1.5,1.5,1.5C606.1,249.5,606.7,248.8,606.7,248z
							"/>
						<path class="st30" d="M620.6,250.6c0-0.8-0.7-1.5-1.5-1.5s-1.5,0.7-1.5,1.5s0.7,1.5,1.5,1.5S620.6,251.5,620.6,250.6z"/>
						<path class="st30" d="M633.5,252.4c0-0.8-0.7-1.5-1.5-1.5s-1.5,0.7-1.5,1.5s0.7,1.5,1.5,1.5
							C632.9,253.9,633.5,253.2,633.5,252.4z"/>
					</g>
					<g>
						<path class="st13" d="M650.2,259.2h12.4l-3.2-18.3c-0.8-5.2-4-10.3-7.9-11.5C650.9,235.1,649.4,251.2,650.2,259.2z"/>
						<path class="st13" d="M604.6,259.2h-12.5l3.2-18.3c0.8-5.2,4-10.3,7.9-11.5C603.8,235.1,605.3,251.2,604.6,259.2z"/>
					</g>
				</g>
				<g>
					<g>
						<path class="st13" d="M610.4,203.4c1.3,7.7,12.4,16.3,17,16.2c4.6-0.1,15.8-8.5,17-16.2c2.8-17.3-6.8-27.3-17-27.3
							S607.6,186.2,610.4,203.4z"/>
						<g>
							<path class="st18" d="M624.3,203.8c0.1-1.6,1.6-2.2,3.1-2.2s3,0.6,3.1,2.2c-0.4-1.2-1.8-1.7-3.1-1.7S624.6,202.7,624.3,203.8
								z"/>
							<path class="st14" d="M624.7,204c-0.4-0.5,0.8-1.6,2.7-1.6c1.9-0.1,3,1.1,2.7,1.6c-0.2,0.3-1.6-0.4-2.7-0.4
								C626.3,203.6,624.9,204.2,624.7,204z"/>
							<path class="st19" d="M641.4,202.1c0-0.7-1.1-2.3-4.5-1.4c-3.4,0.9-3.6,3.4-3.2,4.3c0.3,0.9,3,0.1,5.1-0.8
								C640.9,203.3,641.3,202.7,641.4,202.1z"/>
							<path class="st19" d="M611.9,201.4c0-0.8,1.3-2.2,4.6-0.9c3.3,1.2,3.2,3.7,2.7,4.6c-0.4,0.8-3-0.3-5-1.4
								C612.2,202.6,611.9,202,611.9,201.4z"/>
						</g>
						<g>
							<path class="st9" d="M622.1,208.5c1.4,0.8,3.3,1.1,5.3,1.1c1.8,0,3.7-0.1,5.3-1.1c-0.9,1.2-3.5,2.3-5.3,2.3
								C625.5,210.8,622.9,209.7,622.1,208.5z"/>
							<path class="st19" d="M624.3,211.1c-0.4,0.5,0.9,1.4,3,1.4c2.1,0,3.3-1,3-1.4c-0.2-0.3-1.8,0.3-3,0.3
								S624.6,210.9,624.3,211.1z"/>
							<path class="st18" d="M630.7,211.3c-0.4,1.2-2.4,1.6-3.4,1.6s-3-0.3-3.4-1.6c0.7,1.1,2.6,1.3,3.4,1.3S630,212.5,630.7,211.3z
								"/>
						</g>
						<g>
							<path class="st4" d="M636.9,196.9c-1.1,0.1-2.8,0.7-2.7,2.1c0.2,1.6,1.9,1.6,2.8,1c0.8-0.5,2.1-1.6,3.1-1.7
								C639.8,197,637.9,196.8,636.9,196.9z"/>
							<path class="st10" d="M640.4,194.2c-0.1,0.8-1.3,0.4-2.5,0.2s-3-0.1-2.8-0.8C635.5,192.2,640.7,192.4,640.4,194.2z"/>
							<path class="st24" d="M637.3,198.9c0-0.9-0.7-1.6-1.6-1.6c-0.9,0-1.6,0.7-1.6,1.6c0,0.9,0.7,1.6,1.6,1.6
								C636.6,200.5,637.3,199.8,637.3,198.9z"/>
							<path class="st4" d="M636.2,198.5c0-0.4-0.4-0.8-0.8-0.8c-0.4,0-0.8,0.4-0.8,0.8c0,0.4,0.4,0.8,0.8,0.8
								C635.9,199.3,636.2,198.9,636.2,198.5z"/>
							<path class="st10" d="M640,196.5c-2.1-0.7-5.8,0.1-5.9,2.3c0.5-2.1,5.4-2,6-0.5C641.5,198,641.1,197,640,196.5z"/>
						</g>
						<g>
							<path class="st4" d="M617.8,196.9c1.1,0.1,2.8,0.7,2.7,2.1c-0.2,1.6-1.9,1.6-2.8,1c-0.8-0.5-2.1-1.6-3.1-1.7
								C614.9,197,616.8,196.8,617.8,196.9z"/>
							<path class="st10" d="M614.3,194.2c0.1,0.8,1.3,0.4,2.5,0.2c1.2-0.2,3-0.1,2.8-0.8C619.2,192.2,614,192.4,614.3,194.2z"/>
							<path class="st24" d="M617.4,198.9c0-0.9,0.7-1.6,1.6-1.6c0.9,0,1.6,0.7,1.6,1.6c0,0.9-0.7,1.6-1.6,1.6
								C618.1,200.5,617.4,199.8,617.4,198.9z"/>
							<path class="st4" d="M618.5,198.5c0-0.4,0.4-0.8,0.8-0.8c0.4,0,0.8,0.4,0.8,0.8c0,0.4-0.4,0.8-0.8,0.8
								C618.8,199.3,618.5,198.9,618.5,198.5z"/>
							<path class="st10" d="M614.7,196.5c2.1-0.7,5.8,0.1,5.9,2.3c-0.5-2.1-5.4-2-6-0.5C613.2,198,613.6,197,614.7,196.5z"/>
						</g>
					</g>
					<g>
						<path class="st10" d="M631,190.9c0.9-1,1.3-2.3,0.3-7.7c1.7,2.1,2.8,4.5,1.9,7.8c2.7,0.2,5.4,0.8,8.3,2.4
							c0.7-3.7-2.3-8.8-4.8-10.9c6.3,2.1,8.4,18.7,5.1,29.3c1.1-1.8,10.6-11.8,12.6-14.2s1.6-7.2,0.9-10.2
							c-3.7-15.3-16.5-25.5-27.8-21.5c-11.4-4-24.1,6.2-27.8,21.5c-0.7,3-1.1,7.8,0.9,10.2c2.1,2.4,11.6,12.4,12.6,14.2
							c-3.4-10.6-1.3-27.2,5.1-29.3c-2.5,2-5.5,7.2-4.8,10.9c3-1.6,5.6-2.2,8.3-2.4c-0.9-3.3,0.2-5.7,1.9-7.8
							c-1,5.5-0.6,6.7,0.3,7.7c-0.3-2.3,1.4-6.7,3.4-8C629.4,184.1,631,188.6,631,190.9z"/>
						<path class="st12" d="M628.6,172.5c1.1-0.3,2.7,0,4,0.6c-0.9,0.4-3,0.5-3.7,2.3c4.5,0,8.8,2.4,11.1,4.7c-1-2.2-3.5-4-5.5-4.7
							c4,0.2,6.9,2,9.8,4.4c-1.1-3.8-5.3-6.4-8.5-7.1c1-0.6,2.8-0.5,7.2,0.7C638.8,169.3,630.1,167.1,628.6,172.5z"/>
						<path class="st12" d="M626.1,172.5c-1.1-0.3-2.7,0-4,0.6c0.9,0.4,3,0.5,3.7,2.3c-4.5,0-8.8,2.4-11.1,4.7c1-2.2,3.5-4,5.5-4.7
							c-4,0.2-6.9,2-9.8,4.4c1.1-3.8,5.3-6.4,8.5-7.1c-1-0.6-2.8-0.5-7.2,0.7C615.9,169.3,624.6,167.1,626.1,172.5z"/>
					</g>
				</g>
			</g>
			<g>
				<g>
					<path class="st31" d="M382.3,223.4c4.5,2.6,9.4,3.8,16.2,6c3.9,1.2,7.1,6.2,7.9,11.5l3.2,18.3h-35.3H339l3.2-18.3
						c0.8-5.2,4-10.3,7.9-11.5c6.8-2.2,11.6-3.4,16.2-6c2.3-1.3,4.9-1.9,8-2.5C377.4,221.5,379.9,222.1,382.3,223.4z"/>
					<path class="st32" d="M374.3,231.1c-3.6,0-8.2-1.8-8.4-6.1c0.8-2.6,1.1-5,1-11.7h7.4h7.4c-0.1,6.7,0.2,9.1,1,11.7
						C382.5,229.3,377.9,231.2,374.3,231.1z"/>
					<path class="st33" d="M409.6,259.2l-3.2-18.3c-0.9-5.2-4-10.3-7.9-11.5c-1.6-0.5-3.1-1-4.5-1.4c-0.9,5.4-2.1,7.5-2.5,10.8
						c-4.8-0.1-11.5-0.7-17.2-0.7s-12.4,0.6-17.2,0.7c-0.4-3.2-1.6-5.3-2.5-10.8c-1.4,0.4-2.9,0.9-4.5,1.4c-3.9,1.2-7,6.3-7.9,11.5
						l-3.2,18.3h35.3H409.6z"/>
					<path class="st31" d="M397,259.2h12.5l-3.2-18.3c-0.8-5.2-4-10.3-7.9-11.5C397.8,235.1,396.3,251.2,397,259.2z"/>
					<path class="st31" d="M351.5,259.2H339l3.2-18.3c0.8-5.2,4-10.3,7.9-11.5C350.7,235.1,352.2,251.2,351.5,259.2z"/>
				</g>
				<g>
					<g>
						<path class="st31" d="M354.6,203.3c0.5,3,2.7,6.3,6,9.6c2.8,2.8,11.3,8,13.7,8s11-5.2,13.7-8c3.3-3.3,5.4-6.5,6-9.5
							c3.2-17.3-7.9-27.3-19.7-27.3S351.3,186.2,354.6,203.3z"/>
						<g>
							<g>
								<path class="st34" d="M371.2,204c0.1-2.1,1.6-2.9,3.1-2.9s3,0.8,3.1,2.9c-0.4-1.4-1.8-2.1-3.1-2.1S371.5,202.6,371.2,204z"
									/>
								<path class="st35" d="M371.7,204.1c-0.4-0.7,0.7-1.9,2.6-1.9c1.9-0.1,3,1.2,2.7,1.9c-0.2,0.4-1.6-0.5-2.7-0.5
									S371.8,204.4,371.7,204.1z"/>
								<path class="st35" d="M389.7,201.4c0-0.8-1.3-2.2-4.6-0.9c-3.3,1.2-3.2,3.7-2.7,4.6c0.4,0.8,3-0.3,5-1.4
									C389.4,202.6,389.7,202,389.7,201.4z"/>
								<path class="st35" d="M358.8,201.4c0-0.8,1.3-2.2,4.6-0.9c3.3,1.2,3.2,3.7,2.7,4.6c-0.4,0.8-3-0.3-5-1.4
									C359.1,202.6,358.8,202,358.8,201.4z"/>
							</g>
							<g>
								<path class="st9" d="M367.1,208.1c1.8,0.8,4.3,1.5,7.1,1.5c2.4,0,5-0.5,7.2-1.5c-1.1,1.1-4.6,2.7-7.1,2.7
									C371.7,210.8,368.3,209.2,367.1,208.1z"/>
								<path class="st35" d="M370.6,211.1c-0.5,0.6,1.1,1.7,3.7,1.7c2.6,0,4.1-1.2,3.7-1.7c-0.3-0.3-2.2,0.4-3.7,0.4
									C372.7,211.5,370.8,210.9,370.6,211.1z"/>
								<path class="st34" d="M378.4,211.3c-0.5,1.6-3,2-4.2,2s-3.8-0.5-4.2-2c0.9,1.4,3.3,1.6,4.2,1.6
									C375.2,212.9,377.6,212.8,378.4,211.3z"/>
							</g>
							<g>
								<path class="st4" d="M381.2,198.3c0.2-1.2,1.2-1.4,1.3-1.4c2-0.6,4.7-0.1,5,1.4c-1.8,0-3,1.6-4.4,1.8
									C382.2,200.2,381,199.4,381.2,198.3z"/>
								<path class="st9" d="M387.4,192.6c0.1,0.8-1.2,0.7-2.4,0.7s-3,0.5-2.9-0.2C382.2,191.6,387.3,190.8,387.4,192.6z"/>
								<path class="st36" d="M384.4,198.7c0.2-0.8-0.4-1.7-1.3-1.8c-0.8-0.2-1.7,0.4-1.8,1.3c-0.2,0.8,0.4,1.7,1.3,1.8
									C383.5,200.1,384.3,199.5,384.4,198.7z"/>
								<path class="st4" d="M383.4,197.8c0.1-0.4-0.2-0.8-0.6-0.9c-0.4-0.1-0.8,0.2-0.9,0.6c-0.1,0.4,0.2,0.8,0.6,0.9
									S383.3,198.2,383.4,197.8z"/>
								<path class="st11" d="M387.9,196.6c-2.1-1.4-6.5-1.1-7,1.6c1-2.5,6.4-1.5,6.8,0.5C389.4,198.5,389.1,197.3,387.9,196.6z"/>
							</g>
							<g>
								<path class="st4" d="M367.3,198.3c-0.2-1.2-1.2-1.4-1.3-1.4c-2-0.6-4.7-0.1-5,1.4c1.8,0,3,1.6,4.4,1.8
									C366.3,200.2,367.5,199.4,367.3,198.3z"/>
								<path class="st9" d="M361.1,192.6c-0.1,0.8,1.2,0.7,2.4,0.7s3,0.5,2.9-0.2C366.3,191.6,361.2,190.8,361.1,192.6z"/>
								<path class="st36" d="M364.1,198.7c-0.2-0.8,0.4-1.7,1.3-1.8c0.8-0.2,1.7,0.4,1.8,1.3c0.2,0.8-0.4,1.7-1.3,1.8
									S364.2,199.5,364.1,198.7z"/>
								<path class="st4" d="M365.1,197.8c-0.1-0.4,0.2-0.8,0.6-0.9c0.4-0.1,0.8,0.2,0.9,0.6c0.1,0.4-0.2,0.8-0.6,0.9
									C365.6,198.5,365.2,198.2,365.1,197.8z"/>
								<path class="st11" d="M360.6,196.6c2.1-1.4,6.5-1.1,7,1.6c-1-2.5-6.4-1.5-6.8,0.5C359.1,198.5,359.4,197.3,360.6,196.6z"/>
							</g>
						</g>
					</g>
					<g>
						<g>
							<path class="st37" d="M346.7,184.6c-1.7,4.1-3.6,9.7,0,14.3c2.8,3.6,5.7,7.2,6,10c2.3,1.3,3.2,0.6,4.3-0.6
								c-2.4-9.3,2.4-24,8.3-26c-2.5,2-5.5,7.2-4.8,10.9c3-1.6,5.6-2.2,8.3-2.4c-0.9-3.3,0.2-5.7,1.9-7.8c-1,5.5-0.6,6.7,0.3,7.7
								c-0.3-2.3,1.4-6.7,3.4-8c2,1.3,3.6,5.7,3.4,8c0.9-1,1.3-2.3,0.3-7.7c1.7,2.2,2.8,4.5,1.9,7.8c2.7,0.2,5.4,0.8,8.3,2.4
								c0.7-3.7-2.3-8.8-4.8-10.9c5.9,2,10.7,16.7,8.3,26c1.1,1.2,2,1.9,4.3,0.6c0.3-2.8,3.2-6.4,6-10c3.6-4.6,1.7-10.1,0-14.3
								c-6-14.5-16.5-22.8-27.8-18.8C362.9,161.9,352.4,170.1,346.7,184.6z"/>
							<path class="st38" d="M373,172.5c-1.1-0.3-2.7,0-4,0.6c0.9,0.4,3,0.5,3.7,2.3c-4.5,0-8.8,2.4-11.1,4.7c1-2.2,3.5-4,5.5-4.7
								c-4,0.2-6.9,2-9.8,4.4c1.1-3.8,5.3-6.4,8.5-7.1c-1-0.6-2.8-0.5-7.2,0.7C362.8,169.3,371.5,167.1,373,172.5z"/>
							<path class="st38" d="M375.5,172.5c1.1-0.3,2.7,0,4,0.6c-0.9,0.4-3,0.5-3.7,2.3c4.5,0,8.8,2.4,11.1,4.7c-1-2.2-3.5-4-5.5-4.7
								c4,0.2,6.9,2,9.8,4.4c-1.1-3.8-5.3-6.4-8.5-7.1c1-0.6,2.8-0.5,7.2,0.7C385.7,169.3,377,167.1,375.5,172.5z"/>
						</g>
						<g>
							<path class="st37" d="M350.6,234.3c-0.6,1-0.1,2.1-1.5,3c0-2.1-2-4.8,0.4-7.4c1.1-1.2,3.1-1.5,4.8-1.3
								c3.9,0.4,6.5,4.8,2.9,8.3c0.5-2.1,0.5-2.3,0.3-3.4c-0.1,4.4-2.4,5.5-4.6,6.1c0.2-0.5,1.2-2.5,0.9-3.4
								c-0.9,2.7-1.7,2.7-1.9,4.1C351.1,239.5,349.9,236.3,350.6,234.3z"/>
							<path class="st38" d="M355,236.6c0.5-2.1-0.5-4-0.9-4.6c-0.1,0.9,0,4.2-2.4,6c0.4-0.9,0.8-4.6,0.5-5.5
								c-0.2-0.8-0.5-3.2,2.5-3.2C357.2,229.8,357.9,232.8,355,236.6z"/>
							<path class="st39" d="M350.9,228.3c0.1-1,1.6-1.7,3.2-1.5c1.6,0.2,2.8,1.2,2.7,2.2c-0.1,1-1.6,1.7-3.2,1.5
								C352,230.3,350.7,229.4,350.9,228.3z"/>
							<path class="st37" d="M351.5,218.9c-2.3,2.5-3.6,9.2,2.2,9.9c6.9,0.8,6.6-6.5,4.5-9.1c1.1-0.7,3-3.2,3.3-5.9
								c-0.3-0.3-0.6-0.6-0.9-0.9c-1.7-1.8-3.2-3.5-4.2-5.2c-1-0.1-2.1,0.1-3,0.4C348.8,209.6,349.3,216.8,351.5,218.9z"/>
							<path class="st40" d="M354.9,222.6c0.7-1.3,1.7-1.8,2.3-2c0,0-2.3,1.2-3,6.6c0-0.5-0.2-3.3-2.8-5.2c1.9,0.1,2.3,0.7,2.8,1.5
								c-0.1-1.5-0.5-3.1-1.6-3.6C353.7,220,355.1,221.3,354.9,222.6z"/>
							<path class="st40" d="M356.7,209.6c-1.2-0.1-2.2,0.8-2.6,2.9c-0.4-0.6-0.8-1.8-0.6-3c-1.1,1.2-0.8,4.7,0.3,7.1
								c-1.4-1.7-1.8-2.7-1.7-5.5c-1.7,3.2,0.7,6.4,3.1,7.5C353.7,216.8,354.8,209.4,356.7,209.6z"/>
							<path class="st38" d="M355.5,213.2c0.6,0.3,1.4,1.6,1.6,2.7c1.7-1.7,0-2.6,0.7-4.9c1.4,1.2,2.2,2.8,2,4.3
								c-0.3,1.8-1,3.6-3.5,3.5C356.8,218.1,354.6,217.4,355.5,213.2z"/>
							<path class="st38" d="M358.2,220.9c1.2,1.9,1,6.6-2.4,7.2C354.4,226.4,356.5,221.2,358.2,220.9z"/>
							<path class="st38" d="M350.7,222c-2.1,2.5-0.2,6.3,2.7,6.3C355.2,227,352.3,222.7,350.7,222z"/>
						</g>
						<g>
							<path class="st37" d="M397.9,234.3c0.6,1,0.1,2.1,1.5,3c0-2.1,2-4.8-0.4-7.4c-1.1-1.2-3.1-1.5-4.8-1.3
								c-3.9,0.4-6.5,4.8-2.9,8.3c-0.5-2-0.5-2.3-0.3-3.4c0.1,4.4,2.4,5.5,4.6,6.1c-0.2-0.5-1.2-2.5-0.9-3.4
								c0.9,2.7,1.7,2.7,1.9,4.1C397.4,239.5,398.6,236.3,397.9,234.3z"/>
							<path class="st38" d="M393.5,236.6c-0.5-2.1,0.5-4,0.9-4.6c0.1,0.9,0,4.2,2.4,6c-0.4-0.9-0.8-4.6-0.5-5.5
								c0.2-0.8,0.5-3.2-2.5-3.2C391.3,229.8,390.6,232.8,393.5,236.6z"/>
							<path class="st39" d="M397.6,228.3c-0.1-1-1.6-1.7-3.2-1.5c-1.6,0.2-2.8,1.2-2.7,2.2c0.1,1,1.6,1.7,3.2,1.5
								S397.8,229.4,397.6,228.3z"/>
							<path class="st37" d="M397,218.9c2.3,2.5,3.6,9.2-2.2,9.9c-6.9,0.8-6.6-6.5-4.5-9.1c-1.1-0.7-3-3.2-3.3-5.9
								c0.3-0.3,0.6-0.6,0.9-0.9c1.7-1.8,3.2-3.5,4.2-5.2c1-0.1,2.1,0.1,3,0.4C399.7,209.6,399.2,216.8,397,218.9z"/>
							<path class="st40" d="M393.6,222.6c-0.7-1.3-1.7-1.8-2.3-2c0,0,2.3,1.2,3,6.6c0-0.5,0.2-3.3,2.8-5.2
								c-1.9,0.1-2.3,0.7-2.8,1.5c0.1-1.5,0.5-3.1,1.6-3.6C394.8,220,393.4,221.3,393.6,222.6z"/>
							<path class="st40" d="M391.8,209.6c1.2-0.1,2.2,0.8,2.6,2.9c0.4-0.6,0.8-1.8,0.6-3c1.1,1.2,0.8,4.7-0.3,7.1
								c1.4-1.7,1.8-2.7,1.7-5.5c1.7,3.2-0.7,6.4-3.1,7.5C394.8,216.8,393.7,209.4,391.8,209.6z"/>
							<path class="st38" d="M393,213.2c-0.6,0.3-1.4,1.6-1.6,2.7c-1.7-1.7,0-2.6-0.7-4.9c-1.4,1.2-2.2,2.8-2,4.3
								c0.3,1.8,1,3.6,3.5,3.5C391.7,218.2,394,217.4,393,213.2z"/>
							<path class="st38" d="M390.3,220.9c-1.2,1.9-1,6.6,2.4,7.2C394.1,226.4,392,221.2,390.3,220.9z"/>
							<path class="st38" d="M397.8,222c2.1,2.5,0.2,6.3-2.7,6.3C393.3,227,396.2,222.7,397.8,222z"/>
						</g>
					</g>
				</g>
			</g>
			<g>
				<g>
					<g>
						<path class="st41" d="M660.7,229.1c-3.9,1.2-7.2,6.2-7.9,11.5l-0.8,5.5l-1.9,13.2h34.7h34.7l-1.9-13.2l-0.8-5.5
							c-0.7-5.3-4-10.3-7.9-11.5c-10.3-3.4-14.9-9.1-24.2-10.9C675.4,220,670.8,225.7,660.7,229.1z"/>
						<path class="st5" d="M684.7,226.9c3.7,0,8.4-1.6,8.6-5.6c-0.8-2.5-1.1-5-1-11.4h-7.6l0,0h-7.6c0.1,6.4-0.1,8.9-1,11.4
							C676.3,225.4,681,226.9,684.7,226.9z"/>
						<path class="st17" d="M693.3,221.3c-0.4,3.9-4.9,5.6-8.6,5.6c-3.6,0-8.2-1.7-8.6-5.6c-0.5,0.3-1.1,0.6-1.6,0.9
							c1,4.2,5.2,6.3,10.2,6.3s9.2-2.1,10.2-6.3C694.4,221.9,693.8,221.6,693.3,221.3z"/>
					</g>
					<g>
						<polygon class="st14" points="719.4,259.2 717.6,246.1 708.1,245.9 706.9,259.2 						"/>
						<path class="st17" d="M707.9,248.9c3.6-2.2,7-2.9,9.7-2.9c-0.3-1.8-0.5-3.7-0.8-5.5c-0.7-5.3-4-10.3-7.9-11.5
							C708.9,234,708.3,243.6,707.9,248.9z"/>
					</g>
					<g>
						<polygon class="st14" points="649.9,259.2 651.8,246.1 661.3,245.9 662.4,259.2 						"/>
						<path class="st17" d="M661.5,248.9c-3.6-2.2-7-2.9-9.7-2.9c0.3-1.8,0.5-3.7,0.8-5.5c0.7-5.3,4-10.3,7.9-11.5
							C660.4,234,661.1,243.6,661.5,248.9z"/>
					</g>
				</g>
				<g>
					<g>
						<g>
							<path class="st14" d="M666,195.9c-2-0.3-3.5,0.4-3.9,2.3c-0.5,2.5,1.1,6.4,5.1,6.2c1.5,5.1,5.1,9.3,10.6,12.6
								c2.4,1.4,4,2.9,6.9,2.9c2.9,0,4.6-1.5,6.9-2.9c5.5-3.3,9.1-7.5,10.6-12.6c4,0.2,5.6-3.7,5.1-6.2c-0.4-1.9-1.9-2.6-3.9-2.3
								c0.1-12.5-3.9-21.6-18.7-21.5C669.9,174.3,665.9,183.4,666,195.9z"/>
							<path class="st18" d="M702.7,202.6c-0.1,0.7,1.3,0.2,1.9-0.4c1.1-1.1,1.3-2.5,0.9-3.2c-0.5-0.9-1.9-1-2.4,0
								c-0.3,0.6-0.1,1.2,0.3,1.6C703.8,201,702.8,202.1,702.7,202.6z"/>
							<path class="st18" d="M666.7,202.6c0.1,0.7-1.3,0.2-1.9-0.4c-1.1-1.1-1.3-2.5-0.9-3.2c0.5-0.9,1.9-1,2.4,0
								c0.3,0.6,0.1,1.2-0.3,1.6C665.6,201,666.6,202.1,666.7,202.6z"/>
						</g>
						<g>
							<g>
								<path class="st7" d="M681.7,202.9c0.2-1.7,1.6-2.3,3-2.3c1.4,0,2.9,0.6,3,2.3c-0.4-1.1-1.8-1.7-3-1.7
									S682.1,201.8,681.7,202.9z"/>
								<path class="st5" d="M682.2,203.2c-0.4-0.5,0.7-1.7,2.5-1.7s2.8,1.1,2.5,1.7c-0.2,0.4-1.5-0.4-2.5-0.4
									C683.6,202.8,682.3,203.4,682.2,203.2z"/>
								<path class="st42" d="M699,201.3c-0.4-0.8-1.8-2.1-4.8-1.6s-4.7,3.2-4.2,4c0.5,0.9,3.4,0.1,6-0.6
									C698.6,202.5,699.5,202.1,699,201.3z"/>
								<path class="st42" d="M670.2,202.3c0.4-0.8,1.8-2.1,4.8-1.6s4.7,3.2,4.2,4c-0.5,0.9-3.4,0.1-6-0.6
									C670.6,203.4,669.7,203,670.2,202.3z"/>
							</g>
							<g>
								<path class="st42" d="M682.4,210.4c-0.4,0.4,0.9,1.2,2.9,1.1c2.1-0.1,3.1-1,2.8-1.4c-0.2-0.3-1.6,0.3-2.8,0.4
									C684.2,210.5,682.7,210.2,682.4,210.4z"/>
								<path class="st7" d="M688.5,210.3c-0.2,1.1-2.2,1.6-3.1,1.6c-0.9,0-2.9-0.2-3.3-1.3c0.7,1,2.6,1,3.3,1
									C686.1,211.5,687.9,211.3,688.5,210.3z"/>
								<path class="st9" d="M679.6,208.3c1.3,0.3,2.6,0.8,5.1,0.8c2.4,0.1,4.8-0.9,7.1-2.5c-2.1,2.2-4.9,3.7-7.1,3.7
									C682.6,210.3,681.2,209.1,679.6,208.3z"/>
							</g>
							<g>
								<path class="st43" d="M697.6,194.4c-0.3,0.8-1.4,0.1-2.5-0.4c-1.1-0.5-2.9-0.9-2.5-1.5C693.4,191.2,698.3,192.7,697.6,194.4
									z"/>
								<path class="st10" d="M696.5,196.9c-1.5-1.8-5.2-1-6,0.8c1.4-1.8,5.9-1.3,5.5,1.3C696.8,198.6,697.1,197.6,696.5,196.9z"/>
								<path class="st4" d="M692.3,196.7c-0.7,0.1-1.2,0.5-1.4,1.1c-0.2,0.5,0,1.4,0.7,1.7c1.7,0.7,2.8-0.3,4.4-0.5
									C696.3,197.1,694,196.3,692.3,196.7z"/>
								<path class="st25" d="M693.7,198.2c0-0.8-0.6-1.4-1.4-1.4s-1.4,0.6-1.4,1.4c0,0.8,0.6,1.4,1.4,1.4
									C693,199.6,693.7,199,693.7,198.2z"/>
								<path class="st4" d="M692.6,197.6c0-0.4-0.3-0.7-0.7-0.7s-0.7,0.3-0.7,0.7s0.3,0.7,0.7,0.7
									C692.3,198.3,692.6,198,692.6,197.6z"/>
							</g>
							<g>
								<path class="st43" d="M671.8,194.4c0.3,0.8,1.4,0.1,2.5-0.4c1.1-0.5,2.9-0.9,2.5-1.5C676,191.2,671.1,192.7,671.8,194.4z"/>
								<path class="st10" d="M672.9,196.9c1.5-1.8,5.2-1,6,0.8c-1.4-1.8-5.9-1.3-5.5,1.3C672.5,198.6,672.3,197.6,672.9,196.9z"/>
								<path class="st4" d="M677.1,196.7c0.7,0.1,1.2,0.5,1.4,1.1c0.2,0.5,0,1.4-0.7,1.7c-1.7,0.7-2.8-0.3-4.4-0.5
									C673.1,197.1,675.3,196.3,677.1,196.7z"/>
								<path class="st25" d="M675.7,198.2c0-0.8,0.6-1.4,1.4-1.4s1.4,0.6,1.4,1.4c0,0.8-0.6,1.4-1.4,1.4S675.7,199,675.7,198.2z"/>
								<path class="st4" d="M676.7,197.6c0-0.4,0.3-0.7,0.7-0.7c0.4,0,0.7,0.3,0.7,0.7s-0.3,0.7-0.7,0.7S676.7,198,676.7,197.6z"/>
							</g>
						</g>
					</g>
					<g>
						<path class="st44" d="M707.9,177.4c-0.2,1.1-0.5,1.5-1.2,2c0.7-4.6-1.8-7.5-4.6-9.5c0.9,0.8,1.6,2,1.8,3
							c-0.4-1.5-3.2-3.3-4.6-3.9c-3.3-1.5-9.9-3.1-10.7-5.6c-0.2,1.7,1.3,2.8,2,2.9c-2.3,0.3-6.7-1.5-7.1-3.6
							c0.1,1.6,0.8,2.7,2.4,3.5c-4.9-0.2-9.4-0.5-12.7-2.6c0.8,1.2,2.7,2,4,2.5c-2.1,0-5.9-0.5-10.6-3.2c0.5,1.2,1.3,2.2,2.6,3.1
							c-2.7-0.7-4.2-2.9-4.4-3.8c-2.9,5.8-2.4,9.1-0.7,12.5c-1-0.4-1.9-1.5-2.1-3.4c-1.2,5.6-0.8,10.4,1,13.1
							c-0.7-0.3-1.2-1.3-1.9-3c-0.6,7.1-1.2,11,6.1,19c-1.7-7.8-0.5-12.4,2.5-17c1.7,1.8,8.6,2.9,16,1.3c3.9-0.8,8.4-2.5,12-4.5
							c1.6,6.1,4,7.4,2.7,11.5c0.8-0.7,2.1-1.9,2-3.1c1.6,4.7,0.8,9.5-0.4,11.9C710.9,193.2,711.5,188.8,707.9,177.4z"/>
						<path class="st45" d="M665.3,166.7c-0.4,7.1,7.2,12.6,16.1,12.6c4.3,0,9.1-0.8,12.3-3.2c-3.2,2-7.8,2.6-12,2.1
							c-3.4-0.4-6.5-1.4-8.7-2.8c3.8,0.8,8.9,0.7,12.1-0.7c0.6-0.3,1.2-0.6,1.6-0.9c-6.2,2-9.4,1-11.3,0.2c5.6,0,9.2-1.2,13.6-3.4
							c-3,1.1-10.9,2.9-15.6,1.2C671,170.9,668,169.9,665.3,166.7z"/>
					</g>
				</g>
			</g>
		</g>
		<g>
			<path class="st1" d="M839.4,241.9c-0.6-17.3-44.6-91.7-63.1-91.7h-28.5c-9.5,0-17.3,7.8-17.3,17.3v74.4c0,9.5,7.8,17.3,17.3,17.3
				h74.4C831.7,259.2,839.8,251.4,839.4,241.9z"/>
			<g>
				<g>
					<g>
						<path class="st25" d="M733.4,184.4c0.6,3.4,2.6,6.6,4.4,9.8c5.1,8.9,12.5,10.1,13.3,13.8c4.6-1.5,16.2-9.8,21.1-24.3
							c4-14.4-3.5-23-17.4-20.7C736.7,166.1,731.8,175.3,733.4,184.4z"/>
						<path class="st5" d="M765.5,225.5c-3.6,0.6-16-6.1-15.8-10.2c0.2-2,0.2-11.5,0.2-13.7h16.7c0,1.7-0.2,15.3,0.6,16.2
							C769,221.7,768.4,224.8,765.5,225.5z"/>
					</g>
					<g>
						<g>
							<path class="st14" d="M749.1,201.9c-8.8,0-7.3-10.8-1.7-8.5c-2.7-12.4,2.3-18.2,14.2-21.2c11.5-2.6,14.4,2.7,16.8,15.4
								c2.6,1.7,4,6.9,1.8,12.2c-2.3,5.4-5.1,11-8.7,12.8C764.4,212.5,752.4,209.2,749.1,201.9z"/>
							<path class="st25" d="M754.4,190.1c-1.7-3.2,13.9-8.9,13.1-13.9c4.8-2.7,9.2,4.2,9.9,6.8c6.8-7-6.7-19-18-15.1
								c-14.6,5.4-25.4,14.9-10.4,28.2c3.6-2.8-2.8-10.7,3.7-14.6C750.9,184.6,752.2,189,754.4,190.1z"/>
							<path class="st7" d="M747.4,199.8c0.1,0.7-1.3,0.2-1.9-0.4c-1.1-1.1-1.3-2.5-0.9-3.2c0.5-0.9,1.9-1,2.4,0
								c0.3,0.6,0.1,1.2-0.3,1.6C746.3,198.2,747.2,199.3,747.4,199.8z"/>
						</g>
						<g>
							<g>
								<path class="st9" d="M757.9,188.6c0.4,0.7,1.4-0.1,2.4-0.8c1-0.6,2.7-1.3,2.3-1.8C761.6,184.8,756.9,187,757.9,188.6z"/>
								<path class="st10" d="M759.4,190.9c1.2-2,4.9-1.7,6,0c-1.7-1.7-6.1-0.5-5.3,2C759.2,192.7,758.8,191.7,759.4,190.9z"/>
								<path class="st4" d="M763.5,190.1c0.8,0.1,1.3,0.4,1.6,0.9c0.2,0.5,0.1,1.4-0.5,1.8c-1.7,0.9-2.9,0-4.5,0.1
									C759.5,191.1,761.6,190,763.5,190.1z"/>
								<path class="st25" d="M762.3,191.8c-0.1-0.8,0.4-1.5,1.2-1.6s1.5,0.4,1.6,1.2s-0.4,1.5-1.2,1.6S762.4,192.6,762.3,191.8z"/>
								<path class="st4" d="M763.5,191.5c-0.1-0.4,0.2-0.7,0.6-0.8c0.4-0.1,0.7,0.2,0.8,0.6c0.1,0.4-0.2,0.7-0.6,0.8
									C763.9,192.2,763.5,191.9,763.5,191.5z"/>
							</g>
							<g>
								<path class="st7" d="M775.6,194.6c-0.3-1.7-1.6-1.9-2.7-1.6c-1.2,0.4-2,1.5-1.9,3.5c0.1-1.4,1.1-2.6,2-3
									C774,193.2,774.9,192.9,775.6,194.6z"/>
								<path class="st5" d="M775.3,195c0.3-0.7-0.6-1.9-1.9-1.4s-2.3,2.5-2,3c0.1,0.3,1-0.9,1.8-1.2
									C774,195.1,775.3,195.3,775.3,195z"/>
								<path class="st42" d="M780,189.7c-0.2-0.9-1.3-2.1-2.5,0c-1.2,2-0.9,3.1-0.5,4.2c0.3,1,1.4-0.5,2.1-1.7
									C779.9,191,780.2,190.5,780,189.7z"/>
								<path class="st42" d="M756.4,196c0.3-0.9,1.5-2.6,5.2-2.1c3.8,0.5,5.3,3.1,4.8,4.2c-0.5,1.1-2.5,0-5.7-0.8
									C757.6,196.6,756.2,196.9,756.4,196z"/>
							</g>
							<g>
								<path class="st42" d="M774.8,201.4c0.3,0.3,0.2,1.5-1.4,2.3c-1.6,0.8-3.8-0.2-3.6-0.8c0.1-0.4,1.6,0.1,3.1-0.4
									S774.6,201.2,774.8,201.4z"/>
								<path class="st7" d="M770.3,203.9c1.4,1.2,4.4,0.9,4.8-1.2C774.1,204.1,772,204.9,770.3,203.9z"/>
								<path class="st7" d="M766.7,202.1c3.3,0,6.7,0,9.2-2.7C774.6,202.7,769.5,202.6,766.7,202.1z"/>
							</g>
							<g>
								<path class="st9" d="M777.4,183.7c0,0.8-0.9,0.5-1.8,0.4s-1.7,0.4-1.6-0.3C774.2,182.3,777.4,182.3,777.4,183.7z"/>
								<path class="st4" d="M774.7,187.1c-0.3,0.4-0.5,1-0.5,1.6c0,0.5,0.6,1,1,1c1.2,0.1,1.1-1.2,1.9-1.9
									C777.1,185.4,775.6,186.1,774.7,187.1z"/>
								<path class="st10" d="M776.9,185.9c-1.2-1.1-2.9,1-3,3c0.7-2.7,3.2-3.4,3.2-1.1C777.5,187.1,777.4,186.3,776.9,185.9z"/>
								<path class="st25" d="M776.5,187.3c-0.2-0.7-0.7-1.1-1.2-0.8c-0.5,0.3-0.7,1.2-0.5,1.9s0.7,1.1,1.2,0.8
									S776.7,188.1,776.5,187.3z"/>
								<path class="st4" d="M776.3,187.2c-0.1-0.4-0.4-0.5-0.6-0.4c-0.2,0.1-0.3,0.5-0.2,0.9c0.1,0.4,0.4,0.5,0.6,0.4
									C776.4,188,776.5,187.6,776.3,187.2z"/>
							</g>
						</g>
					</g>
					<g>
						<path class="st10" d="M779.9,179.7c-4.7,3.8-16.8,6.6-29.1,2.8l24.1-12.1C780.7,173.3,784.4,176.1,779.9,179.7z"/>
						<path class="st4" d="M729.3,178.4c-1.6-1-2-2.5,1.1-5.5c5.4-5.2,17.2-12.5,26.7-15.9c6.9-2.4,12.9-3.1,15.4-3.1
							c7.3,0,1.1,5.8,0.8,10c0.8,8-23.8,15.6-41.6,15.3C730.9,178.8,730,178.7,729.3,178.4z"/>
						<path class="st46" d="M767.3,176.9c3.9-1.9,6.7-4.1,7.5-6.5l-1.5-6.5c-0.2,2.3-2.8,4.4-7.5,6.4c-7.3,3-18.6,6.9-34.1,8.9
							l1.8,5.3C743.1,184.6,757.7,181.7,767.3,176.9z"/>
						<path class="st47" d="M767.4,174.2c-4.6,2.4-10.7,4.4-15.8,5.5l-0.4-1.8c4.9-1.1,10.9-3.1,15.4-5.4c3.5-1.8,6.3-4.2,6.8-6
							l0.9,2.4C773.1,170.8,770.6,172.6,767.4,174.2z"/>
						<path class="st48" d="M753.4,178.8c0-1.1-0.9-2-2-2c-1.1,0-2,0.9-2,2s0.9,2,2,2S753.4,179.9,753.4,178.8z"/>
						<path class="st48" d="M773.7,165.3c-1,0.2,0,4.3,0.9,3.9C776.2,168.4,775.1,164.8,773.7,165.3z"/>
					</g>
				</g>
				<g>
					<g>
						<path class="st49" d="M805.3,252.3c-1.7-0.3-4.1-1.2-6.5-1.2c-3.2,0-5.8,0.5-7.3-2.6c-1.7-3.7,0.7-5.4,1.6-6
							c1.4-0.5,4.8-1,8.4-1.8c3.8-0.8,7.8-2.1,9.1-2.2c3.3,0.5,5.4,2.2,7.9,3.9c0.9,1.3,0.8,7.6-1.6,7.2c-0.9-0.2-1.1-2.4-1-3.8
							c-1.6-0.1-1.8-1-2.9-1.5c-0.8,0.2-1.6,0.8-2.8,1.9c0,1.1,1.2,2.3,2,2.9c1.2,0.9,3.7,0.4,3.4,3.9c-1.9,0.2-3.9-0.9-6.3-0.6
							C807,252.7,806.9,252.2,805.3,252.3z"/>
						<path class="st50" d="M780.5,238.3c-2.8-4.8-6.4-13.5-8.9-15.9c-4.7-4.6-9.2-3.8-12.7,0.4c-1.6,2-1.6,6-0.3,8.9
							c3.8,8.6,13.5,22.8,17.9,23.6c8.1,0.9,17.2,0.9,26.3-0.6l0.7-15.1C797.8,239.6,786.9,238.6,780.5,238.3z"/>
					</g>
					<g>
						<g>
							<path class="st51" d="M771.1,220.9c-1.1-1.1-2.9-3-4.4-5.1c0.2,1.8-0.1,2.2-1.2,2.5c-1.2,0.3-7.9,0.2-15.8-5.8
								c-1.7,2.7-4.4,5.9-5.8,7.2c-5.6,5.2-7.8,8.4-7.9,12.4c0,2.5-0.5,24.6-0.4,27.1H778C779.2,241.5,777.8,227.7,771.1,220.9z"/>
							<path class="st52" d="M765.8,218.3c1.4,2.2,4.3,9.9,5.4,15.4c1.5,7.7,1.8,21.2,1.8,25.6h-0.6c0-4.4-0.3-17.8-1.8-25.5
								c-1.1-5.5-4-13.2-5.3-15.4L765.8,218.3z"/>
							<path class="st48" d="M770.2,235.6c-0.1-0.6-0.5-1.1-0.9-1c-0.4,0.1-0.6,0.7-0.5,1.3c0.1,0.6,0.5,1.1,0.9,1
								C770.1,236.8,770.3,236.2,770.2,235.6z"/>
						</g>
						<g>
							<path class="st53" d="M751.3,220.4c-2-1.4-3.3-2-5.5-3c-2.1,1.8-4.6,4.2-6.3,6.2c2.4,0.3,3.6,0.8,5.9,1.7
								C746.7,224.3,749.3,221.8,751.3,220.4z"/>
							<path class="st4" d="M746,218.3c-1.7,1.5-3.5,3.1-5,4.8c1.4,0.3,2.7,0.8,4.3,1.4c1.6-1.3,3.1-2.7,4.7-4
								C748.7,219.6,747.5,219,746,218.3z"/>
						</g>
						<g>
							<path class="st4" d="M760.7,227.5c2.3-3.3,4-6.9,4.9-9.2c-4.2-0.3-14.7-6-15.8-8.5c0,1.6-1.4,4.4-2.2,5.2
								C747.6,219.3,758.3,225.3,760.7,227.5z"/>
							<path class="st4" d="M766.7,214.9c1,1.7,1.5,2.4,2.2,3.2c0.8,1.3,2.4,4.9,2.6,7.5c-1.9-2.7-4.3-5.4-5.9-7.3
								C766.7,217.8,766.9,216.6,766.7,214.9z"/>
							<path class="st54" d="M766.3,217.8c1.4,1.7,2.9,3.5,4.1,5.1c-0.3-1.7-1.4-4.1-2.4-6c0.3,0.4,0.6,0.8,0.9,1.2
								c0.8,1.3,2.4,4.9,2.6,7.5c-1.9-2.7-4.3-5.4-5.9-7.3C765.9,218.2,766.1,218,766.3,217.8z"/>
							<path class="st54" d="M760.6,227.5c0.6-0.9,1.2-1.7,1.7-2.5c1.2-1.8,2.4-4.7,3.2-6.7c-0.4,0-0.7-0.1-1.1-0.2
								c-1.2,2.2-2.6,5.4-4,7.5c-3.9-3.7-9.8-6.2-12.4-11.2c-0.1,0.1-0.4,0.5-0.5,0.6c0,0.2,0.1,0.4,0.1,0.6c0.6,3,5.7,6.7,9.5,9.3
								C758.7,226,760,226.9,760.6,227.5z"/>
						</g>
					</g>
					<g>
						<rect x="808.1" y="218.5" class="st27" width="7" height="40.7"/>
						<path class="st55" d="M814.6,218.5v-4.1c-1.8-0.9-2-5.6-1.8-7.8c0.2-2.9,2.1-5.8,2.1-8.6c0-2.4-1.4-3.9-3.1-3.9
							s-3.1,1.6-3.1,3.9c0,2.7,1.8,5.7,2.1,8.6c0.2,2.2,0,6.8-1.8,7.8v4.1h2.7h2.7H814.6z"/>
						<path class="st37" d="M814.5,233.8v-3c-1.8-0.7-2-4.1-1.8-5.7c0.2-2.1,2.1-4.3,2.1-6.3c0-1.7-1.4-2.8-3.1-2.8
							s-3.1,1.1-3.1,2.8c0,2,1.8,4.2,2.1,6.3c0.2,1.6,0,5-1.8,5.7v3c0,1.3,5.5,1.3,5.5,0H814.5z"/>
						<path class="st38" d="M813.8,218.1c0-1.1-1-1.9-2.2-1.9s-2.2,0.9-2.2,1.9c0,1.1,1,1.9,2.2,1.9S813.8,219.1,813.8,218.1z"/>
					</g>
					<g>
						<path class="st56" d="M803.6,254.9c-1.7-0.3-4.1-1.2-6.5-1.2c-3.2,0-5.8,0.5-7.3-2.6c-1.7-3.7,0.7-5.4,1.6-6
							c1.4-0.5,4.8-1,8.4-1.8c3.8-0.8,7.8-2.1,9.1-2.2c3.3,0.5,5.4,2.2,7.9,3.9c1,1.3,0.8,7.6-1.6,7.2c-0.9-0.2-1.1-2.4-1-3.8
							c-1.6-0.1-1.8-1-2.9-1.5c-0.8,0.2-1.6,0.8-2.8,1.9c0,1.1,1.2,2.3,2,2.9c1.2,0.9,3.7,0.4,3.4,3.9c-1.9,0.2-3.9-0.9-6.3-0.6
							C805.2,255.3,805.2,254.8,803.6,254.9z"/>
						<path class="st4" d="M770.7,240.9c-9.5-6.4-26.2-19.8-32.7-13c-1.7,2-2,8-0.7,10.9c3.8,8.6,24.6,18,29,18.8
							c8.4,0.3,24.8,0,34.9-1.3l0.9-15.5C795.6,241.1,777.6,241.5,770.7,240.9z"/>
						<path class="st37" d="M814.7,249.4c0-1.7-1.4-3.1-3.1-3.1s-3.1,1.4-3.1,3.1s1.4,3.1,3.1,3.1S814.7,251.1,814.7,249.4z"/>
						<path class="st38" d="M813.8,249.4c0-1.2-1-2.2-2.2-2.2s-2.2,1-2.2,2.2s1,2.2,2.2,2.2S813.8,250.6,813.8,249.4z"/>
					</g>
				</g>
			</g>
		</g>
	</g>
	<g>
		<g>
			<g>
				<path class="st4" d="M279.6,290.1h582.2v-48.4c0-17.1-19.9-45.9-29.2-60.6c-9.8-15.5-27.9-42.6-47.7-49.2
					c-2.8-1-5.7-1.5-8.6-1.5H360c-20.4,0-38.8,17.5-44.5,37.1L279.6,290.1z M730.6,241.9v-74.4c0-9.5,7.8-17.3,17.3-17.3h28.5
					c2.4,0,5.4,1.3,8.6,3.7c20.9,15.3,54,73.1,54.5,88c0.3,9.5-7.8,17.3-17.3,17.3h-74.4c-9.5,0-17.3-7.8-17.3-17.3H730.6z
					 M601.2,167.5c0-9.5,7.8-17.3,17.3-17.3h74.4c9.5,0,17.3,7.8,17.3,17.3v74.4c0,9.5-7.8,17.3-17.3,17.3h-74.4
					c-9.5,0-17.3-7.8-17.3-17.3V167.5z M472,167.5c0-9.5,7.8-17.3,17.3-17.3h74.4c9.5,0,17.3,7.8,17.3,17.3v74.4
					c0,9.5-7.8,17.3-17.3,17.3h-74.4c-9.5,0-17.3-7.8-17.3-17.3V167.5z M342.7,167.5c0-9.5,7.8-17.3,17.3-17.3h74.4
					c9.5,0,17.3,7.8,17.3,17.3v74.4c0,9.5-7.8,17.3-17.3,17.3H360c-9.5,0-17.3-7.8-17.3-17.3V167.5z"/>
				<path class="st57" d="M728.3,167.5v74.4c0,10.7,8.8,19.5,19.5,19.5h74.4c10.7,0,19.9-8.8,19.5-19.6
					c-0.5-12.2-17.3-40.8-23.9-51.3c-5.3-8.3-20.2-30.9-32.9-39.3c-3-2-5.9-3.2-8.6-3.2h-28.5C737.1,148,728.3,156.8,728.3,167.5z
					 M730.6,241.9v-74.4c0-9.5,7.8-17.3,17.3-17.3h28.5c2.4,0,5.4,1.3,8.6,3.7c20.9,15.3,54,73.1,54.5,88
					c0.3,9.5-7.8,17.3-17.3,17.3h-74.4c-9.5,0-17.3-7.8-17.3-17.3H730.6z M340.5,167.5v74.4c0,10.7,8.8,19.5,19.5,19.5h74.4
					c10.7,0,19.5-8.8,19.5-19.5v-74.4c0-10.7-8.8-19.5-19.5-19.5H360C349.2,148,340.5,156.8,340.5,167.5z M342.7,167.5
					c0-9.5,7.8-17.3,17.3-17.3h74.4c9.5,0,17.3,7.8,17.3,17.3v74.4c0,9.5-7.8,17.3-17.3,17.3H360c-9.5,0-17.3-7.8-17.3-17.3V167.5z
					 M599,167.5v74.4c0,10.7,8.8,19.5,19.5,19.5h74.4c10.7,0,19.5-8.8,19.5-19.5v-74.4c0-10.7-8.8-19.5-19.5-19.5h-74.4
					C607.8,148,599,156.8,599,167.5z M601.2,167.5c0-9.5,7.8-17.3,17.3-17.3h74.4c9.5,0,17.3,7.8,17.3,17.3v74.4
					c0,9.5-7.8,17.3-17.3,17.3h-74.4c-9.5,0-17.3-7.8-17.3-17.3V167.5z M469.8,167.5v74.4c0,10.7,8.8,19.5,19.5,19.5h74.4
					c10.7,0,19.5-8.8,19.5-19.5v-74.4c0-10.7-8.8-19.5-19.5-19.5h-74.4C478.5,148,469.7,156.8,469.8,167.5z M472,167.5
					c0-9.5,7.8-17.3,17.3-17.3h74.4c9.5,0,17.3,7.8,17.3,17.3v74.4c0,9.5-7.8,17.3-17.3,17.3h-74.4c-9.5,0-17.3-7.8-17.3-17.3V167.5
					z"/>
			</g>
			<g>
				<path class="st4" d="M409.6,85.2c-6.7,0-8.8,6.4-12.1,12.1l-19.3,33.2h178.3h178.3l-19.3-33.2c-3.4-5.8-5.5-12.1-12.1-12.1
					H556.5C556.5,85.2,409.6,85.2,409.6,85.2z"/>
				<polygon class="st58" points="730.4,123 382.5,123 378.2,130.5 734.8,130.5 				"/>
			</g>
			<g>
				<polygon class="st4" points="570.3,4.8 485.5,4.8 496,85.2 608.1,85.2 				"/>
				<polygon class="st59" points="597.7,63 493.1,63 496,85.2 608.1,85.2 				"/>
				<polygon class="st59" points="586.5,39.3 490,39.3 491.2,48.2 590.8,48.2 				"/>
			</g>
		</g>
		<g>
			<polygon class="st58" points="861.9,270 1019.1,264.5 861.9,241.7 			"/>
			<path class="st59" d="M907.6,389.7l111.5-125.2l-853.5,29.6l5.8,134.9h666.9C861,429,893.5,405.5,907.6,389.7z"/>
			<path class="st4" d="M907.6,389.7L907.6,389.7L170,397.5l0.4,8.6l728.4-7.7C902.2,395.4,905.2,392.4,907.6,389.7z"/>
			<polygon class="st4" points="1002.4,283.3 166.4,312 166.8,320.6 994.5,292.2 			"/>
		</g>
		<g>
			<path class="st46" d="M901.1,349.2c0-8.3-6.8-15.1-15.1-15.1c-8.3,0-15.1,6.8-15.1,15.1c0,8.3,6.8,15.1,15.1,15.1
				C894.4,364.3,901.1,357.5,901.1,349.2z"/>
			<path class="st60" d="M878.3,349.1c0-4.3,3.5-7.8,7.8-7.8c4.3,0,7.8,3.5,7.8,7.8c0,3.2-2,6-4.8,7.2c0,3.2,0,5.2,0,8.5
				c8.2,0.1,12.4-4.6,13.1-2.4c0.9,3.1-2.1,9.9-13,10.1v4.6c0.1,8.6,1.9,14.2,6,15.5c9.5,3,14.9-11.8,15.8-9.8
				c1.4,3.3,0.4,9.1-4.8,15.5c-4.3,5.3-16.2,11-20.2,11.5c-4.1-0.4-15.9-6.2-20.2-11.5c-5.2-6.4-6.2-12.3-4.8-15.5
				c0.9-2.1,6.3,12.8,15.8,9.8c4.2-1.2,5.9-6.8,6-15.4v-4.6c-11-0.2-14-7-13-10.1c0.7-2.2,4.9,2.5,13.1,2.4c0-3.2,0-5.2,0-8.5
				C880.2,355.2,878.2,352.4,878.3,349.1z"/>
			<path class="st46" d="M889.4,349.2c0-1.9-1.5-3.4-3.4-3.4c-1.9,0-3.4,1.5-3.4,3.4s1.5,3.4,3.4,3.4
				C887.9,352.6,889.4,351.1,889.4,349.2z"/>
		</g>
		<g>
			<path class="st4" d="M813,350c0-15.5-12.6-28-28-28c-15.5,0-28,12.6-28,28c0,15.5,12.6,28,28,28C800.4,378,813,365.5,813,350z"/>
			<path class="st4" d="M683.7,350c0-15.5-12.6-28-28-28c-15.5,0-28,12.6-28,28c0,15.5,12.6,28,28,28
				C671.2,378,683.7,365.5,683.7,350z"/>
			<path class="st4" d="M554.4,350c0-15.5-12.6-28-28-28c-15.5,0-28,12.6-28,28c0,15.5,12.6,28,28,28
				C541.9,378,554.4,365.5,554.4,350z"/>
			<path class="st4" d="M425.2,350c0-15.5-12.6-28-28-28c-15.5,0-28,12.6-28,28c0,15.5,12.6,28,28,28S425.1,365.5,425.2,350z"/>
			<path class="st46" d="M804.8,350c0-10.9-8.9-19.8-19.8-19.8c-10.9,0-19.8,8.9-19.8,19.8s8.9,19.8,19.8,19.8
				C795.9,369.8,804.8,360.9,804.8,350z"/>
			<path class="st46" d="M675.5,350c0-10.9-8.9-19.8-19.8-19.8c-10.9,0-19.8,8.9-19.8,19.8s8.9,19.8,19.8,19.8
				C666.6,369.8,675.5,360.9,675.5,350z"/>
			<path class="st46" d="M546.2,350c0-10.9-8.9-19.8-19.8-19.8c-10.9,0-19.8,8.9-19.8,19.8s8.9,19.8,19.8,19.8
				C537.4,369.8,546.2,360.9,546.2,350z"/>
			<path class="st46" d="M417,350c0-10.9-8.9-19.8-19.8-19.8c-10.9,0-19.8,8.9-19.8,19.8s8.9,19.8,19.8,19.8S417,360.9,417,350z"/>
		</g>
		<g>
			<path class="st4" d="M181,130.4c0-3.9-9.6-3.9-9.6,0v163.5l9.6-0.3V130.4z"/>
			<path class="st61" d="M83.8,179.4c-9-2.5-17.9-14.5-32.6-20.5c-11.4-4.7-31.4,1.4-48.1-1.7c21-1.8,34.9-24,47.3-25.5
				c16.5-2,31.4,6.5,37.5,4.9c5.7-1.5,12.2-8.4,18-10.8c24.7-10.1,40.3,3.2,65.5,4.5c-22,9.5-16.4,40.9,0,55.4
				c-26.1,2-39-18.7-63.4-7.9C98.9,181.8,90.8,181.4,83.8,179.4z"/>
			<path class="st62" d="M126.9,124.4c-7.2-0.3-13.1,0.7-15.2,1.4c-16,5.4-15,32.7-8.4,52c6-2.9,18.2-8.2,29.2-3
				C122.9,162.1,118.9,134.4,126.9,124.4z"/>
			<path class="st63" d="M62.8,132.9c-7.3-1-12.5-0.7-13.9-0.2c-9.8,3.3-11.8,16.6-7.1,23.4c8.4-0.2,18.4,4.8,25.6,11.4
				C58.8,160.2,56,141.6,62.8,132.9z"/>
		</g>
	</g>
</g>
</svg>
