<?xml version="1.0" encoding="utf-8"?>
<!-- Generator: Adobe Illustrator 23.0.6, SVG Export Plug-In . SVG Version: 6.00 Build 0)  -->
<svg version="1.1" id="Слой_1" xmlns="http://www.w3.org/2000/svg" xmlns:xlink="http://www.w3.org/1999/xlink" x="0px" y="0px"
	 viewBox="0 0 1024 433" style="enable-background:new 0 0 1024 433;" xml:space="preserve">
<style type="text/css">
	.st0{fill-rule:evenodd;clip-rule:evenodd;fill:#7891CF;}
	.st1{fill-rule:evenodd;clip-rule:evenodd;fill:none;stroke:#7891CF;stroke-width:0.216;stroke-miterlimit:22.9256;}
	.st2{fill-rule:evenodd;clip-rule:evenodd;fill:#33CC99;}
	.st3{fill-rule:evenodd;clip-rule:evenodd;fill:#DE9D5B;}
	.st4{fill-rule:evenodd;clip-rule:evenodd;fill:#DDDDDD;}
	.st5{fill-rule:evenodd;clip-rule:evenodd;fill:#F0B57A;}
	.st6{fill-rule:evenodd;clip-rule:evenodd;fill:#42EDA9;}
	.st7{fill-rule:evenodd;clip-rule:evenodd;fill:#AB7137;}
	.st8{fill-rule:evenodd;clip-rule:evenodd;fill:#E69F57;}
	.st9{fill-rule:evenodd;clip-rule:evenodd;fill:#592208;}
	.st10{fill-rule:evenodd;clip-rule:evenodd;}
	.st11{fill-rule:evenodd;clip-rule:evenodd;fill:#3D1D05;}
	.st12{fill-rule:evenodd;clip-rule:evenodd;fill:#222838;}
	.st13{fill-rule:evenodd;clip-rule:evenodd;fill:#FFDDBA;}
	.st14{fill-rule:evenodd;clip-rule:evenodd;fill:#FFCC99;}
	.st15{fill-rule:evenodd;clip-rule:evenodd;fill:#FF0066;}
	.st16{fill-rule:evenodd;clip-rule:evenodd;fill:#FCBF2F;}
	.st17{fill-rule:evenodd;clip-rule:evenodd;fill:#FFA600;}
	.st18{fill-rule:evenodd;clip-rule:evenodd;fill:#C48E58;}
	.st19{fill-rule:evenodd;clip-rule:evenodd;fill:#FFC8B2;}
	.st20{fill-rule:evenodd;clip-rule:evenodd;fill:#CC6633;}
	.st21{fill-rule:evenodd;clip-rule:evenodd;fill:#FFCD38;}
	.st22{fill-rule:evenodd;clip-rule:evenodd;fill:#FF8800;}
	.st23{fill-rule:evenodd;clip-rule:evenodd;fill:#660066;}
	.st24{fill-rule:evenodd;clip-rule:evenodd;fill:#394700;}
	.st25{fill-rule:evenodd;clip-rule:evenodd;fill:#290E01;}
	.st26{fill:#290E01;}
	.st27{fill-rule:evenodd;clip-rule:evenodd;fill:#663300;}
	.st28{fill-rule:evenodd;clip-rule:evenodd;fill:#996633;}
	.st29{fill-rule:evenodd;clip-rule:evenodd;fill:#4E9409;}
	.st30{fill-rule:evenodd;clip-rule:evenodd;fill:#87DE2F;}
	.st31{fill-rule:evenodd;clip-rule:evenodd;fill:#DE954C;}
	.st32{fill-rule:evenodd;clip-rule:evenodd;fill:#CC8742;}
	.st33{fill-rule:evenodd;clip-rule:evenodd;fill:#094DF2;}
	.st34{fill-rule:evenodd;clip-rule:evenodd;fill:#995F25;}
	.st35{fill-rule:evenodd;clip-rule:evenodd;fill:#EDAE5C;}
	.st36{fill-rule:evenodd;clip-rule:evenodd;fill:#2421DE;}
	.st37{fill-rule:evenodd;clip-rule:evenodd;fill:#FFCC00;}
	.st38{fill-rule:evenodd;clip-rule:evenodd;fill:#FFE875;}
	.st39{fill-rule:evenodd;clip-rule:evenodd;fill:#00CCFF;}
	.st40{fill-rule:evenodd;clip-rule:evenodd;fill:#EDAA00;}
	.st41{fill-rule:evenodd;clip-rule:evenodd;fill:#FF6600;}
	.st42{fill-rule:evenodd;clip-rule:evenodd;fill:#FFB894;}
	.st43{fill-rule:evenodd;clip-rule:evenodd;fill:#782E0C;}
	.st44{fill-rule:evenodd;clip-rule:evenodd;fill:#913809;}
	.st45{fill-rule:evenodd;clip-rule:evenodd;fill:#BF6600;}
	.st46{fill-rule:evenodd;clip-rule:evenodd;fill:#15172B;}
	.st47{fill:#DDDDDD;}
	.st48{fill-rule:evenodd;clip-rule:evenodd;fill:#EDB647;}
	.st49{fill:#F0B57A;}
	.st50{fill-rule:evenodd;clip-rule:evenodd;fill:#BECBED;}
	.st51{fill-rule:evenodd;clip-rule:evenodd;fill:#D8E3FC;}
	.st52{fill:#879AC9;}
	.st53{fill-rule:evenodd;clip-rule:evenodd;fill:#222242;}
	.st54{fill-rule:evenodd;clip-rule:evenodd;fill:#879AC9;}
	.st55{fill-rule:evenodd;clip-rule:evenodd;fill:#CC9933;}
	.st56{fill:#FFCC99;}
	.st57{fill-rule:evenodd;clip-rule:evenodd;fill:#353661;}
	.st58{fill-rule:evenodd;clip-rule:evenodd;fill:#8274DE;}
	.st59{fill-rule:evenodd;clip-rule:evenodd;fill:#2C62A1;}
	.st60{fill-rule:evenodd;clip-rule:evenodd;fill:#161A4D;}
	.st61{fill-rule:evenodd;clip-rule:evenodd;fill:#FF0000;}
	.st62{fill-rule:evenodd;clip-rule:evenodd;fill:#FF6666;}
	.st63{fill-rule:evenodd;clip-rule:evenodd;fill:#FF4F4F;}
</style>
<g>
	<g>
		<g>
			<path class="st0" d="M200,259.2l74.4,0c9.5,0,17.3-7.8,17.3-17.3v-74.4c0-9.5-7.8-17.3-17.3-17.3h-28.5
				c-18.5,0-62.5,74.4-63.1,91.7C182.4,251.4,190.5,259.2,200,259.2z"/>
			<path class="st0" d="M312,241.9c0,9.5,7.8,17.3,17.3,17.3h74.4c9.5,0,17.3-7.8,17.3-17.3v-74.4c0-9.5-7.8-17.3-17.3-17.3h-74.4
				c-9.5,0-17.3,7.8-17.3,17.3V241.9z"/>
			<path class="st0" d="M441.3,167.5v74.4c0,9.5,7.8,17.3,17.3,17.3h74.4c9.5,0,17.3-7.8,17.3-17.3v-74.4c0-9.5-7.8-17.3-17.3-17.3
				h-74.4C449.1,150.2,441.3,158,441.3,167.5z"/>
			<path class="st0" d="M570.5,167.5v74.4c0,9.5,7.8,17.3,17.3,17.3h74.4c9.5,0,17.3-7.8,17.3-17.3v-74.4c0-9.5-7.8-17.3-17.3-17.3
				h-74.4C578.3,150.2,570.5,158,570.5,167.5z"/>
		</g>
		<g>
			<path class="st1" d="M312,167.5v74.4c0,9.5,7.8,17.3,17.3,17.3h332.9c9.5,0,17.3-7.8,17.3-17.3v-74.4c0-9.5-7.8-17.3-17.3-17.3
				H329.3C319.8,150.2,312,158,312,167.5z"/>
			<g>
				<g>
					<g>
						<path class="st2" d="M596.1,218.2c-9.3,1.8-13.9,7.5-24.2,10.9c-3.9,1.2-7.2,6.2-7.9,11.5l-0.8,5.5l-1.9,13.2h34.7h34.7
							l-1.9-13.2l-0.8-5.5c-0.7-5.3-4-10.3-7.9-11.5C609.9,225.7,605.3,220,596.1,218.2z"/>
						<path class="st3" d="M604.7,221.3c-0.9-2.5-1.1-5-1-11.4h-7.6h0h-7.6c0.1,6.4-0.2,8.9-1,11.4c0.2,4,4.9,5.6,8.6,5.6
							C599.8,226.9,604.5,225.4,604.7,221.3z"/>
						<path class="st4" d="M585.8,222.2c1,4.2,5.2,6.3,10.2,6.3c5,0,9.2-2.1,10.2-6.3c-0.5-0.3-1.1-0.6-1.6-0.9
							c-0.4,3.9-5,5.6-8.6,5.6c-3.7,0-8.2-1.7-8.6-5.6C586.9,221.6,586.4,221.9,585.8,222.2z"/>
					</g>
					<g>
						<polygon class="st5" points="573.8,259.2 572.7,245.9 563.2,246.1 561.3,259.2 						"/>
						<path class="st6" d="M571.9,229c-3.9,1.2-7.2,6.2-7.9,11.5c-0.3,1.8-0.5,3.7-0.8,5.5c2.7,0,6.1,0.7,9.7,2.9
							C572.5,243.6,571.8,234,571.9,229z"/>
					</g>
					<g>
						<polygon class="st5" points="618.3,259.2 619.4,245.9 628.9,246.1 630.8,259.2 						"/>
						<path class="st6" d="M620.2,229c3.9,1.2,7.2,6.2,7.9,11.5c0.3,1.8,0.5,3.7,0.8,5.5c-2.7,0-6.1,0.7-9.7,2.9
							C619.6,243.6,620.3,234,620.2,229z"/>
					</g>
				</g>
				<g>
					<g>
						<g>
							<path class="st5" d="M596.1,177.9c-10.5,0-18.3,7.7-18.6,19.7c-5.6-2-5.2,8.2,1,8.5c1.7,7.1,14.8,13.4,17.6,13.4
								c2.8,0,16-6.4,17.6-13.4c6.2-0.3,6.6-10.5,1-8.5C614.4,185.6,606.5,177.9,596.1,177.9z"/>
							<path class="st7" d="M577.4,201.9c0.4-0.4,0.6-1,0.3-1.6c-0.5-1-1.9-0.9-2.4,0c-0.4,0.7-0.2,2.1,0.9,3.2
								c0.6,0.6,2,1.1,1.9,0.4C578,203.5,577,202.4,577.4,201.9z"/>
							<path class="st7" d="M614.7,201.9c-0.4-0.4-0.6-1-0.3-1.6c0.5-1,1.9-0.9,2.4,0c0.4,0.7,0.2,2.1-0.9,3.2
								c-0.6,0.6-2,1.1-1.9,0.4C614.1,203.5,615.1,202.4,614.7,201.9z"/>
						</g>
						<g>
							<g>
								<path class="st7" d="M596.1,203.7c-1.1,0-2.4,0.5-2.7,1.5c0.1-1.4,1.4-2,2.7-2c1.3,0,2.6,0.5,2.7,2
									C598.4,204.2,597.2,203.7,596.1,203.7z"/>
								<path class="st8" d="M596.1,205c-1,0-2.1,0.6-2.3,0.3c-0.3-0.5,0.7-1.4,2.3-1.4c1.6,0,2.7,1,2.3,1.4
									C598.2,205.5,597,205,596.1,205z"/>
								<path class="st8" d="M585.6,205.1c2.4,0.8,4.2,2.7,4.3,1.3c0.1-1.4-1.4-3.3-3.4-4.4c-2-1.1-3.6,0.1-4.1,1
									C582,203.9,583.2,204.4,585.6,205.1z"/>
								<path class="st8" d="M606.5,205.1c-2.4,0.8-4.2,2.7-4.3,1.3c-0.1-1.4,1.4-3.3,3.4-4.4c2-1.1,3.6,0.1,4.1,1
									C610.1,203.9,608.9,204.4,606.5,205.1z"/>
							</g>
							<g>
								<path class="st8" d="M596,213c-1,0-2.3-0.6-2.5-0.3c-0.3,0.4,0.7,1.4,2.5,1.4c1.8,0,2.9-0.9,2.5-1.4
									C598.4,212.5,597.1,213,596,213z"/>
								<path class="st7" d="M596.1,214.2c0.6,0,2.3-0.1,2.9-1.3c-0.3,1.2-2.1,1.6-2.9,1.6c-0.8,0-2.6-0.4-2.9-1.6
									C593.8,214,595.4,214.2,596.1,214.2z"/>
								<path class="st9" d="M600,210.7c-1.1,1.1-2.8,1.5-3.9,1.5c-1.1,0-2.6-0.5-3.9-1.5C594,211.6,598.3,211.6,600,210.7z"/>
							</g>
							<g>
								<path class="st4" d="M583.9,199.8c1.6,0.2,2.5,1.7,3.4,2c1.4,0.5,2.3,0,2.6-1.2C589.1,199,585.8,198.2,583.9,199.8z"/>
								<path class="st10" d="M588.1,194.7c0.2,0.7-1.6,0.6-2.8,0.8c-1.2,0.2-2.4,0.6-2.5-0.2C582.5,193.5,587.7,193.3,588.1,194.7z
									"/>
								<path class="st11" d="M588.3,202c-0.9,0-1.6-0.7-1.6-1.6c0-0.7,0.4-1.2,1-1.5c0.4,0.1,1.7,0.8,2.1,1.8
									C589.7,201.4,589.1,202,588.3,202z"/>
								<path class="st4" d="M588.4,200.8c-0.4,0-0.8-0.4-0.8-0.8c0-0.4,0.4-0.8,0.8-0.8c0.4,0,0.8,0.4,0.8,0.8
									C589.1,200.5,588.8,200.8,588.4,200.8z"/>
								<path class="st10" d="M583.9,199.8c1.2-0.7,5.3-0.4,5.9,0.9c-0.1-1.5-2.2-2.4-3.9-2.3C584.7,198.4,583.9,198.8,583.9,199.8z
									"/>
							</g>
							<g>
								<path class="st4" d="M608.2,199.8c-1.6,0.2-2.5,1.7-3.4,2c-1.4,0.5-2.3,0-2.6-1.2C603.1,199,606.3,198.2,608.2,199.8z"/>
								<path class="st10" d="M604,194.7c-0.2,0.7,1.6,0.6,2.8,0.8c1.2,0.2,2.4,0.6,2.5-0.2C609.6,193.5,604.4,193.3,604,194.7z"/>
								<path class="st11" d="M603.8,202c0.9,0,1.6-0.7,1.6-1.6c0-0.7-0.4-1.2-1-1.5c-0.4,0.1-1.7,0.8-2.1,1.8
									C602.4,201.4,603.1,202,603.8,202z"/>
								<path class="st4" d="M603.8,200.8c0.4,0,0.8-0.4,0.8-0.8c0-0.4-0.4-0.8-0.8-0.8c-0.4,0-0.8,0.4-0.8,0.8
									C603,200.5,603.3,200.8,603.8,200.8z"/>
								<path class="st10" d="M608.2,199.8c-1.2-0.7-5.3-0.4-5.9,0.9c0.1-1.5,2.2-2.4,3.9-2.3C607.4,198.4,608.2,198.8,608.2,199.8z
									"/>
							</g>
						</g>
					</g>
					<g>
						<path class="st10" d="M596.1,167.7c-1.2-1.5-2.7-1.9-4-1.8c1,0.2,2.5,1,2.6,1.7c-2.1-1-6-0.7-8.1,0.6c1.3-0.5,5-0.5,5.2-0.2
							c-10.7,0.5-30,10.1-17.1,29.8c3.2-0.2,3.3,2.7,5.4,8.4c-0.9-8.6-2.3-11.2,0.3-18.4c-0.4,2.6-0.7,5.2,0.3,7.4
							c4.1-1.3,9.6-1.7,15.4-1.6c5.8-0.1,11.3,0.3,15.4,1.6c0.9-2.2,0.6-4.8,0.3-7.4c2.6,7.2,1.2,9.8,0.3,18.4
							c2.1-5.7,2.2-8.5,5.4-8.4c12.9-19.7-6.4-29.3-17.1-29.8c0.2-0.3,3.9-0.3,5.2,0.2c-2.1-1.3-6-1.6-8.1-0.6
							c0.2-0.7,1.6-1.5,2.6-1.7C598.8,165.8,597.2,166.1,596.1,167.7z"/>
						<path class="st12" d="M580.4,175.2c3.1-2.1,6.2-3.3,7.2-2.7c-3.2,0.7-7.4,5.4-8.5,9.1c2.9-2.4,4.3-4.6,8.3-4.8
							c-2,0.7-4,6.7-2.3,11.4c0.1-3.1-0.5-5.4,1.7-8.6c-0.6,1.3-0.1,6.9,1.3,8.7c2,0.4,2.8,0,4.3,0.4c-1.5-5,2.8-6.2,3.6-8.6
							c2.8,1.5,2.8,6.3,0.7,8.6c2.4-0.4,2.8-6.6,1.7-9.1c1.1,1.3,3.7,5.4,2.8,8.9c1.9,0.6,3.7,0.1,4.9-0.3c3-5.2,0.5-10.8-1.5-11.4
							c4,0.6,5.8,1.8,8.7,4.1c-1.1-3.8-5.9-7.1-9.1-7.8c3.1-0.8,4.5,0.4,7.5,2.1c-4.2-4.1-11.8-7.2-14.8-3.2
							c1.1-0.3,3.1,0.3,4.3,0.9c-0.9,0.3-4.4-0.6-5.2,1.1c-1.1-1.4-4.3-0.8-5.2-1.1c1.3-0.6,3.2-1.2,4.3-0.9
							C592.2,168,584.6,171.1,580.4,175.2z"/>
					</g>
				</g>
			</g>
			<g>
				<g>
					<g>
						<path class="st13" d="M467.4,220.9c3.1,0.6,5.7,1.2,8,2.5c4.6,2.6,9.4,3.8,16.2,6c3.9,1.2,7.1,6.3,7.9,11.5l3.2,18.4l-35.3,0
							l-35.3,0l3.2-18.3c0.8-5.2,4-10.3,7.9-11.5c6.8-2.2,11.7-3.4,16.2-6C461.7,222.1,464.3,221.5,467.4,220.9z"/>
						<path class="st14" d="M458.2,225.1c0.9-2.6,1.2-5,1.1-11.7l8.1,0l8,0c-0.1,6.7,0.2,9.1,1.1,11.7c-0.2,4.3-5.3,6.1-9.2,6.1
							C463.4,231.2,458.5,229.3,458.2,225.1z"/>
					</g>
					<g>
						<path class="st15" d="M467.4,238.1c-13.8,0-16.4-5.7-19.7-10.1c-1.4,0.4-2.9,0.9-4.5,1.4c-3.9,1.2-7,6.3-7.9,11.5l-3.2,18.3
							l35.3,0l35.3,0l-3.2-18.4c-0.9-5.2-4-10.3-7.9-11.5c-1.6-0.5-3.1-1-4.5-1.4C483.8,232.4,481.2,238.1,467.4,238.1z"/>
						<path class="st16" d="M499.3,240.1l-63.9,0c-0.1,0.3-0.1,0.5-0.2,0.8l-0.1,0.7l64.5,0l-0.1-0.7
							C499.5,240.6,499.4,240.3,499.3,240.1z"/>
						<polygon class="st16" points="500.2,245.1 434.5,245 434.3,246.7 467.5,246.7 500.5,246.7 						"/>
						<polygon class="st16" points="501.2,250.7 433.6,250.7 433.2,253 467.5,253 501.6,253 						"/>
						<polygon class="st16" points="502.2,256.4 432.6,256.4 432,259.2 467.5,259.2 502.7,259.2 						"/>
					</g>
					<g>
						<path class="st13" d="M443.2,229.4c-3.9,1.2-7.1,6.3-7.9,11.5l-3.2,18.3l12.5,0C445.4,251.2,443.9,235.1,443.2,229.4z"/>
						<path class="st13" d="M491.6,229.4c3.9,1.2,7.1,6.3,7.9,11.5l3.2,18.4l-12.5,0C489.4,251.2,490.9,235.1,491.6,229.4z"/>
					</g>
				</g>
				<g>
					<path class="st17" d="M467.4,212.5c-13.8,0-23.5-3.5-25.5-21.9c6-3.6,17.4-7.7,25.5-7.7c8.1,0,19.5,4.1,25.5,7.7
						C490.9,209,481.2,212.5,467.4,212.5z"/>
					<g>
						<g>
							<path class="st13" d="M467.4,176.1c-10.1,0-19.8,7.1-20.6,19.7c-8-2.1-5.6,8.9,0.8,8.5c0.8,2.7,2.9,5.5,5.9,8.5
								c2.8,2.8,10.1,7,14,7c3.8,0,11.2-4.2,14-7c3-3,5.1-5.8,5.9-8.5c6.4,0.4,8.7-10.6,0.8-8.5
								C487.3,183.3,477.6,176.1,467.4,176.1z"/>
							<path class="st18" d="M445.7,200.1c0.4-0.4,0.6-1,0.3-1.6c-0.5-1-1.9-0.9-2.4,0c-0.4,0.7-0.2,2.1,0.9,3.2
								c0.6,0.6,2,1.1,1.9,0.4C446.2,201.7,445.3,200.6,445.7,200.1z"/>
							<path class="st18" d="M489.2,200.2c-0.4-0.4-0.6-1-0.3-1.6c0.5-1,1.9-0.9,2.4,0c0.4,0.7,0.2,2.1-0.9,3.2
								c-0.6,0.6-2,1.1-1.9,0.4C488.6,201.7,489.6,200.6,489.2,200.2z"/>
						</g>
						<g>
							<path class="st18" d="M467.4,201.9c-1.3,0-2.7,0.7-3.1,2.1c0.1-2.1,1.6-2.9,3.1-2.9c1.5,0,3,0.8,3.1,2.9
								C470.2,202.6,468.7,201.9,467.4,201.9z"/>
							<path class="st14" d="M467.4,203.8c-1.1,0-2.5,0.9-2.7,0.5c-0.3-0.7,0.8-2.1,2.7-2.1c1.9,0,3.1,1.4,2.7,2.1
								C469.9,204.6,468.5,203.8,467.4,203.8z"/>
						</g>
						<g>
							<path class="st19" d="M467.4,210.6c-1.8,0-4-0.7-4.3-0.4c-0.5,0.5,1.2,1.7,4.3,1.7c3.1,0,5-1.1,4.3-1.7
								C471.5,210,469.2,210.6,467.4,210.6z"/>
							<path class="st18" d="M467.5,212.1c1.1,0,3.9-0.2,4.9-1.6c-0.5,1.5-3.5,2-4.9,2c-1.4,0-4.4-0.4-4.9-2
								C463.5,211.9,466.4,212.1,467.5,212.1z"/>
							<path class="st7" d="M467.5,209.4c7.5,0,10-4.2,12.2-3.9c-2.1-0.5-4.9,3.6-12.2,3.6c-7.3,0-10.1-4.1-12.2-3.6
								C457.4,205.1,460,209.4,467.5,209.4z"/>
							<path class="st18" d="M455.9,204.6c-1-1.1-3-0.2-2.1,1.3C453.8,205,454.9,204.3,455.9,204.6z"/>
							<path class="st18" d="M478.9,204.7c1-1.1,3-0.2,2.1,1.3C481.1,205,480,204.3,478.9,204.7z"/>
						</g>
						<g>
							<path class="st4" d="M480.9,198.2c-0.6,0.1-1.6,0.5-2.2,1c-0.9,0.6-1.7,1.3-3,1.3c-0.9,0-1.5-0.8-1.5-1.3
								c-0.1-0.7,0.3-1.5,1.1-2.1C476.5,196.2,480.8,196.2,480.9,198.2z"/>
							<path class="st20" d="M476.2,192.4c-0.3,0.6,1.5,0.9,2.6,1.4c1.1,0.5,2.2,1.1,2.5,0.4C482,192.4,477,191.1,476.2,192.4z"/>
							<path class="st11" d="M475.8,200.5c0.9,0,1.6-0.7,1.6-1.6c0-0.9-0.7-1.6-1.6-1.6c-0.9,0-1.6,0.7-1.6,1.6
								C474.2,199.8,474.9,200.5,475.8,200.5z"/>
							<path class="st4" d="M476.1,199c0.4,0,0.8-0.4,0.8-0.8c0-0.4-0.4-0.8-0.8-0.8c-0.4,0-0.8,0.4-0.8,0.8
								C475.3,198.7,475.7,199,476.1,199z"/>
							<path class="st11" d="M480.9,198.2c-0.7-1.9-6.2-2-6.8,0.7c0.1-2.7,4.3-3.8,6.7-2.8C482.1,196.6,482.6,197.8,480.9,198.2z"/>
						</g>
						<g>
							<path class="st4" d="M453.9,198.2c0.6,0.1,1.6,0.5,2.2,1c0.9,0.6,1.7,1.3,3,1.3c0.9,0,1.5-0.8,1.5-1.3
								c0.1-0.7-0.3-1.5-1.1-2.1C458.3,196.2,454.1,196.2,453.9,198.2z"/>
							<path class="st20" d="M458.3,192.4c0.3,0.6-1.5,0.9-2.6,1.4c-1.1,0.5-2.2,1.1-2.5,0.4C452.5,192.4,457.5,191.1,458.3,192.4z"
								/>
							<path class="st11" d="M459.1,200.5c0.9,0,1.6-0.7,1.6-1.6c0-0.9-0.7-1.6-1.6-1.6c-0.9,0-1.6,0.7-1.6,1.6
								C457.5,199.8,458.2,200.5,459.1,200.5z"/>
							<path class="st4" d="M459.6,199c0.4,0,0.8-0.4,0.8-0.8c0-0.4-0.4-0.8-0.8-0.8c-0.4,0-0.8,0.4-0.8,0.8
								C458.8,198.6,459.2,199,459.6,199z"/>
							<path class="st11" d="M453.9,198.2c0.7-1.9,6.2-2,6.8,0.7c-0.1-2.7-4.3-3.8-6.7-2.8C452.8,196.6,452.3,197.8,453.9,198.2z"/>
						</g>
						<g>
							<path class="st19" d="M480.3,202.3c-2.8,1.1-4.6,2.7-5.3,1.8c-0.7-0.9,0-2.8,3.5-4c3.5-1.3,5.2-0.3,5.6,0.1
								C484.6,200.6,483.2,201.2,480.3,202.3z"/>
							<path class="st18" d="M479.3,201c-0.4,0.1-0.8,0-0.8-0.2c0-0.2,0.3-0.4,0.7-0.4c0.4-0.1,0.8,0,0.8,0.2
								C480.1,200.8,479.7,200.9,479.3,201z"/>
							<path class="st18" d="M481.1,200.3c-0.2,0-0.4-0.1-0.4-0.2c0-0.1,0.2-0.2,0.4-0.2c0.2,0,0.4,0.1,0.4,0.2
								C481.5,200.3,481.3,200.3,481.1,200.3z"/>
							<path class="st18" d="M476,203.2c-0.2,0.2-0.3,0.2-0.4,0.2c-0.1-0.1,0-0.3,0.2-0.4c0.2-0.2,0.3-0.2,0.4-0.2
								C476.2,202.9,476.1,203.1,476,203.2z"/>
							<path class="st18" d="M477.2,202.1c-0.3,0.1-0.5,0.1-0.6,0c0-0.1,0.1-0.3,0.4-0.4c0.3-0.1,0.5-0.1,0.6,0
								C477.6,201.9,477.5,202,477.2,202.1z"/>
							<path class="st18" d="M478.8,202.1c-0.3,0.1-0.5,0-0.6-0.1c0-0.1,0.2-0.3,0.4-0.4c0.3-0.1,0.5,0,0.6,0.1
								C479.3,201.9,479.1,202,478.8,202.1z"/>
						</g>
						<g>
							<path class="st19" d="M454.5,202.3c2.8,1.1,4.6,2.7,5.2,1.8c0.7-0.9,0-2.8-3.5-4c-3.5-1.3-5.2-0.3-5.6,0.1
								C450.2,200.6,451.7,201.2,454.5,202.3z"/>
							<path class="st18" d="M455.5,201c0.4,0.1,0.8,0,0.8-0.2c0-0.2-0.3-0.4-0.7-0.4c-0.4-0.1-0.8,0-0.8,0.2
								C454.8,200.7,455.1,200.9,455.5,201z"/>
							<path class="st18" d="M453.8,200.3c0.2,0,0.4-0.1,0.4-0.2c0-0.1-0.2-0.2-0.4-0.2c-0.2,0-0.4,0.1-0.4,0.2
								C453.4,200.2,453.6,200.3,453.8,200.3z"/>
							<path class="st18" d="M458.9,203.2c0.2,0.2,0.3,0.2,0.4,0.2c0.1-0.1,0-0.3-0.2-0.4c-0.2-0.2-0.3-0.2-0.4-0.2
								C458.7,202.9,458.7,203.1,458.9,203.2z"/>
							<path class="st18" d="M457.7,202.1c0.3,0.1,0.5,0.1,0.6,0c0-0.1-0.1-0.3-0.4-0.4c-0.3-0.1-0.5-0.1-0.6,0
								C457.2,201.8,457.4,202,457.7,202.1z"/>
							<path class="st18" d="M456.1,202.1c0.3,0.1,0.5,0,0.6-0.1c0-0.1-0.2-0.3-0.4-0.4c-0.3-0.1-0.5,0-0.6,0.1
								C455.6,201.8,455.8,202,456.1,202.1z"/>
						</g>
					</g>
					<g>
						<g>
							<path class="st17" d="M467.4,165.9c-0.5-2.1-2.5-2.3-3.8-2.1c1.1,0.2,2.2,1.3,2.4,2.1c-0.6-1.1-3.6-1.5-6.6-0.4
								c1.7-0.7,5.3,0.3,5.4,0.6c-9,0.4-22.7,6-24.7,17.8c-0.8,5,3.6,10.6,7.2,17.2c-0.9-9.3,4.2-16.6,10.2-18.6
								c-2.7,2.1-5.9,7.2-5.1,10.9c3.1-1.6,5.9-2.2,8.8-2.4c-1-3.3,0.2-5.7,2.1-7.8c-1,5.4-0.6,6.7,0.3,7.7c1.3-0.1,2.2-0.1,3.7-0.1
								c1.4,0,2.4,0,3.7,0.1c1-1,1.4-2.2,0.4-7.7c1.9,2.1,3,4.5,2.1,7.8c2.9,0.2,5.7,0.8,8.8,2.4c0.7-3.7-2.5-8.9-5.1-11
								c6,1.9,11.2,9.3,10.2,18.6c3.6-6.5,8-12.2,7.2-17.2C492.7,172,479,166.5,470,166c0.2-0.3,3.7-1.3,5.4-0.6
								c-2.9-1.2-5.9-0.8-6.6,0.3c0.2-0.7,1.3-1.9,2.4-2.1C469.9,163.6,468,163.7,467.4,165.9z"/>
							<path class="st21" d="M451.8,173.4c4.4-1.2,6.2-1.3,7.2-0.7c-3.2,0.7-7.4,3.3-8.5,7.1c2.9-2.4,5.8-4.2,9.8-4.4
								c-2,0.7-4.5,2.5-5.5,4.7c2.3-2.3,6.6-4.7,11.1-4.7c-0.7-1.8-2.8-1.9-3.7-2.3c1.3-0.6,2.9-0.9,4-0.6
								C464.7,167.1,456,169.3,451.8,173.4z"/>
							<path class="st21" d="M483.1,173.4c-4.4-1.2-6.2-1.3-7.2-0.7c3.2,0.7,7.4,3.3,8.5,7.1c-2.9-2.4-5.8-4.2-9.8-4.4
								c2,0.7,4.5,2.5,5.5,4.7c-2.3-2.3-6.6-4.7-11.1-4.7c0.7-1.8,2.8-1.9,3.7-2.3c-1.3-0.6-2.9-0.9-4-0.6
								C470.2,167.1,478.9,169.3,483.1,173.4z"/>
						</g>
						<g>
							<path class="st17" d="M444.9,159.7c1.1,1.9,1.3,3.6,1.1,4.9c-1.5-5.3-15-8.5-20.8-2.5c4.5-2,6.8,0.2,8.7,0.8
								c-16.3,2.6-14,17.2-8.2,20.9c-0.7-3.5,3-10.2,5.7-9.6c-8.4,4.4-1.2,15.9,2.1,16.7c-1.5-2.3-1.3-10.8,1.8-11.7
								c-0.4,2-1.3,5.5,4.2,7.5c-2.7-4.7,2.3-10.3,3.5-11.3c0.7-0.6,1.3-0.4,2-0.3c0.4,0,1.5-0.9,1.4-1.6c-0.1-0.4-0.4-1.2-0.3-1.6
								C448,167.8,451.5,162.9,444.9,159.7z"/>
							<path class="st22" d="M444.3,163c0.3,1.6,0.7,3.3-0.2,4.5c-1.7-4.3-4.8-3.7-7.5-3.2c2.8,1.8,3.9,2.9,3.5,4.1
								c-3.6-3.2-9.1-0.7-10.7,2.7c1.1-0.7,7.4-0.6,9.6,0.4c-2.1,0.4-3.8,2.2-3.4,4.7c0.8-1.8,5.5-3.5,8.1-1.2
								c0.4,0.2,1.1-0.5,1.4-1.2C446.2,170.2,447.1,166.1,444.3,163z"/>
							<path class="st15" d="M447.4,178.9c1.1-0.8,2-1.9,2.7-3c0.8-1.3,0.9-2.9-0.2-3.9c-1.1-1-3.3-1.2-3.9,0.2
								c-0.5,1.2-1.4,2.2-2.7,3c-1.3,0.8-0.9,2.9,0.2,3.9C444.6,180.2,446.2,179.9,447.4,178.9z"/>
						</g>
						<g>
							<path class="st17" d="M490,159.7c-1.1,1.9-1.3,3.6-1.1,4.9c1.5-5.3,15-8.5,20.8-2.5c-4.5-2-6.8,0.2-8.7,0.8
								c16.3,2.6,14,17.2,8.2,21c0.7-3.5-3-10.2-5.7-9.6c8.4,4.4,1.2,15.9-2.1,16.7c1.5-2.3,1.3-10.8-1.8-11.7
								c0.4,1.9,1.3,5.5-4.2,7.5c2.7-4.7-2.3-10.3-3.4-11.3c-0.7-0.6-1.3-0.4-2-0.3c-0.4,0-1.5-0.9-1.4-1.6c0.1-0.4,0.4-1.2,0.3-1.6
								C486.8,167.8,483.4,162.9,490,159.7z"/>
							<path class="st22" d="M490.6,163c-0.3,1.6-0.7,3.3,0.2,4.5c1.7-4.3,4.8-3.7,7.5-3.2c-2.8,1.8-3.9,2.9-3.5,4.1
								c3.6-3.2,9.1-0.7,10.7,2.7c-1.1-0.7-7.4-0.6-9.6,0.4c2.1,0.4,3.8,2.2,3.4,4.7c-0.8-1.8-5.5-3.5-8.1-1.2
								c-0.4,0.2-1.1-0.5-1.4-1.2C488.7,170.2,487.8,166.1,490.6,163z"/>
							<path class="st15" d="M487.5,179c-1.1-0.8-2-1.9-2.7-3c-0.8-1.3-0.9-2.9,0.2-3.9c1.1-1,3.3-1.2,3.9,0.2
								c0.5,1.2,1.4,2.3,2.7,3c1.3,0.8,0.9,2.9-0.2,3.9C490.2,180.2,488.7,179.9,487.5,179z"/>
						</g>
					</g>
				</g>
			</g>
			<g>
				<g>
					<g>
						<path class="st23" d="M522.1,218.2c-9.3,1.8-13.9,7.5-24.2,10.9c-3.9,1.2-7.2,6.2-7.9,11.5l-0.8,5.5l-1.9,13.2h34.7h34.7
							l-1.9-13.2l-0.8-5.5c-0.7-5.3-4-10.3-7.9-11.5C536,225.7,531.4,220,522.1,218.2z"/>
						<path class="st14" d="M529.7,221.1c-0.8-2.5-1-4.8-0.9-11.1h-6.6h0h-6.6c0.1,6.4-0.2,8.6-0.9,11.1c0.2,4,4.3,5.8,7.6,5.8
							C525.4,226.9,529.5,225.1,529.7,221.1z"/>
						<path class="st4" d="M513.1,221.6c0.6,4.6,4.5,6.9,9.1,6.9c4.6,0,8.5-2.3,9.1-6.9c-0.5-0.3-1.1-0.6-1.6-0.8
							c0,0.1,0.1,0.2,0.1,0.3c-0.2,4-4.3,5.8-7.6,5.8c-3.3,0-7.4-1.8-7.6-5.8c0-0.1,0.1-0.2,0.1-0.3
							C514.1,221,513.6,221.3,513.1,221.6z"/>
					</g>
					<g>
						<polygon class="st13" points="499.9,259.2 498.7,245.9 489.2,246.1 487.4,259.2 						"/>
						<path class="st23" d="M497.9,229c-3.9,1.2-7.2,6.2-7.9,11.5c-0.3,1.8-0.5,3.7-0.8,5.5c2.7,0,6.1,0.7,9.7,2.9
							C498.5,243.6,497.9,234,497.9,229z"/>
					</g>
					<g>
						<polygon class="st13" points="544.4,259.2 545.5,245.9 555,246.1 556.9,259.2 						"/>
						<path class="st23" d="M546.3,229c3.9,1.2,7.2,6.2,7.9,11.5c0.3,1.8,0.5,3.7,0.8,5.5c-2.7,0-6.1,0.7-9.7,2.9
							C545.7,243.6,546.4,234,546.3,229z"/>
					</g>
				</g>
				<g>
					<g>
						<g>
							<path class="st13" d="M522.1,175.1c-5.8,0.2-16.9,3.6-18.8,13.7c-0.4,2.2-0.9,4.2-0.3,7c-1.1,0.1-3.4-0.1-4,2.5
								c-0.7,3.2,3.2,7.5,6.3,6c0.3,1.8,1.2,3.5,2.6,4.9c3.6,3.5,9.3,9.1,14.2,9.2c4.8-0.1,10.6-5.6,14.2-9.2c1.4-1.4,2.3-3,2.6-4.9
								c3.1,1.5,7-2.8,6.3-6c-0.6-2.6-2.9-2.4-4-2.5c0.7-2.8,0.1-4.8-0.3-7C539,178.8,527.9,175.3,522.1,175.1z"/>
							<path class="st18" d="M503.1,200.5c0.4-0.4,0.6-1,0.3-1.6c-0.5-1-2-0.9-2.5,0c-0.4,0.7-0.2,2.1,1,3.2c0.7,0.6,2.2,1.1,2,0.4
								C503.7,202.1,502.7,201,503.1,200.5z"/>
							<path class="st18" d="M541.1,200.5c-0.4-0.4-0.6-1-0.3-1.6c0.5-1,2-0.9,2.5,0c0.4,0.7,0.2,2.1-1,3.2c-0.7,0.6-2.2,1.1-2,0.4
								C540.5,202.1,541.5,201,541.1,200.5z"/>
						</g>
						<g>
							<path class="st9" d="M529.3,193.9c-0.2,0.5,1.6,0.3,3.9,1.4c0.8,0.4,1.5,1,1.8,0.5C535.6,194.6,529.8,192.5,529.3,193.9z"/>
							<path class="st4" d="M534,199.8c-0.7,0.1-2.3,1-4.2,0.9h0c-0.2,0-0.5,0-0.7-0.1c-0.9-0.3-1.3-1.3-0.9-2.2
								c0.3-0.9,1.2-1.2,2.2-1.2C531.5,197.2,534.1,197.7,534,199.8z"/>
							<path class="st24" d="M529.1,200.6c-0.9-0.3-1.3-1.3-0.9-2.2c0.3-0.9,1.3-1.3,2.2-0.9c0.9,0.3,1.3,1.3,0.9,2.2
								C530.9,200.5,529.9,200.9,529.1,200.6z"/>
							<path class="st4" d="M529.2,198.9c-0.4-0.2-0.6-0.6-0.5-1.1c0.2-0.4,0.6-0.6,1.1-0.5c0.4,0.2,0.6,0.6,0.5,1.1
								C530.1,198.9,529.6,199.1,529.2,198.9z"/>
						</g>
						<g>
							<path class="st19" d="M534.8,204.6c-2.2,1.2-4.9,2.4-5.4,1.4c-0.5-0.9-0.6-3.6,2.9-4.9c3.5-1.3,4.9,0.2,4.9,0.9
								C537.4,202.8,537,203.4,534.8,204.6z"/>
							<path class="st19" d="M509.4,204.6c2.2,1.2,4.9,2.4,5.4,1.4c0.5-0.9,0.6-3.6-2.9-4.9c-3.5-1.3-4.9,0.2-4.9,0.9
								C506.9,202.8,507.2,203.4,509.4,204.6z"/>
							<path class="st18" d="M522.1,203.4c-1.1,0-2.4,0.4-2.7,1.3c0.1-1.2,1.4-1.7,2.7-1.7c1.3,0,2.6,0.4,2.7,1.7
								C524.5,203.8,523.2,203.4,522.1,203.4z"/>
							<path class="st14" d="M522.1,204.5c-1,0-2.1,0.5-2.3,0.3c-0.3-0.4,0.7-1.3,2.3-1.2c1.6,0,2.7,0.8,2.3,1.2
								C524.3,205,523.1,204.5,522.1,204.5z"/>
						</g>
						<g>
							<path class="st9" d="M522.1,211c-0.7,0-1.4-0.1-2-0.4c-0.7-0.3-1.1-0.8-2-1.3c1,0.4,2.6,0.6,4,0.7L522.1,211z"/>
							<path class="st9" d="M522.1,211c0.7,0,1.4-0.1,2-0.4c0.7-0.3,1.1-0.8,2-1.3c-1,0.4-2.6,0.6-4,0.7V211z"/>
							<path class="st19" d="M522.1,211.3c-0.9,0-2-0.4-2.2-0.2c-0.2,0.3,0.6,0.9,2.1,0.9c1.5,0,2.5-0.6,2.1-0.9
								C524.1,210.9,523,211.3,522.1,211.3z"/>
							<path class="st18" d="M522.1,212.1c0.5,0,2-0.1,2.4-0.9c-0.3,0.9-1.8,1.1-2.4,1.1c-0.7,0-2.2-0.2-2.4-1.1
								C520.2,212,521.6,212.1,522.1,212.1z"/>
						</g>
						<path class="st11" d="M534,199.8c0.1-0.5-0.3-1.4-1.1-1.8c-1.3-0.7-3.4-0.7-4.7,0.4c1.2-2.2,4.3-2,5.6-1
							C534.6,198,534.7,199.2,534,199.8z"/>
						<g>
							<path class="st4" d="M510.2,199.8c0.7,0.1,2.3,1,4.2,0.9h0c0.2,0,0.5,0,0.7-0.1c0.9-0.3,1.3-1.3,0.9-2.2
								c-0.3-0.9-1.2-1.2-2.2-1.2C512.7,197.2,510.2,197.7,510.2,199.8z"/>
							<path class="st24" d="M515.1,200.6c0.9-0.3,1.3-1.3,0.9-2.2c-0.3-0.9-1.3-1.3-2.2-0.9c-0.9,0.3-1.3,1.3-0.9,2.2
								C513.3,200.5,514.3,200.9,515.1,200.6z"/>
							<path class="st4" d="M515.1,198.9c0.4-0.2,0.6-0.6,0.5-1.1c-0.2-0.4-0.6-0.6-1.1-0.5c-0.4,0.2-0.6,0.6-0.5,1.1
								C514.2,198.9,514.6,199.1,515.1,198.9z"/>
							<path class="st9" d="M515,193.9c0.2,0.5-1.6,0.3-3.9,1.4c-0.8,0.4-1.5,1-1.8,0.5C508.6,194.6,514.4,192.5,515,193.9z"/>
							<path class="st11" d="M510.2,199.8c-0.1-0.5,0.3-1.4,1.1-1.8c1.3-0.7,3.4-0.7,4.7,0.4c-1.2-2.2-4.3-2-5.6-1
								C509.6,198,509.5,199.2,510.2,199.8z"/>
						</g>
					</g>
					<g>
						<path class="st25" d="M508.7,198.8l0.8-1.8l-3.7-1.2c-0.4-0.1-1.6-0.5-2.9-0.5v0.4c1,0,2,0.4,2.8,1L508.7,198.8z"/>
						<path class="st25" d="M535.5,198.8l-0.8-1.8l3.7-1.2c0.4-0.1,1.6-0.5,2.9-0.5l0,0.4c-1-0.1-2,0.4-2.8,1L535.5,198.8z"/>
						<path class="st26" d="M514.1,205.3c2.9,0,5.3-2.4,5.3-5.3c0-1.5-0.6-2.8-1.5-3.7h0c-1-1-2.3-1.5-3.7-1.5v-0.6
							c1.6,0,3.1,0.7,4.1,1.7h0c1.1,1.1,1.7,2.5,1.7,4.1c0,3.2-2.6,5.9-5.9,5.9V205.3z M514.1,205.3L514.1,205.3l0,0.6h0
							c-1.6,0-3.1-0.7-4.1-1.7c-1.1-1.1-1.7-2.5-1.7-4.1c0-1.6,0.7-3.1,1.7-4.1h0c1.1-1.1,2.5-1.7,4.1-1.7h0v0.6h0
							c-1.5,0-2.8,0.6-3.7,1.5h0c-1,1-1.5,2.3-1.5,3.7c0,1.5,0.6,2.8,1.5,3.7C511.3,204.7,512.7,205.3,514.1,205.3z"/>
						<path class="st26" d="M530.3,194.2c1.6,0,3.1,0.7,4.1,1.7c1.1,1.1,1.7,2.5,1.7,4.1c0,1.6-0.7,3.1-1.7,4.1h0
							c-1.1,1.1-2.5,1.7-4.1,1.7v-0.6c1.5,0,2.8-0.6,3.7-1.5c1-1,1.5-2.3,1.5-3.7c0-1.5-0.6-2.8-1.5-3.7h0c-1-1-2.3-1.5-3.7-1.5
							V194.2z M530.3,205.9c-3.2,0-5.9-2.6-5.9-5.9c0-1.6,0.7-3.1,1.7-4.1l0,0c1.1-1.1,2.5-1.7,4.1-1.7v0.6c-1.5,0-2.8,0.6-3.7,1.5
							c-1,1-1.5,2.3-1.5,3.7c0,2.9,2.4,5.3,5.3,5.3V205.9z"/>
						<path class="st25" d="M519.5,200.3c0.5-0.5,1.6-0.9,2.6-0.9c1,0,2.1,0.4,2.6,0.9c-0.1-0.4-0.1-0.8-0.1-1.3
							c0-0.2-1.3-0.8-2.6-0.8c-1.3,0-2.6,0.6-2.6,0.8C519.6,199.5,519.6,199.8,519.5,200.3z"/>
					</g>
					<g>
						<path class="st27" d="M521,192.9c-0.8,0.5-2.5,0.5-3.1,0.2c-1-0.4-2.8-2.9-2.1-6.6c-1.7,1.8-1.5,4.8-0.9,6.1
							c-2.6-0.2-4.6-1.7-4.6-4.2c-4.8,3.4-6.1,5.5-5.4,12.9c-0.9-1.8-1.6-2.9-2.9-5.3c-2.5-4.5-7.1-8.5-5.6-12.8
							c2.3-6.9,9.5-17.7,17.8-19.6c2.4-0.5,5.1,0.4,8,0.7c2.9-0.2,5.5-1.2,8-0.7c8.3,1.9,15.5,12.7,17.8,19.6
							c1.5,4.4-3.1,8.4-5.6,12.8c-1.4,2.4-2,3.5-2.9,5.3c0.7-7.4-0.6-9.5-5.4-12.9c0,2.5-2,3.9-4.6,4.2c0.6-1.2,0.8-4.3-0.9-6.1
							c0.7,3.7-1.1,6.2-2.1,6.6c-0.6,0.4-2.3,0.3-3.1-0.2c0.9-4.6-0.3-7.6-1.1-8.1C521.4,185.4,520.1,187.9,521,192.9z"/>
						<path class="st28" d="M509.9,170.6c3.4-1,4.8-1,5.6-0.5c-2.5,0.5-5.7,2.6-6.6,5.5c2.3-1.8,3.3-3.6,6.5-3.8
							c-1.5,0.5-3.1,7-1.8,10.6c0.5-3.4,1.5-5.6,3.7-8.2c-0.9,1.9-0.2,4.8,1.9,6.9c-1.2-3.9,2.2-4.8,2.8-6.7c2.2,1.1,3.6,4.9,2,6.7
							c3.7,0.5,3.7-4.9,2.8-6.9c2.3,2.6,2.5,3.4,3,6.8c2.3-4,0.5-8.7-1.1-9.2c3.1,0.2,4.2,1.9,6.5,3.8c-0.9-2.9-4.1-5-6.6-5.5
							c0.8-0.5,2.2-0.4,5.6,0.5c-3.3-3.2-9.2-5.6-11.5-2.5c0.9-0.2,2.4,0.3,3.4,0.7c-0.7,0.3-3.5-0.5-4,0.9c-0.9-1.1-3.4-0.6-4-0.9
							c1-0.4,2.5-0.9,3.4-0.7C519.1,164.9,513.2,167.4,509.9,170.6z"/>
					</g>
				</g>
			</g>
			<g>
				<g>
					<g>
						<path class="st13" d="M394.8,220.9c3.1,0.6,5.7,1.2,8,2.5c4.6,2.6,9.4,3.8,16.2,6c3.9,1.2,7.1,6.3,7.9,11.5l3.2,18.3h-35.3
							h-35.3l3.2-18.3c0.8-5.3,4-10.3,7.9-11.5c6.8-2.2,11.7-3.4,16.2-6C389.2,222.1,391.7,221.5,394.8,220.9z"/>
						<path class="st14" d="M385.7,225c0.9-2.6,1.2-5,1.1-11.7h8.1h8c-0.1,6.7,0.2,9.1,1.1,11.7c-0.2,4.3-5.3,6.1-9.2,6.1
							C390.9,231.2,385.9,229.3,385.7,225z"/>
						<path class="st29" d="M394.8,238.1c-13.8,0-16.4-5.7-19.7-10.1c-1.4,0.4-2.9,0.9-4.5,1.4c-3.9,1.2-7,6.3-7.9,11.5l-3.2,18.3
							h35.3h35.3l-3.2-18.3c-0.9-5.2-4-10.3-7.9-11.5c-1.6-0.5-3.1-1-4.5-1.4C411.3,232.4,408.6,238.1,394.8,238.1z"/>
					</g>
					<g>
						<path class="st30" d="M375,233.3c0.8,0,1.5-0.7,1.5-1.5c0-0.8-0.7-1.5-1.5-1.5c-0.8,0-1.5,0.7-1.5,1.5
							C373.5,232.6,374.1,233.3,375,233.3z"/>
						<path class="st30" d="M395.6,246.1c0.8,0,1.5-0.7,1.5-1.5s-0.7-1.5-1.5-1.5c-0.8,0-1.5,0.7-1.5,1.5S394.7,246.1,395.6,246.1z"
							/>
						<path class="st30" d="M381.8,248.6c0.8,0,1.5-0.7,1.5-1.5c0-0.8-0.7-1.5-1.5-1.5c-0.8,0-1.5,0.7-1.5,1.5
							C380.4,248,381,248.6,381.8,248.6z"/>
						<path class="st30" d="M375.5,242c0.8,0,1.5-0.7,1.5-1.5c0-0.8-0.7-1.5-1.5-1.5c-0.8,0-1.5,0.7-1.5,1.5
							C374,241.3,374.7,242,375.5,242z"/>
						<path class="st30" d="M384.7,259.2c-0.1-0.8-0.7-1.4-1.5-1.4c-0.8,0-1.4,0.6-1.5,1.4H384.7z"/>
						<path class="st30" d="M376.7,255.9c0.8,0,1.5-0.7,1.5-1.5c0-0.8-0.7-1.5-1.5-1.5c-0.8,0-1.5,0.7-1.5,1.5
							C375.2,255.2,375.9,255.9,376.7,255.9z"/>
						<path class="st30" d="M387.7,241.2c0.8,0,1.5-0.7,1.5-1.5c0-0.8-0.7-1.5-1.5-1.5c-0.8,0-1.5,0.7-1.5,1.5
							C386.2,240.5,386.8,241.2,387.7,241.2z"/>
						<path class="st30" d="M410.3,257.7c0.8,0,1.5-0.7,1.5-1.5c0-0.8-0.7-1.5-1.5-1.5c-0.8,0-1.5,0.7-1.5,1.5
							C408.8,257,409.5,257.7,410.3,257.7z"/>
						<path class="st30" d="M397.6,258.7c0.8,0,1.5-0.7,1.5-1.5s-0.7-1.5-1.5-1.5c-0.8,0-1.5,0.7-1.5,1.5S396.8,258.7,397.6,258.7z"
							/>
						<path class="st30" d="M401.4,239.1c0.8,0,1.5-0.7,1.5-1.5c0-0.1,0-0.3-0.1-0.4c-0.9,0.2-1.9,0.4-2.9,0.5
							C400,238.5,400.6,239.1,401.4,239.1z"/>
						<path class="st30" d="M414.7,236.7c0.8,0,1.5-0.7,1.5-1.5c0-0.8-0.7-1.5-1.5-1.5c-0.8,0-1.5,0.7-1.5,1.5
							C413.2,236.1,413.9,236.7,414.7,236.7z"/>
						<path class="st30" d="M408.9,244.6c0.8,0,1.5-0.7,1.5-1.5s-0.7-1.5-1.5-1.5c-0.8,0-1.5,0.7-1.5,1.5S408.1,244.6,408.9,244.6z"
							/>
						<path class="st30" d="M417,249.5c0.8,0,1.5-0.7,1.5-1.5c0-0.8-0.7-1.5-1.5-1.5c-0.8,0-1.5,0.7-1.5,1.5
							C415.5,248.8,416.1,249.5,417,249.5z"/>
						<path class="st30" d="M403.1,252.1c0.8,0,1.5-0.7,1.5-1.5c0-0.8-0.7-1.5-1.5-1.5c-0.8,0-1.5,0.7-1.5,1.5
							C401.6,251.5,402.3,252.1,403.1,252.1z"/>
						<path class="st30" d="M390.2,253.9c0.8,0,1.5-0.7,1.5-1.5c0-0.8-0.7-1.5-1.5-1.5c-0.8,0-1.5,0.7-1.5,1.5
							C388.7,253.2,389.3,253.9,390.2,253.9z"/>
					</g>
					<g>
						<path class="st13" d="M370.7,229.4c-3.9,1.2-7.1,6.3-7.9,11.5l-3.2,18.3H372C372.8,251.2,371.3,235.1,370.7,229.4z"/>
						<path class="st13" d="M419,229.4c3.9,1.2,7.1,6.3,7.9,11.5l3.2,18.3h-12.5C416.9,251.2,418.4,235.1,419,229.4z"/>
					</g>
				</g>
				<g>
					<g>
						<path class="st13" d="M394.8,176.1c-10.2,0-19.8,10-17,27.3c1.2,7.7,12.4,16.1,17,16.2c4.6,0.1,15.7-8.5,17-16.2
							C414.6,186.2,405,176.1,394.8,176.1z"/>
						<g>
							<path class="st18" d="M394.8,202.1c-1.3,0-2.7,0.5-3.1,1.7c0.1-1.6,1.6-2.2,3.1-2.2c1.5,0,3,0.6,3.1,2.2
								C397.6,202.7,396.1,202.1,394.8,202.1z"/>
							<path class="st14" d="M394.8,203.6c-1.1,0-2.5,0.7-2.7,0.4c-0.3-0.5,0.8-1.7,2.7-1.6c1.9,0,3.1,1.1,2.7,1.6
								C397.3,204.2,395.9,203.6,394.8,203.6z"/>
							<path class="st19" d="M383.4,204.2c2.1,0.9,4.8,1.7,5.1,0.8c0.4-0.9,0.2-3.4-3.2-4.3c-3.4-0.9-4.5,0.7-4.5,1.4
								C380.9,202.7,381.3,203.3,383.4,204.2z"/>
							<path class="st19" d="M408,203.7c-2,1.1-4.6,2.2-5,1.4c-0.5-0.9-0.6-3.4,2.7-4.6c3.3-1.3,4.6,0.1,4.6,0.9
								C410.3,202,410,202.6,408,203.7z"/>
						</g>
						<g>
							<path class="st9" d="M394.8,210.8c-1.8,0-4.4-1.1-5.3-2.3c1.6,1,3.5,1.1,5.3,1.1c2,0,3.9-0.3,5.3-1.1
								C399.3,209.7,396.7,210.8,394.8,210.8z"/>
							<path class="st19" d="M394.9,211.4c-1.2,0-2.8-0.6-3-0.3c-0.3,0.4,0.9,1.4,3,1.4c2.1,0,3.4-0.9,3-1.4
								C397.6,210.9,396.1,211.4,394.9,211.4z"/>
							<path class="st18" d="M394.9,212.6c0.8,0,2.7-0.2,3.4-1.3c-0.4,1.3-2.4,1.6-3.4,1.6c-1,0-3-0.4-3.4-1.6
								C392.2,212.5,394.1,212.6,394.9,212.6z"/>
						</g>
						<g>
							<path class="st4" d="M382.1,198.3c1,0.1,2.3,1.2,3.1,1.7c0.9,0.6,2.6,0.6,2.8-1c0.1-1.4-1.6-2-2.7-2.1
								C384.3,196.8,382.4,197,382.1,198.3z"/>
							<path class="st10" d="M387.1,193.6c0.2,0.7-1.6,0.6-2.8,0.8c-1.2,0.2-2.4,0.6-2.5-0.2C381.5,192.4,386.7,192.2,387.1,193.6z"
								/>
							<path class="st24" d="M386.5,200.5c0.9,0,1.6-0.7,1.6-1.6c0-0.9-0.7-1.6-1.6-1.6c-0.9,0-1.6,0.7-1.6,1.6
								C384.9,199.8,385.6,200.5,386.5,200.5z"/>
							<path class="st4" d="M386.8,199.3c0.4,0,0.8-0.4,0.8-0.8c0-0.4-0.4-0.8-0.8-0.8c-0.4,0-0.8,0.4-0.8,0.8
								C386,198.9,386.3,199.3,386.8,199.3z"/>
							<path class="st10" d="M382.1,198.3c0.6-1.5,5.5-1.6,6,0.5c-0.1-2.2-3.8-3-5.9-2.3C381.1,197,380.7,198,382.1,198.3z"/>
						</g>
						<g>
							<path class="st4" d="M407.6,198.3c-1,0.1-2.3,1.2-3.1,1.7c-0.9,0.6-2.6,0.6-2.8-1c-0.1-1.4,1.6-2,2.7-2.1
								C405.4,196.8,407.3,197,407.6,198.3z"/>
							<path class="st10" d="M402.6,193.6c-0.2,0.7,1.6,0.6,2.8,0.8c1.2,0.2,2.4,0.6,2.5-0.2C408.2,192.4,403,192.2,402.6,193.6z"/>
							<path class="st24" d="M403.2,200.5c-0.9,0-1.6-0.7-1.6-1.6c0-0.9,0.7-1.6,1.6-1.6c0.9,0,1.6,0.7,1.6,1.6
								C404.8,199.8,404.1,200.5,403.2,200.5z"/>
							<path class="st4" d="M402.9,199.3c-0.4,0-0.8-0.4-0.8-0.8c0-0.4,0.4-0.8,0.8-0.8c0.4,0,0.8,0.4,0.8,0.8
								C403.7,198.9,403.4,199.3,402.9,199.3z"/>
							<path class="st10" d="M407.6,198.3c-0.6-1.5-5.5-1.6-6,0.5c0.1-2.2,3.8-3,5.9-2.3C408.6,197,409,198,407.6,198.3z"/>
						</g>
					</g>
					<g>
						<path class="st10" d="M394.8,182.9c2,1.3,3.7,5.7,3.4,8c0.9-1,1.3-2.2,0.3-7.7c1.7,2.1,2.8,4.5,1.9,7.8
							c2.7,0.2,5.3,0.8,8.3,2.4c0.7-3.7-2.3-8.9-4.8-10.9c6.4,2.1,8.5,18.7,5.1,29.3c1-1.8,10.5-11.8,12.6-14.2
							c2-2.4,1.6-7.2,0.9-10.2c-3.7-15.3-16.4-25.5-27.8-21.5c-11.3-4-24.1,6.2-27.8,21.5c-0.7,3-1.1,7.8,0.9,10.2
							c2,2.4,11.5,12.4,12.6,14.2c-3.3-10.6-1.2-27.2,5.1-29.3c-2.5,2.1-5.5,7.2-4.8,10.9c2.9-1.6,5.6-2.2,8.3-2.4
							c-0.9-3.3,0.2-5.7,1.9-7.8c-1,5.4-0.6,6.7,0.3,7.7C391.2,188.6,392.8,184.1,394.8,182.9z"/>
						<path class="st12" d="M379.2,173.4c4.4-1.2,6.2-1.3,7.2-0.7c-3.2,0.7-7.4,3.3-8.5,7.1c2.9-2.4,5.8-4.2,9.8-4.4
							c-2,0.7-4.5,2.5-5.5,4.7c2.3-2.3,6.6-4.7,11.1-4.7c-0.7-1.8-2.8-1.9-3.7-2.3c1.3-0.6,2.9-0.9,4-0.6
							C392.1,167.1,383.4,169.3,379.2,173.4z"/>
						<path class="st12" d="M410.5,173.4c-4.4-1.2-6.2-1.3-7.2-0.7c3.2,0.7,7.4,3.3,8.5,7.1c-2.9-2.4-5.8-4.2-9.8-4.4
							c2,0.7,4.5,2.5,5.5,4.7c-2.3-2.3-6.6-4.7-11.1-4.7c0.7-1.8,2.8-1.9,3.7-2.3c-1.3-0.6-2.9-0.9-4-0.6
							C397.6,167.1,406.3,169.3,410.5,173.4z"/>
					</g>
				</g>
			</g>
			<g>
				<g>
					<path class="st31" d="M647.9,220.9c3.1,0.6,5.7,1.2,8,2.5c4.6,2.6,9.4,3.8,16.2,6c3.9,1.2,7.1,6.3,7.9,11.5l3.2,18.3l-35.3,0
						h-35.3l3.2-18.3c0.8-5.3,4-10.3,7.9-11.5c6.8-2.2,11.7-3.4,16.2-6C642.3,222.1,644.8,221.5,647.9,220.9z"/>
					<path class="st32" d="M639.5,225c0.8-2.6,1.1-5,1-11.7h7.4h7.4c-0.1,6.7,0.2,9.1,1,11.7c-0.2,4.3-4.8,6.1-8.4,6.1
						C644.3,231.2,639.7,229.3,639.5,225z"/>
					<path class="st33" d="M647.9,259.2l35.3,0l-3.2-18.3c-0.9-5.2-4-10.3-7.9-11.5c-1.6-0.5-3.1-1-4.5-1.4
						c-0.9,5.5-2.1,7.6-2.5,10.8c-4.8-0.1-11.5-0.7-17.2-0.7c-5.7,0-12.4,0.6-17.2,0.7c-0.4-3.3-1.6-5.4-2.5-10.8
						c-1.4,0.4-2.9,0.9-4.5,1.4c-3.9,1.2-7,6.3-7.9,11.5l-3.2,18.3H647.9z"/>
					<path class="st31" d="M623.8,229.4c-3.9,1.2-7.1,6.3-7.9,11.5l-3.2,18.3h12.5C625.9,251.2,624.4,235.1,623.8,229.4z"/>
					<path class="st31" d="M672.1,229.4c3.9,1.2,7.1,6.3,7.9,11.5l3.2,18.3l-12.5,0C670,251.2,671.5,235.1,672.1,229.4z"/>
				</g>
				<g>
					<g>
						<path class="st31" d="M647.9,176.1c-11.8,0-22.9,10-19.7,27.3c0.6,3,2.7,6.2,6,9.5c2.7,2.8,11.3,8,13.7,8
							c2.4,0,10.9-5.2,13.7-8c3.3-3.3,5.5-6.6,6-9.6C670.9,186.2,659.7,176.1,647.9,176.1z"/>
						<g>
							<g>
								<path class="st34" d="M647.9,201.9c-1.3,0-2.7,0.7-3.1,2.1c0.1-2.1,1.6-2.9,3.1-2.9c1.5,0,3,0.8,3.1,2.9
									C650.7,202.6,649.2,201.9,647.9,201.9z"/>
								<path class="st35" d="M647.9,203.6c-1.1,0-2.5,0.9-2.7,0.5c-0.3-0.7,0.8-2,2.7-1.9c1.9,0,3,1.2,2.6,1.9
									C650.4,204.4,649,203.6,647.9,203.6z"/>
								<path class="st35" d="M634.8,203.7c2,1.1,4.6,2.2,5,1.4c0.5-0.9,0.6-3.4-2.7-4.6c-3.3-1.3-4.6,0.1-4.6,0.9
									C632.5,202,632.8,202.6,634.8,203.7z"/>
								<path class="st35" d="M661.1,203.7c-2,1.1-4.6,2.2-5,1.4c-0.5-0.9-0.6-3.4,2.7-4.6c3.3-1.3,4.6,0.1,4.6,0.9
									C663.4,202,663.1,202.6,661.1,203.7z"/>
							</g>
							<g>
								<path class="st9" d="M647.9,210.8c-2.5,0-6-1.6-7.1-2.7c2.2,1,4.8,1.5,7.2,1.5c2.8,0,5.3-0.7,7.1-1.5
									C653.9,209.2,650.5,210.8,647.9,210.8z"/>
								<path class="st35" d="M647.9,211.5c-1.5,0-3.4-0.7-3.7-0.4c-0.4,0.5,1.1,1.7,3.7,1.7c2.6,0,4.2-1.1,3.7-1.7
									C651.4,210.9,649.5,211.5,647.9,211.5z"/>
								<path class="st34" d="M648,212.9c0.9,0,3.3-0.2,4.2-1.6c-0.4,1.5-3,2-4.2,2c-1.2,0-3.7-0.4-4.2-2
									C644.6,212.8,647,212.9,648,212.9z"/>
							</g>
							<g>
								<path class="st4" d="M639.1,200.1c-1.4-0.2-2.6-1.8-4.4-1.8c0.3-1.5,3-2,5-1.4c0.1,0,1.1,0.2,1.3,1.4
									C641.2,199.4,640,200.2,639.1,200.1z"/>
								<path class="st9" d="M640.1,193.1c0.1,0.7-1.7,0.2-2.9,0.2c-1.2,0-2.5,0.1-2.4-0.7C634.9,190.8,640,191.6,640.1,193.1z"/>
								<path class="st36" d="M639.6,200c0.9-0.1,1.5-1,1.3-1.8c-0.1-0.9-1-1.5-1.8-1.3c-0.9,0.1-1.5,1-1.3,1.8
									C637.9,199.5,638.7,200.1,639.6,200z"/>
								<path class="st4" d="M639.7,198.4c0.4-0.1,0.7-0.5,0.6-0.9c-0.1-0.4-0.5-0.7-0.9-0.6c-0.4,0.1-0.7,0.5-0.6,0.9
									C638.9,198.2,639.3,198.5,639.7,198.4z"/>
								<path class="st11" d="M634.5,198.7c0.4-2,5.8-3,6.8-0.5c-0.5-2.7-4.9-3-7-1.6C633.1,197.3,632.8,198.5,634.5,198.7z"/>
							</g>
							<g>
								<path class="st4" d="M656.8,200.1c1.4-0.2,2.6-1.8,4.4-1.8c-0.3-1.5-3-2-5-1.4c-0.1,0-1.1,0.2-1.3,1.4
									C654.7,199.4,655.9,200.2,656.8,200.1z"/>
								<path class="st9" d="M655.8,193.1c-0.1,0.7,1.7,0.2,2.9,0.2c1.2,0,2.5,0.1,2.4-0.7C661,190.8,655.9,191.6,655.8,193.1z"/>
								<path class="st36" d="M656.3,200c-0.9-0.1-1.5-1-1.3-1.8c0.1-0.9,1-1.5,1.8-1.3c0.9,0.1,1.5,1,1.3,1.8
									C658,199.5,657.2,200.1,656.3,200z"/>
								<path class="st4" d="M656.2,198.4c-0.4-0.1-0.7-0.5-0.6-0.9c0.1-0.4,0.5-0.7,0.9-0.6c0.4,0.1,0.7,0.5,0.6,0.9
									C657,198.2,656.6,198.5,656.2,198.4z"/>
								<path class="st11" d="M661.4,198.7c-0.4-2-5.8-3-6.8-0.5c0.5-2.7,4.9-3,7-1.6C662.8,197.3,663.1,198.5,661.4,198.7z"/>
							</g>
						</g>
					</g>
					<g>
						<g>
							<path class="st37" d="M647.9,165.8c-11.3-4-21.8,4.3-27.8,18.8c-1.7,4.2-3.6,9.7,0,14.3c2.8,3.6,5.7,7.2,6,10
								c2.3,1.3,3.2,0.6,4.3-0.6c-2.4-9.3,2.4-24,8.3-26c-2.5,2.1-5.5,7.2-4.8,10.9c2.9-1.6,5.6-2.2,8.3-2.4
								c-0.9-3.3,0.2-5.6,1.9-7.8c-1,5.4-0.6,6.7,0.3,7.7c-0.2-2.3,1.4-6.7,3.4-8c2,1.3,3.7,5.7,3.4,8c0.9-1,1.3-2.2,0.3-7.7
								c1.7,2.1,2.8,4.5,1.9,7.8c2.7,0.2,5.3,0.8,8.3,2.4c0.7-3.7-2.3-8.9-4.8-10.9c5.9,2,10.7,16.7,8.3,26c1.1,1.2,2,1.9,4.3,0.6
								c0.3-2.8,3.2-6.4,6-10c3.6-4.6,1.7-10.2,0-14.3C669.8,170.1,659.3,161.9,647.9,165.8z"/>
							<path class="st38" d="M663.6,173.4c-4.4-1.2-6.2-1.3-7.2-0.7c3.2,0.7,7.4,3.3,8.5,7.1c-2.9-2.4-5.8-4.2-9.8-4.4
								c2,0.7,4.5,2.5,5.5,4.7c-2.3-2.3-6.6-4.7-11.1-4.7c0.7-1.8,2.8-1.9,3.7-2.3c-1.3-0.6-2.9-0.9-4-0.6
								C650.7,167.1,659.4,169.3,663.6,173.4z"/>
							<path class="st38" d="M632.3,173.4c4.4-1.2,6.2-1.3,7.2-0.7c-3.2,0.7-7.4,3.3-8.5,7.1c2.9-2.4,5.8-4.2,9.8-4.4
								c-2,0.7-4.5,2.5-5.5,4.7c2.3-2.3,6.6-4.7,11.1-4.7c-0.7-1.8-2.8-1.9-3.7-2.3c1.3-0.6,2.9-0.9,4-0.6
								C645.2,167.1,636.5,169.3,632.3,173.4z"/>
						</g>
						<g>
							<path class="st37" d="M670.3,240.3c-0.2-1.4-1-1.4-1.9-4.1c-0.3,0.9,0.7,2.9,0.9,3.4c-2.2-0.6-4.5-1.7-4.6-6.1
								c-0.2,1.1-0.2,1.3,0.3,3.4c-3.6-3.5-1-7.9,2.9-8.3c1.7-0.2,3.7,0.1,4.8,1.3c2.4,2.6,0.4,5.3,0.4,7.4c-1.4-0.9-0.9-2-1.5-3
								C672.3,236.3,671.1,239.5,670.3,240.3z"/>
							<path class="st38" d="M667.5,229.3c3,0,2.7,2.4,2.5,3.2c-0.3,0.9,0.1,4.6,0.5,5.5c-2.4-1.8-2.3-5.1-2.4-6
								c-0.4,0.6-1.4,2.5-0.9,4.6C664.3,232.8,665,229.8,667.5,229.3z"/>
							<path class="st39" d="M668.6,230.5c-1.6,0.2-3.1-0.5-3.2-1.5c-0.1-1,1.1-2,2.7-2.2c1.6-0.2,3.1,0.5,3.2,1.5
								C671.5,229.4,670.2,230.3,668.6,230.5z"/>
							<path class="st37" d="M668.8,208.1c-0.9-0.3-2-0.5-3-0.4c-1,1.7-2.5,3.4-4.2,5.2c-0.3,0.3-0.6,0.6-0.9,0.9
								c0.3,2.7,2.2,5.2,3.3,5.9c-2.1,2.6-2.4,9.9,4.5,9.1c5.8-0.7,4.5-7.4,2.2-9.9C672.9,216.8,673.4,209.6,668.8,208.1z"/>
							<path class="st40" d="M669.6,219.9c-1.1,0.5-1.5,2.1-1.6,3.6c0.5-0.8,0.9-1.4,2.8-1.5c-2.6,1.9-2.8,4.7-2.8,5.2
								c-0.7-5.4-3-6.6-3-6.6c0.6,0.2,1.6,0.7,2.3,2C667.1,221.3,668.5,220,669.6,219.9z"/>
							<path class="st40" d="M667,218.6c2.4-1.1,4.8-4.3,3.1-7.5c0.1,2.8-0.3,3.8-1.7,5.5c1.1-2.4,1.4-5.9,0.3-7.1
								c0.2,1.2-0.2,2.4-0.6,3c-0.4-2.1-1.4-3-2.6-2.9C667.4,209.4,668.5,216.8,667,218.6z"/>
							<path class="st38" d="M665.9,218.8c-2.5,0.1-3.2-1.7-3.5-3.5c-0.2-1.5,0.6-3.1,2-4.3c0.7,2.3-1,3.2,0.7,4.9
								c0.2-1.1,1-2.4,1.6-2.7C667.6,217.4,665.4,218.1,665.9,218.8z"/>
							<path class="st38" d="M666.4,228.1c-3.4-0.6-3.6-5.3-2.4-7.2C665.7,221.2,667.8,226.4,666.4,228.1z"/>
							<path class="st38" d="M668.8,228.3c2.9,0,4.8-3.8,2.7-6.3C669.9,222.7,667,227,668.8,228.3z"/>
						</g>
						<g>
							<path class="st37" d="M625.6,240.3c0.2-1.4,1-1.4,1.9-4.1c0.3,0.9-0.7,2.9-0.9,3.4c2.2-0.6,4.5-1.7,4.6-6.1
								c0.2,1.1,0.2,1.4-0.3,3.4c3.6-3.5,1-7.9-2.9-8.3c-1.7-0.2-3.7,0.1-4.8,1.3c-2.4,2.6-0.4,5.3-0.4,7.4c1.4-0.9,0.9-2,1.5-3
								C623.6,236.3,624.8,239.5,625.6,240.3z"/>
							<path class="st38" d="M628.4,229.3c-3,0-2.7,2.4-2.5,3.2c0.3,0.9-0.1,4.6-0.5,5.5c2.4-1.8,2.3-5.1,2.4-6
								c0.4,0.6,1.4,2.5,0.9,4.6C631.6,232.8,630.9,229.8,628.4,229.3z"/>
							<path class="st39" d="M627.3,230.5c1.6,0.2,3.1-0.5,3.2-1.5c0.1-1-1.1-2-2.7-2.2c-1.6-0.2-3.1,0.5-3.2,1.5
								C624.4,229.4,625.7,230.3,627.3,230.5z"/>
							<path class="st37" d="M627.1,208.1c0.9-0.3,2-0.5,3-0.4c1,1.7,2.5,3.4,4.2,5.2c0.3,0.3,0.6,0.6,0.9,0.9
								c-0.3,2.7-2.2,5.2-3.3,5.9c2.1,2.6,2.4,9.9-4.5,9.1c-5.8-0.7-4.5-7.4-2.2-9.9C623,216.8,622.5,209.6,627.1,208.1z"/>
							<path class="st40" d="M626.3,219.9c1.1,0.5,1.5,2.1,1.6,3.6c-0.5-0.8-0.9-1.4-2.8-1.5c2.6,1.9,2.8,4.7,2.8,5.2
								c0.7-5.4,3-6.6,3-6.6c-0.6,0.2-1.6,0.7-2.3,2C628.8,221.3,627.4,220,626.3,219.9z"/>
							<path class="st40" d="M628.9,218.6c-2.4-1.1-4.8-4.3-3.1-7.5c-0.1,2.8,0.3,3.8,1.7,5.5c-1.1-2.4-1.4-5.9-0.3-7.1
								c-0.2,1.2,0.2,2.4,0.6,3c0.4-2.1,1.4-3,2.6-2.9C628.5,209.4,627.4,216.8,628.9,218.6z"/>
							<path class="st38" d="M630,218.8c2.5,0.1,3.2-1.7,3.5-3.5c0.2-1.5-0.6-3.1-2-4.3c-0.7,2.3,1,3.2-0.7,4.9
								c-0.2-1.1-1-2.4-1.6-2.7C628.2,217.4,630.5,218.2,630,218.8z"/>
							<path class="st38" d="M629.5,228.1c3.4-0.6,3.6-5.3,2.4-7.2C630.2,221.2,628.1,226.4,629.5,228.1z"/>
							<path class="st38" d="M627.1,228.3c-2.9,0-4.8-3.8-2.7-6.3C626,222.7,628.9,227,627.1,228.3z"/>
						</g>
					</g>
				</g>
			</g>
			<g>
				<g>
					<g>
						<path class="st41" d="M337.5,218.2c-9.3,1.8-13.9,7.5-24.2,10.9c-3.9,1.2-7.2,6.2-7.9,11.5l-0.8,5.5l-1.9,13.2h34.7h34.7
							l-1.9-13.2l-0.8-5.5c-0.7-5.3-4-10.3-7.9-11.5C351.4,225.7,346.8,220,337.5,218.2z"/>
						<path class="st5" d="M346.1,221.3c-0.9-2.5-1.1-5-1-11.4h-7.6h0h-7.6c0.1,6.4-0.2,8.9-1,11.4c0.2,4,4.9,5.6,8.6,5.6
							C341.2,226.9,345.9,225.4,346.1,221.3z"/>
						<path class="st17" d="M327.3,222.2c1,4.2,5.2,6.3,10.2,6.3c5,0,9.2-2.1,10.2-6.3c-0.5-0.3-1.1-0.6-1.6-0.9
							c-0.4,3.9-5,5.6-8.6,5.6c-3.7,0-8.2-1.7-8.6-5.6C328.4,221.6,327.8,221.9,327.3,222.2z"/>
					</g>
					<g>
						<polygon class="st14" points="315.3,259.2 314.1,245.9 304.6,246.1 302.8,259.2 						"/>
						<path class="st17" d="M313.3,229c-3.9,1.2-7.2,6.2-7.9,11.5c-0.3,1.8-0.5,3.7-0.8,5.5c2.7,0,6.1,0.7,9.7,2.9
							C313.9,243.6,313.3,234,313.3,229z"/>
					</g>
					<g>
						<polygon class="st14" points="359.8,259.2 360.9,245.9 370.4,246.1 372.3,259.2 						"/>
						<path class="st17" d="M361.7,229c3.9,1.2,7.2,6.2,7.9,11.5c0.3,1.8,0.5,3.7,0.8,5.5c-2.7,0-6.1,0.7-9.7,2.9
							C361.1,243.6,361.8,234,361.7,229z"/>
					</g>
				</g>
				<g>
					<g>
						<g>
							<path class="st14" d="M337.5,174.4c-14.8-0.1-18.8,9-18.7,21.5c-2-0.3-3.5,0.4-3.9,2.3c-0.5,2.5,1.1,6.4,5.1,6.2
								c1.5,5.1,5.1,9.3,10.6,12.6c2.3,1.4,4,2.9,6.9,2.9s4.5-1.5,6.9-2.9c5.5-3.3,9.1-7.5,10.6-12.6c4,0.2,5.6-3.7,5.1-6.2
								c-0.4-1.9-1.9-2.6-3.9-2.3C356.3,183.4,352.3,174.3,337.5,174.4z"/>
							<path class="st18" d="M318.8,200.6c0.4-0.4,0.6-1,0.3-1.6c-0.5-1-1.9-0.9-2.4,0c-0.4,0.7-0.2,2.1,0.9,3.2
								c0.6,0.6,2,1.1,1.9,0.4C319.4,202.1,318.4,201,318.8,200.6z"/>
							<path class="st18" d="M356.2,200.6c-0.4-0.4-0.6-1-0.3-1.6c0.5-1,1.9-0.9,2.4,0c0.4,0.7,0.2,2.1-0.9,3.2
								c-0.6,0.6-2,1.1-1.9,0.4C355.6,202.1,356.6,201,356.2,200.6z"/>
						</g>
						<g>
							<g>
								<path class="st7" d="M337.5,201.2c-1.2,0-2.6,0.6-3,1.7c0.1-1.7,1.6-2.3,3-2.3c1.4,0,2.8,0.6,3,2.3
									C340.1,201.8,338.7,201.2,337.5,201.2z"/>
								<path class="st5" d="M337.5,202.8c-1,0-2.3,0.8-2.5,0.4c-0.3-0.6,0.7-1.7,2.5-1.7c1.8,0,2.9,1.2,2.5,1.7
									C339.9,203.4,338.6,202.8,337.5,202.8z"/>
								<path class="st42" d="M326.2,203.1c2.6,0.7,5.5,1.5,6,0.6c0.5-0.8-1.2-3.5-4.2-4c-3-0.5-4.4,0.8-4.8,1.6
									C322.7,202.1,323.6,202.5,326.2,203.1z"/>
								<path class="st42" d="M349,204.1c-2.6,0.7-5.5,1.5-6,0.6c-0.5-0.8,1.2-3.5,4.2-4c3-0.5,4.4,0.8,4.8,1.6
									C352.5,203,351.6,203.4,349,204.1z"/>
							</g>
							<g>
								<path class="st42" d="M336.9,210.5c-1.2-0.1-2.6-0.7-2.8-0.4c-0.3,0.4,0.7,1.3,2.8,1.4c2,0.1,3.3-0.7,2.9-1.1
									C339.5,210.2,338,210.5,336.9,210.5z"/>
								<path class="st7" d="M336.8,211.6c0.7,0,2.6,0,3.3-1c-0.4,1.1-2.4,1.3-3.3,1.3c-0.9,0-2.9-0.5-3.1-1.6
									C334.3,211.3,336.1,211.5,336.8,211.6z"/>
								<path class="st9" d="M337.5,210.3c-2.2,0-5-1.5-7.1-3.7c2.3,1.6,4.7,2.6,7.1,2.5c2.5,0,3.8-0.5,5.1-0.8
									C341,209.1,339.6,210.3,337.5,210.3z"/>
							</g>
							<g>
								<path class="st43" d="M329.6,192.5c0.4,0.6-1.4,1-2.5,1.5c-1.1,0.5-2.2,1.2-2.5,0.4C323.9,192.7,328.8,191.2,329.6,192.5z"
									/>
								<path class="st10" d="M326.2,199c-0.4-2.6,4.1-3.1,5.5-1.3c-0.8-1.8-4.5-2.6-6-0.8C325.1,197.6,325.4,198.6,326.2,199z"/>
								<path class="st4" d="M326.2,199c1.6,0.2,2.7,1.2,4.4,0.5c0.7-0.3,0.9-1.2,0.7-1.7c-0.2-0.6-0.7-1-1.4-1.1
									C328.2,196.3,325.9,197.1,326.2,199z"/>
								<path class="st25" d="M329.9,199.6c0.8,0,1.4-0.6,1.4-1.4c0-0.8-0.6-1.4-1.4-1.4c-0.8,0-1.4,0.6-1.4,1.4
									C328.5,199,329.2,199.6,329.9,199.6z"/>
								<path class="st4" d="M330.3,198.3c0.4,0,0.7-0.3,0.7-0.7c0-0.4-0.3-0.7-0.7-0.7c-0.4,0-0.7,0.3-0.7,0.7
									C329.6,198,329.9,198.3,330.3,198.3z"/>
							</g>
							<g>
								<path class="st43" d="M345.4,192.5c-0.4,0.6,1.4,1,2.5,1.5c1.1,0.5,2.2,1.2,2.5,0.4C351.1,192.7,346.2,191.2,345.4,192.5z"
									/>
								<path class="st10" d="M348.8,199c0.4-2.6-4.1-3.1-5.5-1.3c0.8-1.8,4.5-2.6,6-0.8C349.9,197.6,349.7,198.6,348.8,199z"/>
								<path class="st4" d="M348.8,199c-1.6,0.2-2.7,1.2-4.4,0.5c-0.7-0.3-0.9-1.2-0.7-1.7c0.2-0.6,0.7-1,1.4-1.1
									C346.9,196.3,349.1,197.1,348.8,199z"/>
								<path class="st25" d="M345.1,199.6c-0.8,0-1.4-0.6-1.4-1.4c0-0.8,0.6-1.4,1.4-1.4c0.8,0,1.4,0.6,1.4,1.4
									C346.5,199,345.9,199.6,345.1,199.6z"/>
								<path class="st4" d="M344.8,198.3c-0.4,0-0.7-0.3-0.7-0.7c0-0.4,0.3-0.7,0.7-0.7c0.4,0,0.7,0.3,0.7,0.7
									C345.5,198,345.2,198.3,344.8,198.3z"/>
							</g>
						</g>
					</g>
					<g>
						<path class="st44" d="M320.2,200.5c-1.2-2.4-2-7.2-0.4-11.9c-0.1,1.2,1.2,2.4,2,3.1c-1.3-4.1,1.1-5.4,2.7-11.5
							c3.6,2,8.1,3.7,12,4.5c7.4,1.6,14.3,0.5,16-1.3c3,4.6,4.2,9.2,2.5,17c7.3-8,6.7-11.9,6.1-19c-0.7,1.7-1.2,2.7-1.9,3
							c1.8-2.7,2.2-7.5,1-13.1c-0.2,1.9-1.1,3-2.1,3.4c1.7-3.4,2.2-6.7-0.7-12.5c-0.2,0.9-1.7,3.1-4.4,3.8c1.3-0.9,2.1-1.9,2.6-3.1
							c-4.7,2.7-8.5,3.2-10.6,3.2c1.3-0.5,3.2-1.3,4-2.5c-3.3,2.1-7.8,2.4-12.7,2.6c1.6-0.8,2.3-1.9,2.4-3.5
							c-0.4,2.1-4.8,3.9-7.1,3.6c0.7-0.1,2.2-1.2,2-2.9c-0.8,2.5-7.4,4.1-10.7,5.6c-1.4,0.6-4.2,2.4-4.6,3.9c0.2-1,0.9-2.2,1.8-3
							c-2.8,2-5.3,4.9-4.6,9.5c-0.7-0.5-1-0.9-1.2-2C310.7,188.8,311.3,193.2,320.2,200.5z"/>
						<path class="st45" d="M348.8,171.8c-4.7,1.7-12.6-0.1-15.6-1.2c4.4,2.2,8,3.4,13.6,3.4c-1.9,0.8-5.1,1.8-11.3-0.2
							c0.4,0.3,1,0.6,1.6,0.9c3.2,1.4,8.3,1.5,12.1,0.7c-2.2,1.4-5.3,2.4-8.7,2.8c-4.2,0.5-8.8-0.1-12-2.1c3.2,2.4,8,3.2,12.3,3.2
							c8.9,0,16.5-5.5,16.1-12.6C354.2,169.9,351.2,170.9,348.8,171.8z"/>
					</g>
				</g>
			</g>
		</g>
		<g>
			<path class="st1" d="M200,259.2h74.4c9.5,0,17.3-7.8,17.3-17.3v-74.4c0-9.5-7.8-17.3-17.3-17.3h-28.5
				c-18.5,0-62.5,74.4-63.1,91.7C182.4,251.4,190.5,259.2,200,259.2z"/>
			<g>
				<g>
					<g>
						<path class="st25" d="M267.4,163c-13.9-2.3-21.4,6.3-17.4,20.7c4.9,14.5,16.5,22.8,21.1,24.3c0.8-3.7,8.2-4.9,13.3-13.8
							c1.8-3.2,3.8-6.4,4.4-9.8C290.4,175.3,285.5,166.1,267.4,163z"/>
						<path class="st5" d="M255,217.8c0.8-0.9,0.6-14.5,0.6-16.2h16.7c0,2.2,0,11.7,0.2,13.7c0.2,4.1-12.2,10.8-15.8,10.2
							C253.8,224.8,253.2,221.7,255,217.8z"/>
					</g>
					<g>
						<g>
							<path class="st14" d="M250.7,212.6c-3.6-1.8-6.4-7.4-8.7-12.8c-2.2-5.3-0.8-10.5,1.8-12.2c2.4-12.7,5.3-18,16.8-15.4
								c11.9,3,16.9,8.8,14.2,21.2c5.6-2.3,7.1,8.5-1.7,8.5C269.8,209.2,257.8,212.5,250.7,212.6z"/>
							<path class="st25" d="M269.5,181.5c6.5,3.9,0.1,11.8,3.7,14.6c15-13.3,4.2-22.8-10.4-28.2c-11.3-3.9-24.8,8.1-18,15.1
								c0.7-2.6,5.1-9.5,9.9-6.8c-0.8,5,14.8,10.7,13.1,13.9C270,189,271.3,184.6,269.5,181.5z"/>
							<path class="st7" d="M275.5,197.8c-0.4-0.4-0.6-1-0.3-1.6c0.5-1,1.9-0.9,2.4,0c0.4,0.7,0.2,2.1-0.9,3.2
								c-0.6,0.6-2,1.1-1.9,0.4C275,199.3,275.9,198.2,275.5,197.8z"/>
						</g>
						<g>
							<g>
								<path class="st9" d="M259.6,186c-0.4,0.5,1.3,1.2,2.3,1.8c1,0.7,2,1.5,2.4,0.8C265.3,187,260.6,184.8,259.6,186z"/>
								<path class="st10" d="M262.1,192.9c0.8-2.5-3.6-3.7-5.3-2c1.1-1.7,4.8-2,6,0C263.4,191.7,263,192.7,262.1,192.9z"/>
								<path class="st4" d="M262.1,192.9c-1.6-0.1-2.8,0.8-4.5-0.1c-0.6-0.4-0.7-1.3-0.5-1.8c0.3-0.5,0.8-0.8,1.6-0.9
									C260.6,190,262.7,191.1,262.1,192.9z"/>
								<path class="st25" d="M258.3,193c-0.8-0.1-1.3-0.8-1.2-1.6c0.1-0.8,0.8-1.3,1.6-1.2c0.8,0.1,1.3,0.8,1.2,1.6
									C259.8,192.6,259.1,193.1,258.3,193z"/>
								<path class="st4" d="M257.9,192.1c-0.4-0.1-0.7-0.4-0.6-0.8c0.1-0.4,0.4-0.7,0.8-0.6c0.4,0.1,0.7,0.4,0.6,0.8
									C258.7,191.9,258.3,192.2,257.9,192.1z"/>
							</g>
							<g>
								<path class="st7" d="M249.2,193.5c0.9,0.4,1.9,1.6,2,3c0.1-2-0.7-3.1-1.9-3.5c-1.1-0.3-2.4-0.1-2.7,1.6
									C247.3,192.9,248.2,193.2,249.2,193.5z"/>
								<path class="st5" d="M249,195.4c0.8,0.3,1.7,1.5,1.8,1.2c0.3-0.5-0.7-2.5-2-3s-2.2,0.7-1.9,1.4
									C246.9,195.3,248.2,195.1,249,195.4z"/>
								<path class="st42" d="M243.1,192.2c0.7,1.2,1.8,2.7,2.1,1.7c0.4-1.1,0.7-2.2-0.5-4.2c-1.2-2.1-2.3-0.9-2.5,0
									C242,190.5,242.3,191,243.1,192.2z"/>
								<path class="st42" d="M261.5,197.3c-3.2,0.8-5.2,1.9-5.7,0.8c-0.5-1.1,1-3.7,4.8-4.2c3.7-0.5,4.9,1.2,5.2,2.1
									C266,196.9,264.6,196.6,261.5,197.3z"/>
							</g>
							<g>
								<path class="st42" d="M249.3,202.5c1.5,0.5,3,0,3.1,0.4c0.2,0.6-2,1.6-3.6,0.8c-1.6-0.8-1.7-2-1.4-2.3
									C247.6,201.2,247.8,202,249.3,202.5z"/>
								<path class="st7" d="M247.1,202.7c0.4,2.1,3.4,2.4,4.8,1.2C250.2,204.9,248.1,204.1,247.1,202.7z"/>
								<path class="st7" d="M246.3,199.4c2.5,2.7,5.9,2.7,9.2,2.7C252.7,202.6,247.6,202.7,246.3,199.4z"/>
							</g>
							<g>
								<path class="st9" d="M248.2,183.8c0.1,0.7-0.7,0.2-1.6,0.3c-0.9,0.1-1.8,0.4-1.8-0.4C244.8,182.3,248,182.3,248.2,183.8z"/>
								<path class="st4" d="M245.1,187.8c0.8,0.7,0.7,2,1.9,1.9c0.4,0,1-0.5,1-1c0-0.6-0.2-1.2-0.5-1.6
									C246.6,186.1,245.1,185.4,245.1,187.8z"/>
								<path class="st10" d="M245.1,187.8c0-2.3,2.5-1.6,3.2,1.1c-0.1-2-1.8-4.1-3-3C244.8,186.3,244.7,187.1,245.1,187.8z"/>
								<path class="st25" d="M246.2,189.2c0.5,0.3,1-0.1,1.2-0.8c0.2-0.7,0-1.6-0.5-1.9c-0.5-0.3-1,0.1-1.2,0.8
									C245.5,188.1,245.7,188.9,246.2,189.2z"/>
								<path class="st4" d="M246.1,188.1c0.2,0.1,0.5,0,0.6-0.4c0.1-0.4,0-0.8-0.2-0.9c-0.2-0.1-0.5,0-0.6,0.4
									C245.7,187.6,245.8,188,246.1,188.1z"/>
							</g>
						</g>
					</g>
					<g>
						<path class="st10" d="M247.3,170.4l24.1,12.1c-12.3,3.8-24.4,1-29.1-2.8C237.8,176.1,241.5,173.3,247.3,170.4z"/>
						<path class="st4" d="M290.5,179.2c-17.8,0.3-42.4-7.3-41.6-15.3c-0.3-4.2-6.5-10,0.8-10c2.5,0,8.5,0.7,15.4,3.1
							c9.5,3.4,21.3,10.7,26.7,15.9c3.1,3,2.7,4.5,1.1,5.5C292.2,178.7,291.3,178.8,290.5,179.2z"/>
						<path class="st46" d="M288.7,184.5l1.8-5.3c-15.5-2-26.8-5.9-34.1-8.9c-4.7-2-7.3-4.1-7.5-6.4l-1.5,6.5
							c0.8,2.4,3.6,4.6,7.5,6.5C264.5,181.7,279.1,184.6,288.7,184.5z"/>
						<path class="st47" d="M247.9,168.9l0.9-2.4c0.5,1.8,3.3,4.2,6.8,6c4.5,2.3,10.5,4.3,15.4,5.4l-0.4,1.8
							c-5.1-1.1-11.2-3.1-15.8-5.5C251.6,172.6,249.1,170.8,247.9,168.9z"/>
						<path class="st48" d="M270.8,180.8c1.1,0,2-0.9,2-2c0-1.1-0.9-2-2-2c-1.1,0-2,0.9-2,2C268.8,179.9,269.7,180.8,270.8,180.8z"
							/>
						<path class="st48" d="M247.6,169.2c0.9,0.4,1.9-3.7,0.9-3.9C247.1,164.8,246,168.4,247.6,169.2z"/>
					</g>
				</g>
				<g>
					<g>
						<path class="st49" d="M212.9,252.4c-2.4-0.3-4.4,0.8-6.3,0.6c-0.3-3.5,2.2-3,3.4-3.9c0.8-0.6,2-1.8,2-2.9
							c-1.2-1.1-2-1.7-2.8-1.9c-1.1,0.5-1.3,1.4-2.9,1.5c0.1,1.4-0.1,3.6-1,3.8c-2.4,0.4-2.5-5.9-1.6-7.2c2.5-1.7,4.6-3.4,7.9-3.9
							c1.3,0.1,5.3,1.4,9.1,2.2c3.6,0.8,7,1.3,8.4,1.8c0.9,0.6,3.3,2.3,1.6,6c-1.5,3.1-4.1,2.6-7.3,2.6c-2.4,0-4.8,0.9-6.5,1.2
							C215.3,252.2,215.2,252.7,212.9,252.4z"/>
						<path class="st50" d="M218.7,239.6l0.7,15.1c9.1,1.5,18.2,1.5,26.3,0.6c4.4-0.8,14.1-15,17.9-23.6c1.3-2.9,1.3-6.9-0.3-8.9
							c-3.5-4.2-8-5-12.7-0.4c-2.5,2.4-6.1,11.1-8.9,15.9C235.3,238.6,224.4,239.6,218.7,239.6z"/>
					</g>
					<g>
						<g>
							<path class="st51" d="M244.2,259.2h42.4c0.1-2.5-0.4-24.6-0.4-27.1c-0.1-4-2.3-7.2-7.9-12.4c-1.4-1.3-4.1-4.5-5.8-7.2
								c-7.9,6-14.6,6.1-15.8,5.8c-1.1-0.3-1.4-0.7-1.2-2.5c-1.5,2.1-3.3,4-4.4,5.1C244.4,227.7,243,241.5,244.2,259.2z"/>
							<path class="st52" d="M256.9,218.4c-1.3,2.2-4.2,9.9-5.3,15.4c-1.5,7.7-1.8,21.1-1.8,25.5h-0.6c0-4.4,0.3-17.9,1.8-25.6
								c1.1-5.5,4-13.2,5.4-15.4L256.9,218.4z"/>
							<path class="st48" d="M252.5,236.9c0.4,0.1,0.8-0.4,0.9-1c0.1-0.6-0.1-1.2-0.5-1.3c-0.4-0.1-0.8,0.4-0.9,1
								C251.9,236.2,252.1,236.8,252.5,236.9z"/>
						</g>
						<g>
							<path class="st53" d="M276.8,225.3c2.3-0.9,3.5-1.4,5.9-1.7c-1.7-2-4.2-4.4-6.3-6.2c-2.2,1-3.5,1.6-5.5,3
								C272.9,221.8,275.5,224.3,276.8,225.3z"/>
							<path class="st4" d="M272.2,220.5c1.6,1.3,3.1,2.7,4.7,4c1.6-0.6,2.9-1.1,4.3-1.4c-1.5-1.7-3.3-3.3-5-4.8
								C274.7,219,273.5,219.6,272.2,220.5z"/>
						</g>
						<g>
							<path class="st4" d="M274.6,215c-0.8-0.8-2.2-3.6-2.2-5.2c-1.1,2.5-11.6,8.2-15.8,8.5c0.9,2.3,2.6,5.9,4.9,9.2
								C263.9,225.3,274.6,219.3,274.6,215z"/>
							<path class="st4" d="M256.6,218.3c-1.6,1.9-4,4.6-5.9,7.3c0.2-2.6,1.8-6.2,2.6-7.5c0.7-0.8,1.2-1.5,2.2-3.2
								C255.3,216.6,255.5,217.8,256.6,218.3z"/>
							<path class="st54" d="M256.6,218.3c-1.6,1.9-4,4.6-5.9,7.3c0.2-2.6,1.8-6.2,2.6-7.5c0.3-0.4,0.6-0.8,0.9-1.2
								c-1,1.9-2.1,4.3-2.4,6c1.2-1.6,2.7-3.4,4.1-5.1C256.1,218,256.3,218.2,256.6,218.3z"/>
							<path class="st54" d="M265.1,224.9c3.8-2.6,8.9-6.3,9.5-9.3c0-0.2,0.1-0.4,0.1-0.6c-0.1-0.1-0.4-0.5-0.5-0.6
								c-2.6,5-8.5,7.5-12.4,11.2c-1.4-2.1-2.8-5.3-4-7.5c-0.4,0.1-0.7,0.2-1.1,0.2c0.8,2,2,4.9,3.2,6.7c0.5,0.8,1.1,1.6,1.7,2.5
								C262.2,226.9,263.5,226,265.1,224.9z"/>
						</g>
					</g>
					<g>
						<rect x="207.1" y="218.5" class="st27" width="7" height="40.7"/>
						<path class="st55" d="M207.8,218.5h2.7h2.7v-4.1c-1.8-1-2-5.6-1.8-7.8c0.3-2.9,2.1-5.9,2.1-8.6c0-2.3-1.4-3.9-3.1-3.9
							c-1.7,0-3.1,1.5-3.1,3.9c0,2.8,1.9,5.7,2.1,8.6c0.2,2.2,0,6.9-1.8,7.8V218.5z"/>
						<path class="st37" d="M207.8,233.8c0,1.3,5.5,1.3,5.5,0v-3c-1.8-0.7-2-4.1-1.8-5.7c0.3-2.1,2.1-4.3,2.1-6.3
							c0-1.7-1.4-2.8-3.1-2.8c-1.7,0-3.1,1.1-3.1,2.8c0,2,1.9,4.2,2.1,6.3c0.2,1.6,0,5-1.8,5.7V233.8z"/>
						<path class="st38" d="M210.6,220c1.2,0,2.2-0.8,2.2-1.9c0-1-1-1.9-2.2-1.9c-1.2,0-2.2,0.8-2.2,1.9
							C208.4,219.1,209.4,220,210.6,220z"/>
					</g>
					<g>
						<path class="st56" d="M214.6,255c-2.4-0.3-4.4,0.8-6.3,0.6c-0.3-3.5,2.2-3,3.4-3.9c0.8-0.6,2-1.8,2-2.9
							c-1.2-1.1-2-1.7-2.8-1.9c-1.1,0.5-1.3,1.4-2.9,1.5c0.1,1.4-0.1,3.6-1,3.8c-2.4,0.4-2.6-5.9-1.6-7.2c2.5-1.7,4.6-3.4,7.9-3.9
							c1.3,0.1,5.3,1.4,9.1,2.2c3.6,0.8,7,1.3,8.4,1.8c0.9,0.6,3.3,2.3,1.6,6c-1.5,3.1-4.1,2.6-7.3,2.6c-2.4,0-4.8,0.9-6.5,1.2
							C217,254.8,217,255.3,214.6,255z"/>
						<path class="st4" d="M220.1,240.8l0.9,15.5c10.1,1.3,26.5,1.6,34.9,1.3c4.4-0.8,25.2-10.2,29-18.8c1.3-2.9,1-8.9-0.7-10.9
							c-6.5-6.8-23.2,6.6-32.7,13C244.6,241.5,226.6,241.1,220.1,240.8z"/>
						<path class="st37" d="M210.6,252.5c1.7,0,3.1-1.4,3.1-3.1s-1.4-3.1-3.1-3.1c-1.7,0-3.1,1.4-3.1,3.1S208.9,252.5,210.6,252.5z"
							/>
						<path class="st38" d="M210.6,251.6c1.2,0,2.2-1,2.2-2.2c0-1.2-1-2.2-2.2-2.2c-1.2,0-2.2,1-2.2,2.2
							C208.4,250.6,209.4,251.6,210.6,251.6z"/>
					</g>
				</g>
			</g>
		</g>
	</g>
	<g>
		<g>
			<g>
				<path class="st4" d="M706.7,167.5c-5.7-19.6-24.1-37.1-44.5-37.1H245.9c-2.9,0-5.8,0.5-8.6,1.5c-19.8,6.6-37.9,33.7-47.7,49.2
					c-9.3,14.7-29.2,43.5-29.2,60.6v48.4h582.2L706.7,167.5z M291.7,241.9c0,9.5-7.8,17.3-17.3,17.3H200c-9.5,0-17.6-7.8-17.3-17.3
					c0.5-14.9,33.6-72.7,54.5-88c3.2-2.4,6.2-3.7,8.6-3.7h28.5c9.5,0,17.3,7.8,17.3,17.3V241.9z M421,241.9
					c0,9.5-7.8,17.3-17.3,17.3h-74.4c-9.5,0-17.3-7.8-17.3-17.3v-74.4c0-9.5,7.8-17.3,17.3-17.3h74.4c9.5,0,17.3,7.8,17.3,17.3
					V241.9z M550.2,241.9c0,9.5-7.8,17.3-17.3,17.3h-74.4c-9.5,0-17.3-7.8-17.3-17.3v-74.4c0-9.5,7.8-17.3,17.3-17.3h74.4
					c9.5,0,17.3,7.8,17.3,17.3V241.9z M679.5,241.9c0,9.5-7.8,17.3-17.3,17.3h-74.4c-9.5,0-17.3-7.8-17.3-17.3v-74.4
					c0-9.5,7.8-17.3,17.3-17.3h74.4c9.5,0,17.3,7.8,17.3,17.3V241.9z"/>
				<path class="st57" d="M274.4,148h-28.5c-2.7,0-5.6,1.2-8.6,3.2c-12.7,8.4-27.6,31-32.9,39.3c-6.6,10.5-23.4,39.1-23.9,51.3
					c-0.4,10.8,8.8,19.6,19.5,19.6h74.4c10.7,0,19.5-8.8,19.5-19.5v-74.4C293.9,156.8,285.1,148,274.4,148z M291.7,241.9
					c0,9.5-7.8,17.3-17.3,17.3H200c-9.5,0-17.6-7.8-17.3-17.3c0.5-14.9,33.6-72.7,54.5-88c3.2-2.4,6.2-3.7,8.6-3.7h28.5
					c9.5,0,17.3,7.8,17.3,17.3V241.9z M662.2,148h-74.4c-10.7,0-19.5,8.8-19.5,19.5v74.4c0,10.7,8.8,19.5,19.5,19.5h74.4
					c10.7,0,19.5-8.8,19.5-19.5v-74.4C681.7,156.8,673,148,662.2,148z M679.5,241.9c0,9.5-7.8,17.3-17.3,17.3h-74.4
					c-9.5,0-17.3-7.8-17.3-17.3v-74.4c0-9.5,7.8-17.3,17.3-17.3h74.4c9.5,0,17.3,7.8,17.3,17.3V241.9z M403.7,148h-74.4
					c-10.7,0-19.5,8.8-19.5,19.5v74.4c0,10.7,8.8,19.5,19.5,19.5h74.4c10.7,0,19.5-8.8,19.5-19.5v-74.4
					C423.2,156.8,414.4,148,403.7,148z M421,241.9c0,9.5-7.8,17.3-17.3,17.3h-74.4c-9.5,0-17.3-7.8-17.3-17.3v-74.4
					c0-9.5,7.8-17.3,17.3-17.3h74.4c9.5,0,17.3,7.8,17.3,17.3V241.9z M532.9,148h-74.4c-10.7,0-19.5,8.8-19.5,19.5v74.4
					c0,10.7,8.8,19.5,19.5,19.5h74.4c10.7,0,19.5-8.8,19.5-19.5v-74.4C552.5,156.8,543.7,148,532.9,148z M550.2,241.9
					c0,9.5-7.8,17.3-17.3,17.3h-74.4c-9.5,0-17.3-7.8-17.3-17.3v-74.4c0-9.5,7.8-17.3,17.3-17.3h74.4c9.5,0,17.3,7.8,17.3,17.3
					V241.9z"/>
			</g>
			<g>
				<path class="st4" d="M465.7,85.2H318.8c-6.6,0-8.7,6.3-12.1,12.1l-19.3,33.2h178.3H644l-19.3-33.2c-3.3-5.7-5.4-12.1-12.1-12.1
					H465.7z"/>
				<polygon class="st58" points="287.4,130.5 644,130.5 639.7,123 291.8,123 				"/>
			</g>
			<g>
				<polygon class="st4" points="414.1,85.2 526.2,85.2 536.7,4.8 451.9,4.8 				"/>
				<polygon class="st59" points="414.1,85.2 526.2,85.2 529.1,63 424.5,63 				"/>
				<polygon class="st59" points="431.4,48.2 531,48.2 532.2,39.3 435.7,39.3 				"/>
			</g>
		</g>
		<g>
			<polygon class="st58" points="160.3,241.7 3.1,264.5 160.3,270 			"/>
			<path class="st59" d="M183.9,429h666.9l5.8-134.9L3.1,264.5l111.5,125.2C128.7,405.5,161.2,429,183.9,429z"/>
			<path class="st4" d="M123.4,398.4l728.4,7.7l0.4-8.6l-737.6-7.8l0,0C117,392.4,120,395.4,123.4,398.4z"/>
			<polygon class="st4" points="27.7,292.2 855.4,320.6 855.8,312 19.8,283.3 			"/>
		</g>
		<g>
			<path class="st46" d="M136.2,364.3c8.3,0,15.1-6.8,15.1-15.1c0-8.3-6.8-15.1-15.1-15.1c-8.3,0-15.1,6.8-15.1,15.1
				C121.1,357.5,127.8,364.3,136.2,364.3z"/>
			<path class="st60" d="M139.3,356.4c0,3.3,0,5.3,0,8.5c8.2,0.1,12.4-4.6,13.1-2.4c1,3.1-2,9.9-13,10.1l0,4.6
				c0.1,8.6,1.8,14.2,6,15.4c9.5,3,14.9-11.9,15.8-9.8c1.4,3.2,0.4,9.1-4.8,15.5c-4.3,5.3-16.1,11.1-20.2,11.5
				c-4-0.5-15.9-6.2-20.2-11.5c-5.2-6.4-6.2-12.2-4.8-15.5c0.9-2,6.3,12.8,15.8,9.8c4.1-1.3,5.9-6.9,6-15.5l0-4.6
				c-10.9-0.2-13.9-7-13-10.1c0.7-2.2,4.9,2.5,13.1,2.4c0-3.3,0-5.3,0-8.5c-2.8-1.2-4.8-4-4.8-7.2c0-4.3,3.5-7.8,7.8-7.8
				c4.3,0,7.8,3.5,7.8,7.8C144,352.4,142,355.2,139.3,356.4z"/>
			<path class="st46" d="M136.2,352.6c1.9,0,3.4-1.5,3.4-3.4c0-1.9-1.5-3.4-3.4-3.4c-1.9,0-3.4,1.5-3.4,3.4
				C132.8,351.1,134.3,352.6,136.2,352.6z"/>
		</g>
		<g>
			<path class="st4" d="M237.2,378c15.4,0,28-12.5,28-28c0-15.4-12.5-28-28-28c-15.4,0-28,12.5-28,28
				C209.2,365.5,221.8,378,237.2,378z"/>
			<path class="st4" d="M366.5,378c15.4,0,28-12.5,28-28c0-15.4-12.5-28-28-28c-15.4,0-28,12.5-28,28C338.5,365.5,351,378,366.5,378
				z"/>
			<path class="st4" d="M495.8,378c15.4,0,28-12.5,28-28c0-15.4-12.5-28-28-28c-15.4,0-28,12.5-28,28
				C467.8,365.5,480.3,378,495.8,378z"/>
			<path class="st4" d="M625,378c15.4,0,28-12.5,28-28c0-15.4-12.5-28-28-28c-15.4,0-28,12.5-28,28C597.1,365.5,609.6,378,625,378z"
				/>
			<path class="st46" d="M237.2,369.8c10.9,0,19.8-8.9,19.8-19.8c0-10.9-8.9-19.8-19.8-19.8c-10.9,0-19.8,8.9-19.8,19.8
				C217.4,360.9,226.3,369.8,237.2,369.8z"/>
			<path class="st46" d="M366.5,369.8c10.9,0,19.8-8.9,19.8-19.8c0-10.9-8.9-19.8-19.8-19.8c-10.9,0-19.8,8.9-19.8,19.8
				C346.7,360.9,355.6,369.8,366.5,369.8z"/>
			<path class="st46" d="M495.8,369.8c10.9,0,19.8-8.9,19.8-19.8c0-10.9-8.9-19.8-19.8-19.8c-10.9,0-19.8,8.9-19.8,19.8
				C476,360.9,484.8,369.8,495.8,369.8z"/>
			<path class="st46" d="M625,369.8c10.9,0,19.8-8.9,19.8-19.8c0-10.9-8.9-19.8-19.8-19.8c-10.9,0-19.8,8.9-19.8,19.8
				C605.2,360.9,614.1,369.8,625,369.8z"/>
		</g>
		<g>
			<path class="st4" d="M841.2,293.6l9.6,0.3V130.4c0-3.9-9.6-3.9-9.6,0V293.6z"/>
			<path class="st61" d="M914.2,177.8c-24.4-10.8-37.3,9.9-63.4,7.9c16.4-14.5,22-45.9,0-55.4c25.2-1.3,40.8-14.6,65.5-4.5
				c5.8,2.4,12.3,9.3,18,10.8c6.1,1.6,21-6.9,37.5-4.9c12.4,1.5,26.3,23.7,47.3,25.5c-16.7,3.1-36.7-3-48.1,1.7
				c-14.7,6-23.6,18-32.6,20.5C931.4,181.4,923.3,181.8,914.2,177.8z"/>
			<path class="st62" d="M889.7,174.8c11-5.2,23.2,0.1,29.2,3c6.6-19.3,7.6-46.6-8.4-52c-2.1-0.7-8-1.7-15.2-1.4
				C903.3,134.4,899.3,162.1,889.7,174.8z"/>
			<path class="st63" d="M954.8,167.5c7.2-6.6,17.2-11.6,25.6-11.4c4.7-6.8,2.7-20.1-7.1-23.4c-1.4-0.5-6.6-0.8-13.9,0.2
				C966.2,141.6,963.4,160.2,954.8,167.5z"/>
		</g>
	</g>
</g>
</svg>
