<?xml version="1.0" encoding="utf-8"?>
<!-- Generator: Adobe Illustrator 23.0.6, SVG Export Plug-In . SVG Version: 6.00 Build 0)  -->
<svg version="1.1" id="Слой_1" xmlns="http://www.w3.org/2000/svg" xmlns:xlink="http://www.w3.org/1999/xlink" x="0px" y="0px"
	 viewBox="0 0 988 732" style="enable-background:new 0 0 988 732;" xml:space="preserve">
<style type="text/css">
	
		.st0{display:none;fill-rule:evenodd;clip-rule:evenodd;fill:#FFFFFF;stroke:#000000;stroke-width:0.9921;stroke-linejoin:round;stroke-miterlimit:22.9256;}
	
		.st1{fill-rule:evenodd;clip-rule:evenodd;fill:#FFFFFF;stroke:#000000;stroke-width:0.9921;stroke-linejoin:round;stroke-miterlimit:22.9256;}
</style>
<path class="st0" d="M946.7,616H478.3c-2.4,41.3,30.4,86.5,124.2,116c-113-8.7-242.5-23.9-298.2-116h-263C18.6,616,0,599.9,0,580.2
	V35.7C0,16.1,18.6,0,41.3,0h905.5C969.4,0,988,16.1,988,35.7v544.5C988,599.9,969.4,616,946.7,616z"/>
<path class="st1" d="M41.3,616h234.2c2.4,41.3-30.3,86.5-124.2,116c113-8.7,242.5-23.9,298.2-116h497.2c22.7,0,41.3-16.1,41.3-35.7
	V35.7C988,16.1,969.4,0,946.7,0H41.3C18.6,0,0,16.1,0,35.7v544.5C0,599.9,18.6,616,41.3,616z"/>
</svg>
