<?xml version="1.0" encoding="utf-8"?>
<!-- Generator: Adobe Illustrator 23.0.6, SVG Export Plug-In . SVG Version: 6.00 Build 0)  -->
<svg version="1.1" xmlns="http://www.w3.org/2000/svg" xmlns:xlink="http://www.w3.org/1999/xlink" x="0px" y="0px"
	 viewBox="0 0 800 800" style="enable-background:new 0 0 800 800;" xml:space="preserve">
<style type="text/css">
	.st0{fill:#FFFFFF;}
</style>
<g id="background">
</g>
<g id="objects">
	<g>
		<path class="st0" d="M181.6,627.3c0-0.5,0-0.9,0-1.4v-0.4l-0.3,0c-2.6-15.1-15.6-26.6-31.2-26.6c-2.2,0-4.3,0.2-6.3,0.6
			c-6.8-10.4-18.6-17.3-31.9-17.3c-20.1,0-36.5,15.6-38.1,35.5c-3.5-2-7.5-3.1-11.8-3.1c-13.2,0-24,10.8-24,24.2v0.2
			c0,13.2,10.6,24,23.7,24h83c0.9,0,1.8,0,2.7-0.1c0.8,0.1,1.7,0.1,2.6,0.1c17.5,0,31.7-14.4,31.7-32.1
			C181.8,629.8,181.8,628.5,181.6,627.3z"/>
	</g>
	<g>
		<path class="st0" d="M729.3,674.5c-1,0-1.9,0.1-2.9,0.2c-3.4-16.7-18.2-29.2-35.9-29.2c-2.3,0-4.5,0.2-6.7,0.6
			c-8.7-19-27.9-32.2-50.1-32.2c-24.2,0-44.7,15.6-52.2,37.3c-3.1-1-6.3-1.5-9.7-1.5c-17.9,0-32.4,14.5-32.4,32.4c0,0.2,0,0.5,0,0.7
			c-1.2-0.2-2.5-0.4-3.8-0.4c-11.5,0-20.9,9.3-20.9,20.9s9.3,20.9,20.9,20.9h193.6c13.7,0,24.8-11.1,24.8-24.8
			S743,674.5,729.3,674.5z"/>
	</g>
	<g>
		<path class="st0" d="M734.3,115.9c-1.6,0-3.1,0.1-4.6,0.3c-5.5-18.4-22.5-31.9-42.7-31.9c-18.4,0-34.1,11.1-40.9,27
			c-4-1.6-8.4-2.5-13-2.5c-14.1,0-26.3,8.3-31.9,20.4c-3.7-1.7-7.8-2.7-12.2-2.7c-12.2,0-22.6,7.6-26.7,18.4c-2.7-1.3-5.8-2-9-2
			c-11.9,0-21.6,9.7-21.6,21.6c0,11.9,9.7,21.6,21.6,21.6h181c19.4,0,35.1-15.7,35.1-35.1C769.4,131.6,753.7,115.9,734.3,115.9z"/>
	</g>
	<g>
		<path class="st0" d="M637.8,282.4c-18.2-2.8-35.9-1-52.2,4.5c-6.8-47-43.4-86-92.8-93.6c-28.4-4.4-56,2.5-78.2,17.3
			c-12.1-12.2-28-20.7-46.3-23.5c-32.6-5-63.7,9.7-81.2,35.3c-2.5-0.5-5.1-1-7.6-1.4c-64.5-9.9-125.2,29.8-143.3,90.7
			c-38,2-70.6,30.4-76.6,69.5c-6.9,44.8,23.8,86.7,68.6,93.6c3.5,0.5,6.9,0.8,10.3,0.9c-0.3,1.4-0.6,2.9-0.8,4.3
			c-6.9,44.8,23.8,86.7,68.6,93.6c33.6,5.2,65.6-10.8,82.3-38.1c16.4,27.3,44.3,47.3,78.1,52.5c32.3,5,63.5-4.6,87-23.8
			c6,2,12.2,3.6,18.6,4.6c52.5,8.1,102-22.2,120.2-69.9c3.7,1,7.6,1.8,11.5,2.4c60.4,9.3,116.9-32.2,126.2-92.6
			C739.7,348.2,698.3,291.7,637.8,282.4z"/>
	</g>
</g>
<g id="designed_by_freepik">
</g>
</svg>
