<?xml version="1.0" encoding="utf-8"?>
<!-- Generator: Adobe Illustrator 23.0.3, SVG Export Plug-In . SVG Version: 6.00 Build 0)  -->
<svg version="1.1" xmlns="http://www.w3.org/2000/svg" xmlns:xlink="http://www.w3.org/1999/xlink" x="0px" y="0px"
	 viewBox="0 0 1076.9 723.9" style="enable-background:new 0 0 1076.9 723.9;" xml:space="preserve">
<style type="text/css">
	.st0{display:none;}
	.st1{fill:#D0E5C7;}
	.st2{fill:#216F38;}
	.st3{fill:#63A945;}
</style>
<g id="BACKGROUND" class="st0">
</g>
<g id="OBJECTS">
	
		<ellipse transform="matrix(0.6496 -0.7603 0.7603 0.6496 -71.2853 551.0295)" class="st1" cx="562.2" cy="352.9" rx="322.5" ry="265.3"/>
	<g>
		<path class="st2" d="M810.4,543.7H320.2c-6.1,0-11.1-5-11.1-11.1c0-6.1,5-11.1,11.1-11.1h482.1l77.9-244h-24
			c-6.1,0-11.1-5-11.1-11.1c0-6.1,5-11.1,11.1-11.1h39.2c3.5,0,6.9,1.7,9,4.6c2.1,2.9,2.7,6.5,1.6,9.9L821,536
			C819.5,540.6,815.2,543.7,810.4,543.7z"/>
		<path class="st3" d="M778,500.8H231.2c-6.1,0-11.1-5-11.1-11.1c0-6.1,5-11.1,11.1-11.1h538.6l81.7-267.5H327.8
			c-6.1,0-11.1-5-11.1-11.1c0-6.1,5-11.1,11.1-11.1h538.7c3.5,0,6.8,1.7,8.9,4.5c2.1,2.8,2.7,6.5,1.7,9.8l-88.5,289.7
			C787.2,497.6,782.9,500.8,778,500.8z"/>
		<path class="st3" d="M283.8,213.8h-43.8c-7.7,0-13.9-6.2-13.9-13.9c0-7.7,6.2-13.9,13.9-13.9h43.8c7.7,0,13.9,6.2,13.9,13.9
			C297.7,207.6,291.5,213.8,283.8,213.8z"/>
		<path class="st2" d="M163.3,374.1h-43.8c-6.1,0-11.1-5-11.1-11.1c0-6.1,5-11.1,11.1-11.1h43.8c6.1,0,11.1,5,11.1,11.1
			C174.4,369.1,169.4,374.1,163.3,374.1z"/>
		<path class="st2" d="M225,454.9h-43.8c-6.1,0-11.1-5-11.1-11.1c0-6.1,5-11.1,11.1-11.1H225c6.1,0,11.1,5,11.1,11.1
			C236.1,449.9,231.1,454.9,225,454.9z"/>
		<path class="st2" d="M287.3,543.7h-43.8c-6.1,0-11.1-5-11.1-11.1c0-6.1,5-11.1,11.1-11.1h43.8c6.1,0,11.1,5,11.1,11.1
			C298.3,538.7,293.4,543.7,287.3,543.7z"/>
		<path class="st2" d="M284.5,229.7c-5.7,0-10.3,4.6-10.3,10.3c0,5.7,4.6,10.3,10.3,10.3h72.8c5.7,0,10.3,4.6,10.3,10.3
			c0,4.8-3.3,8.8-7.7,9.9h-29.6h-16.2h-50.7h-8.6H249h-13.7h-61.8c-5.7,0-10.3,4.6-10.3,10.3c0,5.7,4.6,10.3,10.3,10.3h61.8H249h5.8
			h59.3h16.2h33.9c5.7,0,10.3,4.6,10.3,10.3c0,5.7-4.6,10.3-10.3,10.3h-47.8c-0.4,0-0.9-0.1-1.3-0.1h-91.3c-2.8,0-5.4,1.2-7.3,3
			c-1.9,1.8-3,4.4-3,7.3c0,5.7,4.6,10.3,10.3,10.3h106c5.7,0,10.3,4.6,10.3,10.3c0,5.7-4.6,10.3-10.3,10.3H198.8
			c-2.9,0-5.4,1.2-7.3,3c-1.8,1.8-3,4.4-3,7.3c0,5.7,4.6,10.3,10.3,10.3h106.4c5.7,0,10.3,4.6,10.3,10.3c0,4.3-2.7,8-6.4,9.5h-123
			v0.2h-18.2c-2.8,0-5.4,1.1-7.3,3c-1.8,1.9-3,4.4-3,7.3c0,5.7,4.6,10.3,10.3,10.3h149.4c5.7,0,10.3,4.6,10.3,10.3
			c0,5.7-4.6,10.3-10.3,10.3h-59.8c-5.7,0-10.3,4.6-10.3,10.3c0,2.8,1.2,5.4,3,7.3c1.8,1.9,4.4,3,7.3,3h495.7l66-225.2H284.5z
			 M609,309.9l-37.2-1.9c1.4-6.7,0.8-11.6-1.8-14.8c-2.5-3.1-6.7-4.8-12.6-5.1c-5.7-0.3-10.2,0.9-13.5,3.6
			c-3.3,2.7-5.4,6.2-6.2,10.7c-1,4.5-0.4,8,1.7,10.6c2.1,2.5,7,5.8,14.5,9.7c16,5.6,27.6,12.1,34.6,19.5c7,7.4,9.3,17.2,6.7,29.4
			c-2.5,11.8-8.5,20.8-18,27c-9.5,6.2-21.5,9.5-36.1,9.9l-4.1,19.5l-17.6-0.9l4.1-19.4c-14.2-1.9-25.5-6.7-33.7-14.4
			c-8.2-7.8-10.7-18.6-7.4-32.5l0.2-0.5l36.5,1.8c-1.6,7.7-0.8,13.2,2.6,16.4c3.4,3.2,8.6,5,15.7,5.3c5.8,0.3,10.4-0.8,13.9-3.4
			c3.5-2.6,5.7-6,6.6-10.4c1.1-5.3,0.5-9.3-1.7-12c-2.2-2.7-7.1-5.8-14.5-9.1c-16.5-6.3-28.2-12.9-35.1-19.7
			c-6.8-6.9-8.9-16.4-6.3-28.7c2.3-11.5,8.5-20.4,18.4-26.8c9.9-6.4,22.3-9.8,37.3-10.1l4.3-20.4l17.5,0.9l-4.4,20.8
			c13,2.3,22.8,7.5,29.3,15.4C609.3,288.1,611.3,298,609,309.9z"/>
	</g>
</g>
<g id="DESIGNED_BY_FREEPIK_1_" class="st0">
</g>
</svg>
